<svg width="69" height="69" viewBox="0 0 69 69" fill="none" xmlns="http://www.w3.org/2000/svg">
<g clip-path="url(#clip0_101_73)">
<path d="M54.3408 38.2689C53.8862 38.348 53.5286 38.1655 53.2547 37.8068C53.1975 37.732 53.1492 37.6494 53.1044 37.5663C52.9219 37.2269 52.6465 36.9892 52.2936 36.847C51.9083 36.6918 51.5186 36.5468 51.127 36.4079C50.948 36.3444 50.7699 36.281 50.6122 36.1753C50.3082 35.9715 50.2532 35.6664 50.4639 35.367C50.6417 35.1144 50.8976 34.9794 51.1885 34.9017C51.7643 34.748 52.3319 34.8013 52.9081 34.9777C53.8232 35.1806 54.4949 35.7557 55.0455 36.4954C55.2404 36.7572 55.3743 37.0478 55.3307 37.3917C55.2608 37.9444 54.7542 38.1968 54.3408 38.2689ZM50.0571 42.9978C48.7642 44.8882 47.0859 46.4989 45.1902 47.7784C40.7394 50.783 35.1214 51.8989 29.9055 50.5117C26.7808 49.6804 23.873 48.0456 21.472 45.8286C18.9327 43.4837 17.2017 40.4318 16.2586 37.1214C16.1844 36.8607 16.1145 36.5828 16.1888 36.322C16.6094 34.8478 19.0587 36.3349 19.8398 36.6472C26.4707 39.2972 34.2202 39.558 41.2774 39.4426C43.0451 39.4137 44.8892 39.172 46.639 38.7458C47.5377 38.5268 48.4243 38.2588 49.2948 37.9456C50.0413 37.6771 51.0421 36.9918 51.8313 37.4893C53.2137 38.3609 50.6594 42.1173 50.0571 42.9978ZM15.0392 35.7279C14.9593 35.7784 14.881 35.8344 14.7949 35.8717C14.3875 36.0485 13.9748 35.8358 13.8747 35.4017C13.8264 35.1922 13.8551 34.9879 13.8881 34.8853C14.0508 34.3029 14.3513 33.9283 14.707 33.5951C15.035 33.2877 15.4163 33.0416 15.8365 32.8993C16.5417 32.6603 17.2731 32.5582 18.0145 32.7303C18.3667 32.812 18.6654 32.9822 18.8335 33.3285C18.9963 33.6641 18.9527 33.9779 18.7229 34.2564C18.4463 34.5918 18.077 34.7759 17.647 34.831C17.4595 34.8551 17.2702 34.866 17.0815 34.8784C16.5604 34.9126 16.0808 35.0743 15.6379 35.347C15.4364 35.471 15.2392 35.6017 15.0392 35.7279ZM22.7122 23.9513C23.0155 23.4858 23.6387 23.3544 24.1043 23.6579L24.2365 23.7441C24.5234 23.931 24.7993 24.1371 25.0839 24.3105L25.5182 24.5356L25.7328 24.6502L25.9549 24.7255C26.1024 24.7744 26.2479 24.8283 26.3923 24.8827C26.5402 24.9082 26.6865 24.936 26.8324 24.9663C26.9776 25.0104 27.1246 24.9943 27.2696 25.0037L27.4871 25.014C27.5596 25.015 27.6314 24.9965 27.7034 24.991C28.2771 24.9428 28.8574 24.778 29.417 24.4806C29.6918 24.3245 29.9709 24.1604 30.2282 23.957C30.3603 23.8595 30.4841 23.753 30.6062 23.644C30.7213 23.5417 30.8592 23.4111 30.933 23.3384L31.0216 23.2512C31.3677 22.9096 31.9205 22.8601 32.3252 23.1571C32.7742 23.4865 32.8712 24.1175 32.5418 24.5665C32.3737 24.7955 32.2478 24.9483 32.0915 25.121C31.9385 25.2839 31.7816 25.4431 31.6147 25.5912C31.287 25.8942 30.9253 26.1664 30.5385 26.41C29.7652 26.8927 28.841 27.2379 27.8715 27.2896C27.751 27.2967 27.6305 27.3123 27.5101 27.3085L27.1489 27.2839C26.9091 27.2622 26.6652 27.2591 26.4368 27.1926L25.7442 27.0258C25.5273 26.9435 25.3137 26.8535 25.1012 26.7625L24.7842 26.6242L24.4954 26.451L23.9227 26.1004C23.57 25.839 23.2478 25.5513 22.9149 25.2768C22.5243 24.9555 22.4295 24.3849 22.7122 23.9513ZM39.3775 23.8687C39.8499 23.6169 40.4367 23.7957 40.6885 24.2679L40.7553 24.3934C40.9165 24.6955 41.0601 25.0117 41.2275 25.3047L41.5113 25.7123L41.6526 25.9159L41.8187 26.0882L42.1464 26.434L42.5144 26.7124C42.6285 26.8188 42.7717 26.8721 42.9015 26.9471L43.0985 27.0561C43.1653 27.09 43.2399 27.1069 43.3096 27.1339C43.8642 27.3381 44.4882 27.4548 45.115 27.3131C45.4251 27.2402 45.7409 27.2192 46.0616 27.1599C46.2228 27.1356 46.3823 27.1051 46.5445 27.0768C46.6977 27.0498 46.8838 27.0114 46.9978 27.0037L47.2716 26.9853C47.6039 26.964 47.938 27.1162 48.1351 27.4137C48.4279 27.856 48.3067 28.4521 47.8644 28.7449C47.6282 28.9013 47.4526 29.0009 47.2408 29.1009C47.0363 29.1951 46.8268 29.2793 46.6114 29.3436C46.1834 29.4805 45.7317 29.5683 45.2717 29.5622C45.0421 29.5641 44.8091 29.531 44.5809 29.5235C44.3509 29.5045 44.1185 29.4701 43.8882 29.4452C43.428 29.3629 42.9673 29.2504 42.5328 29.0563C42.424 29.0097 42.3111 28.9722 42.2069 28.9166L41.8998 28.7389C41.6983 28.6162 41.4847 28.5089 41.3123 28.3511L40.7744 27.9052L40.3177 27.3967L40.0947 27.1396L39.9111 26.8628L39.5452 26.3096C39.3326 25.9311 39.1572 25.5403 38.9657 25.1548C38.7339 24.6873 38.9141 24.1158 39.3775 23.8687ZM59.7473 30.3549C59.2232 27.0743 58.101 24.1111 56.3805 21.4672C54.6587 18.8246 52.4507 16.5609 49.7552 14.6796C47.0585 12.7975 44.0094 11.397 40.6051 10.4775C37.2597 9.57388 33.934 9.25243 30.6289 9.51344C27.3217 9.77336 24.2749 10.6176 21.4867 12.0419C18.6986 13.468 16.2512 15.467 14.1482 18.0381C12.0433 20.6098 10.4992 23.7177 9.5154 27.3601C8.5312 31.0035 8.29661 34.4805 8.81251 37.7917C9.32675 41.1025 10.4269 44.0913 12.1098 46.7568C13.7933 49.4224 15.9887 51.7301 18.6991 53.6793C21.4076 55.6272 24.4348 57.0545 27.78 57.9582C31.1844 58.8777 34.5321 59.1723 37.8256 58.8455C41.1176 58.5177 44.1771 57.6293 47.0036 56.182C49.8293 54.7344 52.2987 52.7097 54.4117 50.1085C56.523 47.507 58.0723 44.3851 59.0565 40.7418C60.0404 37.0994 60.2696 33.6363 59.7473 30.3549Z" fill="#067BC2"/>
</g>
<defs>
<clipPath id="clip0_101_73">
<rect width="54" height="54" fill="white" transform="translate(17.299) rotate(18.6842)"/>
</clipPath>
</defs>
</svg>
