<svg width="123" height="55" viewBox="0 0 123 55" fill="none" xmlns="http://www.w3.org/2000/svg">
<path fill-rule="evenodd" clip-rule="evenodd" d="M60.7801 36.5037C59.3488 35.8278 58.0018 35.5744 56.739 35.5744C53.7079 35.5744 50.8453 37.9398 50.8453 41.4052C50.8453 44.6993 53.371 47.2346 56.8232 47.2346C58.1696 47.2346 59.6015 46.8127 60.8644 46.1368V45.2061C59.3488 46.0518 58.086 46.3902 56.8232 46.3902C53.8757 46.3902 51.7712 44.3616 51.7712 41.4045C51.7712 38.5309 53.8764 36.3339 56.739 36.3339C58.086 36.3339 59.3488 36.6722 60.7801 37.4331V36.5037ZM69.8739 43.3488C69.8739 41.0669 68.2735 39.4609 66.0848 39.4609C63.8961 39.4609 62.2956 41.0669 62.2956 43.3488C62.2956 45.5458 63.8954 47.2353 66.0848 47.2353C68.2735 47.2353 69.8739 45.5458 69.8739 43.3488ZM69.0309 43.3488C69.0309 45.1232 67.7688 46.3909 66.0841 46.3909C64.4001 46.3909 63.1373 45.1232 63.1373 43.3488C63.1373 41.4894 64.4001 40.2218 66.0841 40.2218C67.7688 40.2218 69.0309 41.5743 69.0309 43.3488ZM77.1982 47.0668H78.0412V39.5458H77.1982V44.7849C76.6085 45.8841 75.936 46.3909 74.7574 46.3909C73.6624 46.3909 72.7358 45.7142 72.7358 44.1925V39.5458H71.9777V44.1925C71.9777 46.4744 73.4097 47.2346 74.7567 47.2346C75.8504 47.2346 76.525 46.8127 77.1975 45.7985V47.0668H77.1982ZM81.2393 39.5465H80.3977V47.0675H81.2393V41.8284C81.9139 40.7292 82.5864 40.2224 83.6814 40.2224C84.9449 40.2224 85.7016 41.1532 85.7016 42.7577V47.0675H86.4598V42.5044C86.4598 40.4758 85.2812 39.4623 83.6821 39.4623C82.672 39.4623 81.9139 39.8006 81.24 40.8998V39.5465H81.2393ZM94.1216 39.7999C93.3635 39.5465 92.8581 39.4616 92.1849 39.4616C90.0797 39.4616 88.5642 41.0675 88.5642 43.433C88.5642 45.7149 89.9962 47.236 92.1849 47.236C92.943 47.236 93.447 47.1524 94.2901 46.8141V45.9683C93.447 46.3066 92.943 46.3915 92.2684 46.3915C90.5002 46.3915 89.4066 45.2074 89.4066 43.3495C89.4066 41.4901 90.5851 40.2224 92.1842 40.2224C92.8574 40.2224 93.2779 40.3074 94.1209 40.6457V39.7999H94.1216ZM96.3103 47.0668H97.0684V39.5458H96.3103V47.0668ZM96.3103 37.0961H97.0684V35.66H96.3103V37.0961ZM99.7625 47.0668H100.521V35.66H99.7625V47.0668ZM60.7801 19.8585C59.3488 19.1826 58.0018 18.8443 56.739 18.8443C53.7079 18.8443 50.8453 21.2104 50.8453 24.7593C50.8453 28.0541 53.371 30.5045 56.8232 30.5045C58.1696 30.5045 59.6015 30.1675 60.8644 29.4916V28.5609C59.3488 29.4067 58.086 29.7436 56.8232 29.7436C53.8757 29.7436 51.7712 27.6315 51.7712 24.7593C51.7712 21.8857 53.8764 19.6887 56.739 19.6887C58.086 19.6887 59.3488 20.027 60.7801 20.7872V19.8585ZM69.8739 26.7029C69.8739 24.421 68.2735 22.7308 66.0848 22.7308C63.8961 22.7308 62.2956 24.421 62.2956 26.7029C62.2956 28.8999 63.8954 30.5045 66.0848 30.5045C68.2735 30.5045 69.8739 28.8999 69.8739 26.7029ZM69.0309 26.7029C69.0309 28.4773 67.7688 29.7436 66.0841 29.7436C64.4001 29.7436 63.1373 28.4773 63.1373 26.7029C63.1373 24.8435 64.4001 23.5759 66.0841 23.5759C67.7688 23.5759 69.0309 24.8435 69.0309 26.7029ZM77.1982 30.4209H78.0412V22.9006H77.1982V28.139C76.6085 29.1533 75.936 29.7436 74.7574 29.7436C73.6624 29.7436 72.7358 29.0676 72.7358 27.5466V22.8999H71.9777V27.5466C71.9777 29.7436 73.4097 30.5038 74.7567 30.5038C75.8504 30.5038 76.525 30.1668 77.1975 29.1526V30.4209H77.1982ZM81.2393 22.9006H80.3977V30.4209H81.2393V25.1818C81.9139 24.0833 82.5864 23.5766 83.6814 23.5766C84.9449 23.5766 85.7016 24.4217 85.7016 26.1112V30.4209H86.4598V25.8578C86.4598 23.8293 85.2812 22.7308 83.6821 22.7308C82.672 22.7308 81.9139 23.1533 81.24 24.2518V22.9006H81.2393ZM90.3324 20.4495H90.0804L89.575 21.1255V22.9006H87.5548V23.5766H89.575V28.9841C89.575 30.0833 90.4181 30.5051 91.259 30.5051C91.511 30.5051 91.8487 30.5052 92.1856 30.4216C92.4376 30.3367 92.691 30.2531 92.8588 30.1682V29.4073C92.1856 29.6607 91.9336 29.7443 91.4282 29.7443C90.3331 29.7443 90.3331 29.3224 90.3331 28.0548V23.5766H92.4383V22.9006H90.3331V20.4495H90.3324ZM100.269 22.9006H99.4256L96.8164 28.139L94.1216 22.9006H93.2793L96.4788 28.9834L93.8696 34.2225H94.6263L100.269 22.9006ZM60.6123 2.36685H59.77V7.60593H52.1924V2.36685H51.3507V13.7743H52.1924V8.36611H59.77V13.7743H60.6123V2.36685ZM69.285 12.4225C68.8631 12.7601 68.442 13.0984 68.1899 13.0984C68.105 13.0984 68.0215 13.0142 68.0215 12.6759V8.02848C68.0215 6.50743 66.6744 6.08558 65.7479 6.08558C64.9062 6.08558 64.2323 6.33897 63.3064 6.93068V7.69085C64.1481 7.01491 64.822 6.76152 65.5794 6.76152C66.6744 6.76152 67.2634 7.2683 67.2634 8.28256V9.2119C65.0747 9.38106 62.8853 10.057 62.8853 12.0006C62.8853 13.0149 63.7269 13.8593 64.9055 13.8593C65.6636 13.8593 66.4217 13.6059 67.2634 12.9299C67.3469 13.6908 67.4318 13.8593 67.7688 13.8593C68.1043 13.8593 68.442 13.775 69.1158 13.1833L69.285 13.0977V12.4225ZM67.2634 12.2533C66.4217 12.9292 65.9163 13.1826 65.1582 13.1826C64.3166 13.1826 63.7269 12.6759 63.7269 11.9999C63.7269 10.648 65.3267 9.80292 67.2634 9.88715V12.2533ZM71.4737 6.25335H70.7156V13.7743H71.4737V8.45103C72.2318 7.35254 72.8207 6.84575 73.7473 6.84575C74.7574 6.84575 75.684 7.60593 75.684 9.46529V13.7743H76.5257V8.62019C77.2838 7.35254 77.8727 6.84575 78.7993 6.84575C80.0614 6.84575 80.736 7.94425 80.736 9.46529V13.7743H81.4941V9.12698C81.4941 7.26761 80.4826 6.08489 78.8835 6.08489C77.8734 6.08489 77.0318 6.67591 76.3579 7.85932C75.8525 6.6766 75.0958 6.08489 73.9158 6.08489C72.9057 6.08489 72.2325 6.50743 71.5586 7.60593H71.4751V6.25335H71.4737ZM84.6915 6.25335H83.9334V17.5766H84.6915V13.3511C85.5346 13.7737 86.1235 13.8579 86.8802 13.8579C88.9854 13.8579 90.5858 12.1684 90.5858 9.9707C90.5858 7.68947 89.0703 6.0842 86.9652 6.0842C86.1235 6.0842 85.5346 6.25266 84.6915 6.67521V6.25335ZM84.6915 7.43677C85.4496 7.01422 85.955 6.84575 86.6282 6.84575C88.4814 6.84575 89.7435 8.19764 89.7435 10.0563C89.7435 11.8307 88.5649 13.0984 86.7131 13.0984C86.0386 13.0984 85.4496 12.9292 84.6915 12.5074V7.43677ZM96.8164 6.76083C96.0583 6.33828 95.4693 6.08489 94.7948 6.08489C93.4477 6.08489 92.3541 7.01422 92.3541 8.11271C92.3541 10.5638 96.2268 10.0563 96.2268 11.8307C96.2268 12.5916 95.5522 13.0977 94.6263 13.0977C93.9531 13.0977 93.2792 12.9286 92.3541 12.4218V13.1819C93.1122 13.6887 93.7847 13.8579 94.5428 13.8579C95.9747 13.8579 96.9849 13.0128 96.9849 11.8301C96.9849 9.21052 93.1122 9.88646 93.1122 8.11202C93.1122 7.35116 93.8703 6.84506 94.7112 6.84506C95.3858 6.84506 95.9747 7.01353 96.8164 7.60524V6.76083ZM99.679 2.36685H98.9209V13.7743H99.679V8.45103C100.352 7.43746 101.026 6.84575 102.12 6.84575C103.552 6.84575 104.141 7.85932 104.141 9.46529V13.7743H104.899V9.12698C104.899 7.18338 103.721 6.08489 102.205 6.08489C101.11 6.08489 100.437 6.50744 99.6796 7.5217V2.36685H99.679ZM107.509 13.7743H108.267V6.25335H107.509V13.7743ZM107.509 3.71874H108.267V2.36685H107.509V3.71874ZM115.929 7.01422C115.254 6.33828 114.75 6.08489 114.245 6.08489C113.403 6.08489 112.561 6.84575 111.635 8.19695V6.25335H110.792V13.7743H111.635V9.04205C112.393 7.60524 113.234 6.84506 113.993 6.84506C114.413 6.84506 114.751 7.09845 115.508 7.68947L115.929 7.01422ZM123 9.718C123 7.18338 121.317 6.08489 119.716 6.08489C117.696 6.08489 116.264 7.69016 116.264 9.88715C116.264 12.2533 117.865 13.8586 120.053 13.8586C121.063 13.8586 121.99 13.6052 122.916 12.845V11.9999C121.906 12.7601 121.148 13.0984 120.137 13.0984C118.453 13.0984 116.938 11.6623 117.106 9.71869H123V9.718ZM117.276 9.04205C117.528 7.69016 118.454 6.84506 119.716 6.84506C120.98 6.84506 121.821 7.60524 122.073 9.04205H117.276Z" fill="white"/>
<path fill-rule="evenodd" clip-rule="evenodd" d="M9.67353 27.2939C9.25236 27.2103 9.16881 27.0405 8.83119 26.7871C8.57917 26.5337 8.41071 26.4502 8.24155 26.1112C8.07308 25.8578 8.07308 25.6044 7.98954 25.2661C7.90461 24.8435 7.90461 24.6744 7.98954 24.2518C8.07377 23.8293 8.15801 23.5759 8.32578 23.1533C8.91542 21.7165 9.67284 21.0406 10.7672 20.027C11.778 19.0977 12.4505 18.5902 13.5455 17.7458C14.6399 16.9849 15.3138 16.563 16.4923 15.8871C17.7558 15.1262 18.5975 14.5352 20.1973 14.4503C20.6177 14.4503 20.8711 14.3654 21.2916 14.4503C21.7128 14.5352 21.9655 14.6194 22.3017 14.7886C22.6387 14.9578 22.8071 15.042 22.9756 15.2954C23.2283 15.5488 23.3125 15.7179 23.3968 16.0563C23.5652 16.3946 23.6495 16.648 23.6495 17.0705C23.6495 16.648 23.7337 16.3946 23.9022 15.972C24.0706 15.7186 24.0706 15.5495 24.3233 15.2961C24.576 15.0427 24.7438 14.8735 25.0808 14.7893C25.3749 14.6397 25.686 14.5261 26.0073 14.451C26.3956 14.366 26.7976 14.366 27.1859 14.451C28.7014 14.5359 29.5431 15.1269 30.8908 15.8029C32.0694 16.4788 32.7426 16.9014 33.8376 17.7465C35.0162 18.5066 35.6059 19.0134 36.616 19.9434C37.7103 20.9577 38.4684 21.6336 39.0581 23.0698C39.2265 23.4923 39.3101 23.6608 39.3943 24.1683C39.4785 24.5908 39.4785 24.76 39.3943 25.1825C39.3101 25.5208 39.3101 25.6893 39.1416 26.0276C38.9897 26.2648 38.7886 26.4666 38.552 26.6193C38.215 26.9576 38.0473 27.0412 37.6261 27.211C38.0473 27.0412 38.3 27.0412 38.7204 27.1261C39.0574 27.1261 39.3101 27.1261 39.5628 27.2946C39.8997 27.3795 40.0682 27.548 40.3209 27.8014C40.5736 28.0548 40.7414 28.3082 40.9105 28.6472C41.079 28.9841 41.1632 29.3231 41.2475 29.745C41.6686 31.266 41.4159 32.1967 41.079 33.7178C40.8263 35.069 40.6578 35.8298 40.2373 37.0975C39.7319 38.4501 39.4792 39.2109 38.9738 40.393C38.3 41.7442 37.9637 42.7584 36.7851 43.7727C36.4482 44.0261 36.1955 44.1945 35.8586 44.3644C35.4381 44.5329 35.2689 44.6178 34.8484 44.7013C34.5122 44.7863 34.3437 44.7863 34.0068 44.7013C33.6699 44.7013 33.5014 44.5329 33.1645 44.3644C32.8275 44.1945 32.6597 44.0261 32.407 43.6885C32.6597 44.0254 32.7433 44.2788 32.8275 44.7013C32.9118 45.0396 32.996 45.2081 32.9117 45.5471C32.9117 45.8854 32.8275 46.0539 32.659 46.3929C32.4906 46.7299 32.3221 46.8997 32.0694 47.2373C31.7325 47.5756 31.4798 47.6592 31.1435 47.9133C29.7965 48.7591 28.7864 48.7591 27.3551 48.9275C25.9238 49.0974 25.1657 49.1809 23.7344 49.1809C22.3866 49.1809 21.6292 49.1809 20.2822 49.0125C18.7667 48.844 17.7565 48.7591 16.493 47.9133C16.0725 47.6599 15.8198 47.5763 15.5671 47.2373C15.2302 46.9839 15.146 46.7305 14.9775 46.3929C14.809 46.0546 14.6406 45.8861 14.6406 45.5471C14.6406 45.2081 14.6406 45.0403 14.7248 44.7013C14.809 44.3644 14.809 44.111 15.146 43.772C14.8933 44.1939 14.6413 44.2788 14.3043 44.4486C14.0516 44.6171 13.8832 44.7856 13.5462 44.8705C13.2093 44.8705 13.0415 44.8705 12.7039 44.7856C12.2834 44.7856 12.0307 44.7006 11.6938 44.5322C11.2726 44.2788 11.1041 44.1103 10.7672 43.8562C9.5886 42.842 9.25167 41.9133 8.57848 40.5607C7.98885 39.2931 7.73614 38.5322 7.31498 37.181C6.8945 35.9134 6.64179 35.1525 6.38909 33.8006C6.05216 32.3645 5.79945 31.3502 6.22062 29.8292C6.30486 29.4073 6.38909 29.1533 6.55756 28.7314C6.72603 28.3931 6.8945 28.2246 7.1472 27.8856C7.3999 27.7171 7.56837 27.5473 7.90461 27.3788C8.15731 27.2103 8.41002 27.2104 8.74695 27.2104C9.08389 27.2104 9.33659 27.1247 9.67353 27.2939Z" fill="white" stroke="white" stroke-width="11.4782" stroke-miterlimit="2.613"/>
<path fill-rule="evenodd" clip-rule="evenodd" d="M23.8186 10.9014C28.8699 10.9014 33.5849 12.5916 37.5419 15.9713L40.3202 1.94498L37.7946 2.2826C37.7946 2.2826 38.1308 3.29686 38.2151 3.97281V5.32469L37.1207 3.3811L35.6894 7.85931L37.7946 6.92997C37.4576 8.1127 36.3626 8.87288 35.0162 8.87288C32.9953 8.87288 32.3221 7.18337 32.4906 5.99995C32.4906 5.49247 32.8268 5.15485 32.9953 5.06992C33.1391 4.96522 33.3053 4.89543 33.4808 4.86607C33.6562 4.83671 33.8361 4.84858 34.0061 4.90076C34.3424 5.06992 34.68 5.23908 34.68 5.66163C34.7642 6.33758 34.2588 6.76012 34.2588 6.76012C34.2588 6.76012 35.2689 6.33758 35.6901 5.66163C36.027 5.06992 36.1948 4.30974 35.6901 3.6338C35.6059 3.38041 35.3532 2.95786 34.68 2.95786C34.0061 2.87362 33.1638 3.38041 33.1638 3.38041C33.248 3.12701 33.3322 2.87362 33.3322 2.45107C33.4172 1.69021 33.1638 1.18342 32.996 0.760869C32.9118 0.59171 32.6591 0 32.6591 0C32.6591 0 32.3221 0.506785 32.1537 0.675943C31.9016 1.01426 31.4805 1.43681 31.3962 2.19699C31.312 2.61954 31.312 2.87293 31.3962 3.12632C31.3962 3.12632 30.7224 2.45038 30.0485 2.28122C29.3746 2.11206 29.0384 2.36615 28.7857 2.53462C28.196 3.0414 28.0283 3.8865 28.196 4.56314C28.4487 5.324 29.2062 5.99995 29.2062 5.99995C29.2062 5.99995 28.8692 5.49247 29.1219 4.81722C29.3746 4.39467 29.6266 4.31044 29.9636 4.31044C30.3005 4.31044 30.6374 4.47959 30.9744 4.81722C31.0586 4.90146 31.2271 5.324 31.1429 5.74655C30.9744 6.76081 30.217 7.77439 28.9535 7.85931C28.785 7.85931 28.6172 7.94424 28.4487 7.94424C28.2803 7.94424 28.0283 7.85931 27.8591 7.85931C26.2594 7.77439 24.7438 6.84574 24.7438 5.40893L27.5222 7.18336V1.4375L24.8281 3.12771L27.1852 0.423243H20.45L22.7229 3.12771L20.1123 1.4375V7.18336L22.8071 5.40893C22.8071 6.84574 21.2916 7.77508 19.6919 7.85931C19.5227 7.85931 19.3549 7.94424 19.1865 7.94424C18.9338 7.94424 18.7653 7.85931 18.5968 7.85931C17.4182 7.77439 16.5759 6.76081 16.4081 5.74655C16.3239 5.324 16.4924 4.90146 16.6608 4.81722C16.9135 4.47959 17.2505 4.31044 17.5874 4.31044C17.9236 4.31044 18.2613 4.39536 18.429 4.81722C18.766 5.49316 18.429 5.99995 18.3448 5.99995C18.3448 5.99995 19.1871 5.324 19.3549 4.56314C19.5234 3.88719 19.4392 3.04209 18.7653 2.53462C18.5968 2.36546 18.1757 2.11206 17.5867 2.28122C16.9128 2.45038 16.2396 3.12632 16.2396 3.12632C16.3239 2.87293 16.3239 2.61954 16.2396 2.19699C16.1554 1.43612 15.7342 1.01426 15.3973 0.675943C15.3131 0.506785 14.8926 0 14.8926 0C14.8926 0 14.6399 0.59171 14.6399 0.760869C14.4714 1.18342 14.1352 1.69021 14.2187 2.45107C14.303 2.87362 14.3872 3.12701 14.4714 3.38041C14.4714 3.38041 13.6298 2.87362 12.9559 2.95786C12.282 2.95786 12.03 3.38041 11.8616 3.6338C11.4404 4.30974 11.6089 5.06992 11.9458 5.66163C12.367 6.33758 13.2928 6.76012 13.2928 6.76012C13.2928 6.76012 12.7881 6.33758 12.8724 5.66163C12.9566 5.23908 13.2093 5.06992 13.5462 4.90076C13.8832 4.81653 14.2201 4.81653 14.5564 5.06992C14.8091 5.15485 15.0618 5.49247 15.146 5.99995C15.3145 7.18268 14.5564 8.87288 12.5361 8.87288C11.1891 8.87288 10.1783 8.11201 9.75777 6.92997L11.9465 7.85931L10.5159 3.3811L9.42084 5.32469C9.42084 5.32469 9.33661 4.98638 9.42084 3.97281C9.42084 3.29686 9.75777 2.2826 9.75777 2.2826L7.23145 1.94498L10.0098 15.9713C14.0523 12.5916 18.7667 10.9014 23.8186 10.9014Z" fill="white"/>
<path fill-rule="evenodd" clip-rule="evenodd" d="M32.4905 43.8562C32.659 44.1932 32.5748 45.1239 32.4063 45.3773C32.2378 45.7991 31.9016 46.0532 31.4804 46.2217C31.0593 46.3915 30.7223 46.4751 30.2176 46.4751C29.628 46.56 29.3753 46.4751 28.8706 46.3915C28.3651 46.3066 28.0289 46.2217 27.5235 46.1381C26.8496 46.0532 26.5134 45.9683 25.9237 45.9683C25.5026 45.8847 25.3341 45.8847 24.9136 45.7998H22.7249C22.388 45.8847 22.1353 45.8847 21.7148 45.9683C21.1252 45.9683 20.7889 46.0532 20.1993 46.1381C19.6096 46.2217 19.3569 46.3066 18.768 46.3915C18.2633 46.4751 18.0099 46.56 17.5052 46.4751C17.0438 46.4813 16.5858 46.3951 16.1581 46.2217C15.737 46.0532 15.4843 45.7998 15.2322 45.3773C15.0638 45.1239 14.9795 44.1932 15.2322 43.8562H15.0638C14.8111 44.1932 13.9694 44.363 13.6325 44.2781C13.2113 44.1932 12.7901 44.0247 12.5381 43.6878C12.2012 43.3494 12.0334 42.9269 11.8643 42.5036C11.6958 41.9969 11.6958 41.7428 11.5273 41.236C11.4431 40.6457 11.4431 40.3916 11.3589 39.7999C11.2746 39.2095 11.1904 38.8705 11.1062 38.2788C11.0219 37.857 10.9377 37.6029 10.8535 37.2646C10.7692 36.9276 10.685 36.5037 10.6008 36.1668C10.4323 35.9134 10.3481 35.4901 10.1796 35.1525C10.0111 34.8142 9.92688 34.6457 9.7591 34.2218L9.08523 32.8706C8.83253 32.3638 8.66406 32.1097 8.41136 31.6029C8.24289 31.0962 8.07442 30.927 7.90596 30.4202C7.82172 29.9134 7.73749 29.4909 7.73749 29.0676C7.82172 28.5608 7.99019 28.2232 8.32713 27.8849C8.49559 27.6315 9.42148 27.2932 9.75841 27.3781C9.42148 27.2096 8.83184 26.3639 8.83184 26.0262C8.74761 25.6044 8.83184 25.1811 9.08454 24.7593C9.33655 24.3367 9.58926 24.0833 10.0104 23.745C10.4309 23.4067 10.6843 23.4067 11.1048 23.0691C11.6095 22.8157 11.8622 22.7307 12.3676 22.478C12.9572 22.2247 13.2092 22.0555 13.7989 21.7172C14.1358 21.548 14.3043 21.4638 14.6412 21.2104C14.8939 21.0412 15.3144 20.7878 15.5671 20.6194C15.8198 20.4502 16.1567 20.1126 16.4088 19.9434C16.6615 19.69 16.8299 19.5216 17.1669 19.2675L18.2612 18.169C18.6817 17.7464 18.8509 17.493 19.2713 17.1554C19.6925 16.8171 19.7767 16.5637 20.2814 16.3103C20.7026 16.0569 21.0396 15.8035 21.4607 15.7186C21.9654 15.6344 22.3866 15.7186 22.7235 15.8878C23.0598 15.972 23.6494 16.7329 23.6494 17.1554C23.7337 16.7329 24.3233 15.972 24.6595 15.8035C25.08 15.6344 25.5012 15.5501 25.9224 15.6344C26.3428 15.8035 26.6798 15.972 27.1009 16.2254C27.6063 16.4788 27.6906 16.7322 28.1111 17.0705C28.5322 17.493 28.7007 17.7464 29.1212 18.0841L30.2155 19.1826C30.5525 19.436 30.7202 19.6051 30.9736 19.8585C31.2263 20.1119 31.5626 20.3653 31.8153 20.5345C32.068 20.7872 32.4892 20.9563 32.7412 21.1255C33.0781 21.3796 33.2466 21.4638 33.5835 21.6323C34.1731 21.9706 34.4259 22.1397 35.0148 22.3931C35.5195 22.6465 35.7729 22.7307 36.2776 23.0691C36.6988 23.3225 36.9515 23.4067 37.372 23.745C37.7931 23.9991 38.0458 24.3367 38.2985 24.6743C38.5512 25.0969 38.6355 25.5194 38.5512 25.942C38.5512 26.2796 38.1301 27.0398 37.7096 27.2097C38.1301 27.1247 38.9724 27.463 39.2251 27.7164C39.4778 28.0534 39.6463 28.3924 39.7298 28.8992C39.7298 29.321 39.7298 29.7436 39.5614 30.2517C39.3929 30.7571 39.2244 30.9277 39.0567 31.4345C38.8039 31.9412 38.6355 32.1953 38.3828 32.7021L37.7096 34.0533C37.5411 34.4752 37.4569 34.645 37.2884 35.0676C37.2042 35.321 37.0357 35.7435 36.9515 36.0818C36.783 36.3352 36.6988 36.7578 36.6146 37.0961C36.5303 37.518 36.5303 37.6878 36.4461 38.1104C36.2776 38.7021 36.2776 39.0397 36.1091 39.6314C36.0249 40.2217 36.0249 40.4758 35.9407 41.0675C35.8564 41.5743 35.8564 41.8284 35.6037 42.3352C35.4353 42.757 35.2668 43.1796 35.0141 43.5179C34.7211 43.826 34.338 44.0331 33.9198 44.1096C33.5849 44.1932 32.4905 43.8562 32.4905 43.8562ZM23.4816 21.8014V18.76C23.3974 17.9149 23.2289 17.4924 22.7242 16.9856C22.3031 16.6479 21.9661 16.4788 21.2087 16.6479C20.2828 16.9013 18.5988 18.5066 18.3461 18.7607C17.4968 19.49 16.6265 20.1946 15.7363 20.8735C14.6419 21.7186 14.1372 21.972 12.9579 22.6479C12.621 22.902 10.6001 23.9149 10.0953 24.7606C9.67487 25.4366 9.67487 25.8591 9.92688 26.3659C10.1796 26.9576 10.6008 27.2953 11.3589 27.6336C12.2005 27.887 13.3791 28.2253 14.3057 28.5629L14.1372 28.9848C13.1264 28.7328 12.1163 28.3088 11.2746 28.0554C10.4323 27.887 10.0118 27.887 9.42217 28.2253C8.83253 28.5622 8.66475 28.8156 8.58052 29.6614C8.49628 30.5907 9.59064 32.6186 9.67487 33.0411C10.1796 34.3088 10.4323 34.8156 10.8535 36.0832C11.2746 37.4358 11.4431 37.9412 11.78 39.2938C11.8643 39.7156 12.2005 41.9975 12.7901 42.7584C13.2949 43.3501 13.716 43.4344 14.3057 43.3501C14.9795 43.2652 15.3158 43.0118 15.9047 42.3359C16.4937 41.6599 16.9991 40.7299 17.6736 39.969L18.0941 40.2224C17.5045 41.0682 16.8313 41.8284 16.3259 42.5893C15.9897 43.3501 15.8212 43.772 15.9047 44.4486C15.9897 45.0389 16.2417 45.378 16.9991 45.6313C17.8414 46.0532 20.1144 45.6313 20.5355 45.6313C21.9668 45.5464 22.4722 45.4615 23.8193 45.4615C25.2506 45.4615 25.7553 45.5464 27.1866 45.6313C27.5235 45.6313 29.7964 46.0532 30.723 45.6313C31.3969 45.378 31.6496 45.0396 31.7331 44.4486C31.9016 43.772 31.7331 43.3494 31.3126 42.5893C30.8072 41.8284 30.1334 41.0682 29.5437 40.1389L29.8807 39.8855C30.5545 40.6463 31.0593 41.4901 31.564 42.2509C32.1536 42.8426 32.5741 43.0967 33.248 43.1803C33.8376 43.2652 34.1738 43.1803 34.6799 42.5899C35.3531 41.8291 35.6901 39.5479 35.7743 39.1253C36.1105 37.7727 36.1948 37.2659 36.6159 35.9983C37.0371 34.6471 37.2898 34.1403 37.7952 32.8727C37.9637 32.4508 39.058 30.4223 38.8896 29.4929C38.8896 28.6472 38.6369 28.3938 38.1315 28.0554C37.5418 27.7185 37.0371 27.7185 36.1948 27.887C35.3524 28.1404 34.3423 28.5629 33.4164 28.8163L33.1637 28.4794C34.1738 28.1411 35.1846 27.8877 36.0263 27.5487C36.7837 27.2117 37.2056 26.9583 37.4576 26.281C37.7103 25.7749 37.7103 25.3517 37.2891 24.6757C36.8679 23.9149 34.7635 22.8171 34.4265 22.6479C33.2473 21.887 32.7426 21.6336 31.6482 20.7885C30.5539 20.0284 30.132 19.6058 29.0376 18.7607C28.7849 18.5066 27.1852 16.8171 26.1751 16.5637C25.4176 16.3946 25.0807 16.5637 24.6602 16.9863C24.1548 17.4088 23.9864 17.9156 23.9021 18.6765C23.9021 19.6058 23.9864 20.7043 23.9021 21.8028H23.4816V21.8014Z" fill="#397BC8"/>
<path d="M32.4905 43.8562C32.659 44.1932 32.5748 45.1239 32.4063 45.3773C32.2378 45.7991 31.9016 46.0532 31.4804 46.2217C31.0593 46.3915 30.7223 46.4751 30.2176 46.4751C29.628 46.56 29.3753 46.4751 28.8706 46.3915C28.3651 46.3066 28.0289 46.2217 27.5235 46.1381C26.8496 46.0532 26.5134 45.9683 25.9237 45.9683C25.5026 45.8847 25.3341 45.8847 24.9136 45.7998H22.7249C22.388 45.8847 22.1353 45.8847 21.7148 45.9683C21.1252 45.9683 20.7889 46.0532 20.1993 46.1381C19.6096 46.2217 19.3569 46.3066 18.768 46.3915C18.2633 46.4751 18.0099 46.56 17.5052 46.4751C17.0438 46.4813 16.5858 46.3951 16.1581 46.2217C15.737 46.0532 15.4843 45.7998 15.2322 45.3773C15.0638 45.1239 14.9795 44.1932 15.2322 43.8562H15.0638C14.8111 44.1932 13.9687 44.363 13.6325 44.2781C13.2113 44.1932 12.7901 44.0247 12.5381 43.6878C12.2012 43.3494 12.0334 42.9269 11.8643 42.5036C11.6958 41.9969 11.6958 41.7428 11.5273 41.236C11.4431 40.6457 11.4431 40.3916 11.3589 39.7999C11.2746 39.2095 11.1904 38.8705 11.1062 38.2788C11.0219 37.857 10.9377 37.6029 10.8535 37.2646C10.7692 36.9276 10.685 36.5037 10.6008 36.1668C10.4323 35.9134 10.3481 35.4901 10.1796 35.1525C10.0111 34.8142 9.92688 34.6457 9.75841 34.2218C9.50571 33.7164 9.33724 33.3774 9.08523 32.8706C8.83253 32.3638 8.66406 32.1097 8.41136 31.6029C8.24289 31.0962 8.07442 30.927 7.90596 30.4202C7.82172 29.9134 7.73749 29.4909 7.73749 29.0676C7.82172 28.5608 7.99019 28.2232 8.32713 27.8849C8.49559 27.6315 9.42148 27.2932 9.75841 27.3781C9.42148 27.2096 8.83253 26.3639 8.83253 26.0262C8.7483 25.6044 8.83253 25.1811 9.08523 24.7593C9.33724 24.3367 9.58995 24.0833 10.0111 23.745C10.4316 23.4067 10.685 23.4067 11.1055 23.0691C11.6102 22.8157 11.8629 22.7307 12.3683 22.478C12.9579 22.2247 13.2099 22.0555 13.7996 21.7172C14.1365 21.548 14.305 21.4638 14.6419 21.2104C14.8946 21.0412 15.3151 20.7878 15.5678 20.6194C15.8205 20.4502 16.1574 20.1126 16.4094 19.9434C16.6621 19.69 16.8306 19.5216 17.1676 19.2675L18.2619 18.169C18.6824 17.7464 18.8515 17.493 19.272 17.1554C19.6932 16.8171 19.7774 16.5637 20.2821 16.3103C20.7033 16.0569 21.0402 15.8035 21.4614 15.7186C21.9661 15.6344 22.3873 15.7186 22.7242 15.8878C23.0605 15.972 23.6501 16.7329 23.6501 17.1554C23.6501 16.7329 24.324 15.972 24.6602 15.8035C25.0807 15.6344 25.5019 15.5501 25.9231 15.6344C26.3435 15.8035 26.6805 15.972 27.1016 16.2254C27.607 16.4788 27.6913 16.7322 28.1118 17.0705C28.5329 17.493 28.7014 17.7464 29.1219 18.0841L30.2162 19.1826C30.5532 19.436 30.7209 19.6051 30.9743 19.8585C31.227 20.1119 31.5633 20.3653 31.816 20.5345C32.0687 20.7872 32.4899 20.9563 32.7419 21.1255C33.0788 21.3796 33.2473 21.4638 33.5842 21.6329C34.1738 21.9706 34.4265 22.1397 35.0155 22.3931C35.5202 22.6465 35.7736 22.7307 36.2783 23.0691C36.6995 23.3225 36.9522 23.4067 37.3727 23.745C37.7938 23.9991 38.0465 24.3367 38.2992 24.6743C38.5519 25.0969 38.6362 25.5194 38.5519 25.942C38.5519 26.2796 38.1308 27.0398 37.7103 27.2097C38.1308 27.1247 38.9731 27.463 39.2258 27.7164C39.4785 28.0534 39.647 28.3924 39.7305 28.8992C39.7305 29.321 39.7305 29.7436 39.5621 30.2517C39.3936 30.7571 39.2251 30.9277 39.0573 31.4345C38.8046 31.9413 38.6362 32.1953 38.3835 32.7021L37.7096 34.0533C37.5411 34.4752 37.4569 34.645 37.2884 35.0676C37.2042 35.321 37.0357 35.7435 36.9515 36.0818C36.783 36.3352 36.6988 36.7578 36.6146 37.0961C36.5303 37.518 36.5303 37.6878 36.4461 38.1104C36.2776 38.7021 36.2776 39.0397 36.1092 39.6314C36.0249 40.2217 36.0249 40.4758 35.9407 41.0675C35.8565 41.5743 35.8565 41.8284 35.6038 42.3352C35.4353 42.757 35.2668 43.1796 35.0141 43.5179C34.7211 43.826 34.338 44.0331 33.9198 44.1096C33.5849 44.1932 32.4905 43.8562 32.4905 43.8562V43.8562ZM23.4816 21.8014V18.76C23.3974 17.9149 23.2289 17.4924 22.7242 16.9856C22.3031 16.6479 21.9661 16.4788 21.2087 16.6479C20.2828 16.9013 18.5988 18.5066 18.3461 18.7607C17.4968 19.49 16.6265 20.1946 15.7363 20.8735C14.6419 21.7186 14.1372 21.972 12.9579 22.6479C12.621 22.902 10.6001 23.9155 10.0953 24.7606C9.67487 25.4366 9.67487 25.8591 9.92688 26.3659C10.1796 26.9576 10.6008 27.2953 11.3589 27.6336C12.2005 27.887 13.3791 28.2253 14.3057 28.5629L14.1372 28.9848C13.1264 28.7328 12.1163 28.3088 11.2746 28.0554C10.4323 27.887 10.0118 27.887 9.42217 28.2253C8.83253 28.5622 8.66475 28.8156 8.58052 29.6614C8.49628 30.5907 9.59064 32.6186 9.67487 33.0411C10.1796 34.3088 10.4323 34.8156 10.8535 36.0832C11.2746 37.4358 11.4431 37.9412 11.78 39.2938C11.8643 39.7156 12.2005 41.9975 12.7901 42.7584C13.2949 43.3501 13.716 43.4344 14.3057 43.3501C14.9795 43.2652 15.3158 43.0118 15.9047 42.3359C16.4937 41.6599 16.9991 40.7299 17.6736 39.969L18.0941 40.2224C17.5045 41.0682 16.8313 41.8284 16.3259 42.5893C15.9897 43.3501 15.8212 43.772 15.9047 44.4486C15.9897 45.0389 16.2417 45.378 16.9991 45.6313C17.8414 46.0532 20.1144 45.6313 20.5355 45.6313C21.9668 45.5464 22.4722 45.4615 23.8193 45.4615C25.2506 45.4615 25.7553 45.5464 27.1866 45.6313C27.5235 45.6313 29.7964 46.0532 30.723 45.6313C31.3969 45.378 31.6496 45.0396 31.7331 44.4486C31.9016 43.772 31.7331 43.3494 31.3126 42.5893C30.8072 41.8284 30.1334 41.0682 29.5437 40.1389L29.8807 39.8855C30.5545 40.6463 31.0593 41.4901 31.564 42.2509C32.1536 42.8426 32.5741 43.0967 33.248 43.1803C33.8376 43.2652 34.1738 43.1803 34.6799 42.5899C35.3531 41.8291 35.6901 39.5479 35.7743 39.1253C36.1105 37.7727 36.1948 37.2659 36.6159 35.9983C37.0371 34.6471 37.2898 34.1403 37.7952 32.8727C37.9637 32.4508 39.058 30.4223 38.8896 29.4929C38.8896 28.6472 38.6369 28.3938 38.1315 28.0554C37.5418 27.7185 37.0371 27.7185 36.1948 27.887C35.3524 28.1404 34.3423 28.5629 33.4164 28.8163L33.1637 28.4794C34.1738 28.1411 35.1847 27.8877 36.0263 27.5487C36.7837 27.2117 37.2056 26.9583 37.4576 26.281C37.7103 25.7749 37.7103 25.3517 37.2891 24.6757C36.8679 23.9155 34.7635 22.8171 34.4265 22.6479C33.2473 21.887 32.7426 21.6343 31.6482 20.7885C30.5539 20.0284 30.132 19.6058 29.0376 18.7607C28.7849 18.5066 27.1852 16.8171 26.1751 16.5637C25.4176 16.3946 25.0807 16.5637 24.6602 16.9863C24.1548 17.4088 23.9864 17.9156 23.9021 18.6765C23.9021 19.6058 23.9864 20.7043 23.9021 21.8028H23.4816V21.8014V21.8014Z" stroke="#067BC2" stroke-width="8.61192" stroke-miterlimit="2.613"/>
<path fill-rule="evenodd" clip-rule="evenodd" d="M15.4829 34.4758C15.2302 34.6457 15.146 34.5608 14.8933 34.5608C14.6406 34.5608 14.5564 34.5608 14.3886 34.4758C14.2201 34.3923 14.1359 34.3074 13.9674 34.1389C13.7989 33.969 13.7147 33.8855 13.6305 33.6321C13.462 33.4636 13.462 33.2938 13.3778 33.0404C13.1251 32.1111 13.2935 31.5194 13.462 30.6749C13.6305 29.9141 13.7989 29.4073 14.0516 28.6464C14.3043 27.8856 14.3886 27.4637 14.7248 26.7035C15.146 25.8584 15.3145 25.3509 16.0719 24.7599C16.2403 24.5908 16.3246 24.5058 16.5766 24.3374C16.8293 24.2524 16.9135 24.1682 17.1662 24.1682C17.3347 24.1682 17.5032 24.084 17.6716 24.1682C17.9236 24.1682 18.0079 24.2531 18.1763 24.3374C18.3448 24.5065 18.5126 24.5908 18.5968 24.7599C18.4284 24.5908 18.4284 24.4216 18.3441 24.1682C18.3441 23.9997 18.2599 23.9148 18.3441 23.6614C18.3441 23.4923 18.3441 23.408 18.5126 23.1546C18.5968 22.9855 18.6811 22.9013 18.8495 22.7321C19.018 22.4787 19.1865 22.3945 19.3542 22.3095C20.1117 21.8028 20.7013 21.8028 21.6272 21.6336C22.3846 21.5487 22.89 21.5487 23.7323 21.5487C24.4897 21.5487 24.9951 21.5487 25.7526 21.6336C26.6784 21.7185 27.2681 21.8028 28.0262 22.2253C28.2789 22.3945 28.3624 22.4787 28.6158 22.6479C28.7843 22.817 28.7843 22.9862 28.9521 23.1546C29.0363 23.3238 29.1205 23.4923 29.1205 23.6614C29.1205 23.8306 29.1205 23.9997 29.0363 24.1682C28.9521 24.4216 28.9521 24.5065 28.7836 24.7599C28.9521 24.5058 29.0363 24.4216 29.289 24.3374C29.4575 24.1682 29.541 24.1682 29.7095 24.084H30.2991C30.4676 24.1682 30.6361 24.1682 30.8038 24.3374C31.0565 24.4216 31.225 24.5065 31.3935 24.675C32.0667 25.2667 32.3194 25.8584 32.6563 26.6186C32.9449 27.2516 33.198 27.9003 33.4144 28.5615C33.6671 29.4073 33.8356 29.8292 34.004 30.59C34.1718 31.5194 34.3403 32.0261 34.0883 32.9569C34.004 33.2103 34.004 33.3787 33.8356 33.6328C33.7513 33.8013 33.6671 33.8862 33.4986 34.0547C33.3295 34.2231 33.2459 34.3081 33.0775 34.393C32.909 34.4765 32.8248 34.4765 32.5721 34.4765C32.4036 34.4765 32.2351 34.5614 31.9831 34.4765C32.2351 34.4765 32.3194 34.6464 32.5721 34.8148C32.6563 34.8998 32.8248 34.9833 32.909 35.1532C32.9932 35.3216 32.9932 35.4066 33.0775 35.6599V36.2503C32.9932 36.5037 32.909 36.6735 32.8248 36.9269C32.4885 37.7713 32.0674 38.1096 31.3942 38.7013C30.9035 39.1999 30.368 39.6522 29.7944 40.0525C29.1205 40.5593 28.7001 40.8134 28.0262 41.2353C27.2681 41.6585 26.7627 41.9961 25.8368 41.9961C25.5841 42.0811 25.4163 42.0811 25.1629 41.9961C24.9102 41.9961 24.8267 41.9126 24.5733 41.8277C24.4048 41.7427 24.3206 41.6592 24.1521 41.4893C24.0679 41.4058 23.9837 41.236 23.8994 41.0675C23.8152 40.899 23.7309 40.8141 23.7309 40.4758C23.8152 40.8141 23.731 40.899 23.6467 41.1524C23.5625 41.3209 23.4782 41.4058 23.394 41.5743C23.2255 41.7427 23.1413 41.7427 22.9728 41.8277C22.7201 41.9961 22.6359 41.9961 22.3832 42.0811H21.71C20.7841 41.9961 20.2787 41.6592 19.5206 41.2353C18.8475 40.8134 18.4263 40.5593 17.7524 40.1375C17.0785 39.6307 16.7423 39.3766 16.1527 38.7849C15.4788 38.1946 15.0583 37.7706 14.7214 36.9269C14.5529 36.7571 14.5529 36.5886 14.4687 36.3352V35.7435C14.5529 35.4901 14.5529 35.4066 14.6371 35.2367C14.7214 35.0682 14.8056 34.9833 14.9741 34.8148C15.1467 34.6457 15.2309 34.5608 15.4829 34.4758Z" fill="#397BC8"/>
<path d="M15.4829 34.4758C15.2302 34.6457 15.146 34.5608 14.8933 34.5608C14.6406 34.5608 14.5564 34.5608 14.3886 34.4758C14.2201 34.3923 14.1359 34.3074 13.9674 34.1389C13.7989 33.9704 13.7147 33.8855 13.6305 33.6321C13.462 33.4636 13.462 33.2938 13.3778 33.0404C13.1251 32.1111 13.2935 31.5194 13.462 30.6749C13.6305 29.9141 13.7989 29.4073 14.0516 28.6464C14.3043 27.8856 14.3886 27.4637 14.7248 26.7035C15.146 25.8584 15.3145 25.3509 16.0719 24.7599C16.2403 24.5908 16.3246 24.5058 16.5766 24.3374C16.8293 24.2524 16.9135 24.1682 17.1662 24.1682C17.3347 24.1682 17.5032 24.084 17.6716 24.1682C17.9236 24.1682 18.0079 24.2531 18.1763 24.3374C18.3448 24.5065 18.5126 24.5908 18.5968 24.7599C18.4284 24.5908 18.4284 24.4216 18.3441 24.1682V23.6614C18.3441 23.4923 18.3441 23.408 18.5126 23.1546C18.5968 22.9855 18.6811 22.9013 18.8495 22.7321C19.018 22.4787 19.1865 22.3945 19.3542 22.3095C20.1117 21.8028 20.7013 21.8028 21.6272 21.6336C22.3846 21.5487 22.89 21.5487 23.7323 21.5487C24.4897 21.5487 24.9952 21.5487 25.7526 21.6336C26.6785 21.7178 27.2681 21.8021 28.0262 22.2246C28.2789 22.3938 28.3624 22.478 28.6158 22.6472C28.7843 22.8163 28.7843 22.9855 28.9521 23.154C29.0363 23.3231 29.1205 23.4916 29.1205 23.6607C29.1205 23.8299 29.1205 23.9991 29.0363 24.1675C28.9521 24.4209 28.9521 24.5058 28.7843 24.7592C28.9521 24.5052 29.0363 24.4209 29.289 24.3367C29.4575 24.1675 29.541 24.1675 29.7095 24.0833H30.2991C30.4676 24.1675 30.6361 24.1675 30.8045 24.3367C31.0565 24.4209 31.225 24.5058 31.3942 24.6743C32.0674 25.266 32.3201 25.8577 32.657 26.6179C32.9456 27.2509 33.1987 27.8996 33.4151 28.5608C33.6678 29.4066 33.8363 29.8285 34.0047 30.5893C34.1725 31.5187 34.341 32.0255 34.089 32.9562C34.0047 33.2096 34.0047 33.378 33.8363 33.6321C33.752 33.8006 33.6678 33.8855 33.4993 34.054C33.3302 34.2224 33.2466 34.3074 33.0782 34.3923C32.9097 34.4758 32.8255 34.4758 32.5735 34.4758C32.405 34.4758 32.2365 34.5608 31.9838 34.4758C32.2358 34.4758 32.3201 34.6457 32.5735 34.8142C32.6577 34.8991 32.8255 34.9826 32.9097 35.1525C32.9939 35.3209 32.9939 35.4059 33.0782 35.6593V36.2496C32.9939 36.503 32.9097 36.6728 32.8255 36.9262C32.4892 37.7706 32.068 38.1089 31.3949 38.7006C30.9043 39.1993 30.3688 39.6516 29.7951 40.0518C29.1212 40.5586 28.7008 40.8127 28.0269 41.2346C27.2688 41.6578 26.7634 41.9954 25.8375 41.9954C25.5848 42.0804 25.417 42.0804 25.1636 41.9954C24.9109 41.9954 24.8274 41.9119 24.574 41.827C24.4055 41.742 24.3213 41.6585 24.1528 41.4887C24.0686 41.4051 23.9843 41.2353 23.9001 41.0668C23.8159 40.8983 23.7316 40.8134 23.7316 40.4751C23.7316 40.8134 23.7316 40.8983 23.6474 41.1517C23.5632 41.3202 23.4789 41.4051 23.3947 41.5736C23.2262 41.742 23.142 41.742 22.9735 41.827C22.7208 41.9954 22.6366 41.9954 22.3839 42.0804H21.7107C20.7848 41.9954 20.2794 41.6585 19.5213 41.2346C18.8481 40.8127 18.427 40.5586 17.7531 40.1368C17.0792 39.63 16.743 39.3759 16.1533 38.7842C15.4795 38.1939 15.059 37.7699 14.7221 36.9262C14.5536 36.7564 14.5536 36.5879 14.4694 36.3345V35.7428C14.5536 35.4894 14.5536 35.4059 14.6378 35.236C14.7221 35.0675 14.8063 34.9826 14.9748 34.8142C15.1467 34.6457 15.2309 34.5608 15.4829 34.4758Z" stroke="#067BC2" stroke-width="11.4782" stroke-miterlimit="2.613"/>
<path fill-rule="evenodd" clip-rule="evenodd" d="M23.6501 31.7721C23.6501 31.6886 23.7344 31.6036 23.8186 31.6036C23.9028 31.6036 23.9028 31.6886 23.9028 31.7721C23.9028 31.857 23.9028 31.942 23.8186 31.942C23.7344 31.942 23.6501 31.857 23.6501 31.7721Z" fill="#397BC8"/>
<path d="M23.6501 31.7721L23.8186 31.6036L23.9028 31.7721L23.8186 31.942L23.6501 31.7721Z" stroke="#397BC8" stroke-width="8.61192" stroke-miterlimit="2.613"/>
<path fill-rule="evenodd" clip-rule="evenodd" d="M32.0694 34.4758C32.3221 34.5608 32.5742 35.0676 32.5742 35.2367C32.6584 35.4901 32.5742 35.7435 32.4057 35.9976C32.3215 36.251 32.153 36.3359 31.901 36.5893C31.6483 36.7578 31.4798 36.8427 31.2271 36.9276C30.9744 37.0961 30.8059 37.181 30.469 37.3495C30.2163 37.5179 29.9636 37.6029 29.7109 37.7713C29.4589 37.8563 29.374 37.9398 29.2062 38.1096C29.0377 38.1946 28.785 38.2781 28.6165 38.448C28.4481 38.5315 28.2796 38.7014 28.1111 38.8698C27.9427 38.9534 27.8584 39.0383 27.69 39.2081C27.438 39.4602 27.2695 39.63 27.0168 39.8841L26.4271 40.4744C26.1744 40.6443 26.0902 40.8127 25.8375 40.9812C25.6313 41.1274 25.4041 41.2415 25.1636 41.3195C24.8274 41.4044 24.574 41.3195 24.4062 41.2346C24.2378 41.151 23.8166 40.7278 23.8166 40.4737V40.5586C23.7324 40.812 23.3954 41.2346 23.2269 41.3195C22.9763 41.4058 22.7243 41.4058 22.4709 41.4058C22.2189 41.3209 22.0504 41.1524 21.7977 41.0675C21.4608 40.899 21.3766 40.7292 21.2081 40.5607L20.6185 39.969L19.9446 39.2931C19.7761 39.1246 19.6926 39.0397 19.4399 38.8712C19.3556 38.7863 19.1029 38.6178 19.0187 38.4493C18.8502 38.3644 18.5975 38.196 18.4291 38.111C18.2606 38.0261 18.0921 37.9412 17.9237 37.8576C17.5874 37.6042 17.4189 37.5193 17.0813 37.3509C16.8293 37.2659 16.6608 37.1824 16.3239 37.0125C16.0712 36.8441 15.9027 36.8441 15.7343 36.5907C15.4976 36.4379 15.2965 36.2361 15.1446 35.999C15.0392 35.7889 14.9817 35.558 14.9762 35.323C15.0604 35.0696 15.3124 34.6471 15.5658 34.5622C15.3131 34.5622 14.7235 34.3937 14.6399 34.2238C14.4714 34.0554 14.303 33.802 14.303 33.5479C14.303 33.2938 14.303 33.0411 14.3872 32.7035C14.4651 32.4625 14.5785 32.2345 14.7235 32.0268C14.8077 31.7735 14.9762 31.605 15.0604 31.266L15.4809 30.4216L15.7336 29.9148C15.8178 29.7449 15.902 29.4929 15.9863 29.3231C15.9863 29.0697 16.0705 28.9012 16.1547 28.6471C16.1547 28.4787 16.239 28.3088 16.239 28.0554C16.3232 27.7185 16.4074 27.5486 16.4074 27.211C16.4917 26.8727 16.4917 26.7042 16.5759 26.3652C16.5759 26.0269 16.5759 25.8584 16.7444 25.605C16.8286 25.351 16.9129 25.0983 17.0806 24.9291C17.2498 24.6757 17.5018 24.5915 17.7545 24.5065C17.923 24.5065 18.5119 24.5915 18.5962 24.7606C18.5119 24.5915 18.5119 23.9998 18.6804 23.8306C18.7165 23.7111 18.7815 23.6023 18.8696 23.5139C18.9578 23.4255 19.0664 23.3602 19.1858 23.3238C19.4385 23.2396 19.6912 23.1547 19.9432 23.1547C20.2801 23.1547 20.4486 23.2396 20.7855 23.2396C21.0382 23.2396 21.206 23.3238 21.543 23.4081C21.9641 23.4081 22.1326 23.493 22.4688 23.493C22.7215 23.493 22.89 23.5779 23.0585 23.5779H24.322C24.5747 23.5779 24.7425 23.493 24.9959 23.493C25.3328 23.493 25.5006 23.4081 25.9217 23.4081C26.1738 23.3238 26.3422 23.2396 26.6792 23.2396C27.0161 23.2396 27.1846 23.1547 27.4373 23.1547C27.7735 23.1547 28.0269 23.2396 28.2789 23.3238C28.5309 23.4081 28.6994 23.5772 28.7836 23.8306C28.8679 23.9998 28.9521 24.5065 28.8679 24.7606C28.9521 24.5065 29.541 24.4223 29.7095 24.4223C29.9622 24.5072 30.2149 24.5915 30.3834 24.8449C30.5519 25.014 30.6361 25.2674 30.7203 25.5208C30.8888 25.7742 30.8888 25.9434 30.8888 26.281C30.973 26.6193 30.973 26.7878 31.0573 27.1268C31.1415 27.4651 31.1415 27.6336 31.2257 28.0561C31.2257 28.226 31.31 28.3944 31.31 28.6478C31.3942 28.8163 31.4784 29.0697 31.4784 29.2395C31.5627 29.408 31.6469 29.6614 31.7311 29.8299C31.8154 30.0833 31.8996 30.1682 31.9838 30.4216C32.1516 30.675 32.2358 30.9284 32.4043 31.1824C32.5728 31.5194 32.657 31.6892 32.7406 31.9433C32.909 32.2802 32.9933 32.3652 33.0775 32.7042C33.1617 32.9576 33.1617 33.211 33.1617 33.465C33.1617 33.7191 32.9933 33.9704 32.8248 34.141C32.7426 34.3074 32.0694 34.4758 32.0694 34.4758ZM21.1239 28.4773C20.7034 27.9705 19.4406 26.1104 19.1029 25.6879C18.7667 25.2653 18.5982 25.0969 18.1771 25.0969C17.8401 25.012 17.5874 25.0969 17.2512 25.4345C16.9142 25.8571 16.7458 27.2096 16.6615 27.463C16.4931 28.2239 16.4088 28.5608 16.1568 29.321C15.9041 30.1668 15.7356 30.4202 15.4829 31.1804C15.3987 31.4338 14.7248 32.6165 14.8091 33.2089C14.8091 33.6307 14.9775 33.7992 15.2302 33.9684C15.6514 34.2218 15.9034 34.2218 16.4088 34.0533C16.9135 33.9684 19.1029 33.2089 19.6926 33.039L19.7768 33.2924C19.1872 33.4623 16.9985 34.1382 16.4931 34.3916C16.0726 34.5601 15.8199 34.7285 15.6514 35.0676C15.4829 35.4059 15.4829 35.6593 15.7356 35.9969C16.0726 36.5037 17.2512 37.0961 17.4196 37.2645C18.1777 37.6878 18.4298 37.8563 19.1029 38.3637C19.7768 38.7856 19.9453 39.0397 20.6185 39.5465C20.7869 39.7149 21.7128 40.6456 22.3024 40.8141C22.7236 40.899 22.9763 40.8141 23.2283 40.5607C23.4803 40.3073 23.5653 40.0539 23.6495 39.5465V35.9969H23.9022C23.9864 36.6735 23.9022 38.9541 23.9864 39.5465C23.9864 39.9683 24.0707 40.3073 24.4076 40.5607C24.6603 40.8141 24.8288 40.899 25.3335 40.7292C25.8382 40.6456 26.849 39.6314 27.0175 39.5465C27.6071 38.9547 27.8591 38.7856 28.533 38.2788C29.2069 37.772 29.4596 37.6029 30.1321 37.181C30.3848 37.0961 31.5634 36.5044 31.901 35.9969C32.0694 35.575 32.0694 35.3209 31.9852 35.0676C31.8167 34.6457 31.564 34.4759 31.1429 34.3067C30.6382 34.1382 28.2803 33.3774 27.7749 33.2089L27.8591 32.9555C28.4488 33.124 30.5532 33.8848 31.1429 34.0533C31.5634 34.1382 31.8167 34.1382 32.2372 33.9684C32.4899 33.7999 32.6584 33.5465 32.6584 33.124C32.7426 32.5323 32.153 31.3495 32.0688 31.0954C31.7318 30.3346 31.5634 30.0812 31.3113 29.2375C31.0586 28.4766 31.0586 28.2232 30.8059 27.3781C30.8059 27.1247 30.5532 25.7728 30.2163 25.3496C29.8794 25.012 29.6267 24.927 29.2904 25.012C28.9535 25.012 28.7008 25.1811 28.3638 25.6037C28.0276 26.0255 26.7641 27.8849 26.4271 28.3924L26.1744 28.2239C26.5114 27.7171 27.8584 25.942 28.1111 25.4345C28.3638 25.0119 28.4481 24.7586 28.3638 24.4202C28.3638 23.9984 28.1954 23.8292 27.7742 23.6594C27.2695 23.406 25.9217 23.6594 25.669 23.6594C24.8274 23.7443 24.5747 23.7443 23.733 23.7443C22.8907 23.7443 22.5538 23.7443 21.7964 23.6594C21.5436 23.6594 20.1966 23.406 19.6919 23.6594C19.2707 23.8285 19.1022 23.9977 19.018 24.4202C18.9338 24.7586 19.1022 25.0119 19.2707 25.4345C19.6076 25.9413 20.9547 27.8 21.2916 28.3074L21.1239 28.4773Z" fill="white"/>
<path d="M32.0694 34.4758C32.3221 34.5608 32.5742 35.0676 32.5742 35.2367C32.6584 35.4901 32.5742 35.7435 32.4057 35.9976C32.3215 36.251 32.153 36.3359 31.901 36.5893C31.6483 36.7578 31.4798 36.8427 31.2271 36.9276C30.9744 37.0961 30.8059 37.181 30.469 37.3495C30.2163 37.5179 29.9636 37.6029 29.7109 37.7713C29.4589 37.8563 29.374 37.9398 29.2062 38.1096C29.0377 38.1946 28.785 38.2781 28.6165 38.448C28.4481 38.5315 28.2796 38.7014 28.1111 38.8698C27.9427 38.9534 27.8584 39.0383 27.69 39.2081C27.438 39.4602 27.2695 39.63 27.0168 39.8841L26.4272 40.4744C26.1744 40.6443 26.0902 40.8127 25.8375 40.9812C25.6313 41.1274 25.4041 41.2415 25.1636 41.3195C24.8274 41.4044 24.574 41.3195 24.4062 41.2346C24.2378 41.151 23.8166 40.7278 23.8166 40.4737V40.5586C23.8166 40.812 23.3954 41.2346 23.2269 41.3195C22.9763 41.4058 22.7243 41.4058 22.4709 41.4058C22.2189 41.3209 22.0504 41.1524 21.7977 41.0675C21.4608 40.899 21.3766 40.7292 21.2081 40.5607L20.6185 39.969L19.9446 39.2931C19.7761 39.1246 19.6926 39.0397 19.4399 38.8712C19.3556 38.7863 19.1029 38.6178 19.0187 38.4493C18.8502 38.3644 18.5975 38.196 18.4291 38.111C18.2606 38.0261 18.0921 37.9412 17.9237 37.8576C17.5874 37.6042 17.4189 37.5193 17.0813 37.3509C16.8293 37.2659 16.6608 37.1824 16.3239 37.0125C16.0712 36.8441 15.9027 36.8441 15.7343 36.5907C15.4976 36.4379 15.2965 36.2361 15.1446 35.999C15.0392 35.7889 14.9817 35.558 14.9762 35.323C15.0604 35.0696 15.3124 34.6471 15.5658 34.5622C15.3131 34.5622 14.7235 34.3937 14.6399 34.2238C14.4714 34.0554 14.303 33.802 14.303 33.5479C14.303 33.2938 14.303 33.0411 14.3872 32.7035C14.4651 32.4625 14.5785 32.2345 14.7235 32.0268C14.8077 31.7735 14.9762 31.605 15.0604 31.266L15.4809 30.4216L15.7336 29.9148C15.8178 29.7449 15.902 29.4929 15.9863 29.3231C15.9863 29.0697 16.0705 28.9012 16.1547 28.6471C16.1547 28.4787 16.239 28.3088 16.239 28.0554C16.3232 27.7185 16.4074 27.5486 16.4074 27.211C16.4917 26.8727 16.4917 26.7042 16.5759 26.3652C16.5759 26.0269 16.5759 25.8584 16.7444 25.605C16.8286 25.351 16.9129 25.0983 17.0806 24.9291C17.2498 24.6757 17.5018 24.5915 17.7545 24.5065C17.923 24.5065 18.5119 24.5915 18.5962 24.7606C18.5119 24.5915 18.5119 23.9998 18.6804 23.8306C18.7165 23.7111 18.7815 23.6023 18.8696 23.5139C18.9578 23.4255 19.0664 23.3602 19.1858 23.3238C19.4385 23.2396 19.6912 23.1547 19.9432 23.1547C20.2801 23.1547 20.4486 23.2396 20.7855 23.2396C21.0382 23.2396 21.206 23.3238 21.543 23.4081C21.9641 23.4081 22.1326 23.493 22.4688 23.493C22.7215 23.493 22.89 23.5779 23.0585 23.5779H24.322C24.5747 23.5779 24.7425 23.493 24.9959 23.493C25.3328 23.493 25.5006 23.4081 25.9217 23.4081C26.1738 23.3238 26.3422 23.2396 26.6792 23.2396C27.0161 23.2396 27.1846 23.1547 27.4373 23.1547C27.7735 23.1547 28.0269 23.2396 28.2789 23.3238C28.5309 23.4081 28.6994 23.5772 28.7836 23.8306C28.8679 23.9998 28.9521 24.5065 28.8679 24.7606C28.9521 24.5065 29.541 24.4223 29.7095 24.4223C29.9622 24.5072 30.2149 24.5915 30.3834 24.8449C30.5519 25.014 30.6361 25.2674 30.7203 25.5208C30.8888 25.7742 30.8888 25.9434 30.8888 26.281C30.973 26.6193 30.973 26.7878 31.0573 27.1268C31.1415 27.4651 31.1415 27.6336 31.2257 28.0561C31.2257 28.226 31.31 28.3944 31.31 28.6478C31.3942 28.8163 31.4784 29.0697 31.4784 29.2395C31.5627 29.408 31.6469 29.6614 31.7311 29.8299C31.8154 30.0833 31.8996 30.1682 31.9838 30.4216C32.1523 30.675 32.2365 30.9284 32.405 31.1824C32.5735 31.5194 32.6577 31.6892 32.7412 31.9433C32.9097 32.2802 32.9939 32.3652 33.0782 32.7042C33.1624 32.9576 33.1624 33.211 33.1624 33.465C33.1624 33.7191 32.9939 33.9718 32.8255 34.141C32.7426 34.3074 32.0694 34.4758 32.0694 34.4758V34.4758ZM21.1239 28.4773C20.7034 27.9705 19.4406 26.1104 19.1029 25.6879C18.7667 25.2653 18.5982 25.0969 18.1771 25.0969C17.8401 25.012 17.5874 25.0969 17.2512 25.4345C16.9142 25.8571 16.7458 27.2096 16.6615 27.463C16.4931 28.2239 16.4088 28.5608 16.1568 29.321C15.9041 30.1668 15.7356 30.4202 15.4829 31.1804C15.3987 31.4338 14.7248 32.6165 14.8091 33.2089C14.8091 33.6307 14.9775 33.7992 15.2302 33.9698C15.6514 34.2218 15.9034 34.2218 16.4088 34.0533C16.9135 33.9698 19.1029 33.2089 19.6926 33.039L19.7768 33.2924C19.1872 33.4623 16.9985 34.1382 16.4931 34.3916C16.0726 34.5601 15.8199 34.7286 15.6514 35.0676C15.4829 35.4059 15.4829 35.6593 15.7356 35.9969C16.0726 36.5037 17.2512 37.0961 17.4196 37.2645C18.1777 37.6878 18.4298 37.8563 19.1029 38.3637C19.7768 38.7856 19.9453 39.0397 20.6185 39.5465C20.7869 39.7149 21.7128 40.6456 22.3024 40.8141C22.7236 40.899 22.9763 40.8141 23.2283 40.5607C23.4803 40.3073 23.5653 40.0539 23.6495 39.5465V35.9969H23.9022C23.9022 36.6735 23.9022 38.9541 23.9864 39.5465C23.9864 39.9683 24.0707 40.3073 24.4076 40.5607C24.6603 40.8141 24.8288 40.899 25.3335 40.7292C25.8382 40.6456 26.849 39.6314 27.0175 39.5465C27.6071 38.9547 27.8591 38.7856 28.533 38.2788C29.2069 37.772 29.4596 37.6029 30.1321 37.181C30.3848 37.0961 31.5634 36.5044 31.901 35.9969C32.0694 35.575 32.0694 35.3209 31.9852 35.0676C31.8167 34.6457 31.564 34.4759 31.1436 34.3067C30.6388 34.1382 28.281 33.3774 27.7756 33.2089L27.8598 32.9555C28.4495 33.124 30.5539 33.8848 31.1436 34.0533C31.564 34.1382 31.8174 34.1382 32.2379 33.9698C32.4906 33.7999 32.6591 33.5465 32.6591 33.124C32.7433 32.5323 32.1537 31.3495 32.0694 31.0954C31.7325 30.3346 31.564 30.0812 31.312 29.2375C31.0593 28.4766 31.0593 28.2232 30.8066 27.3781C30.8066 27.1247 30.5539 25.7728 30.217 25.3496C29.8801 25.012 29.6274 24.927 29.2911 25.0119C28.9542 25.0119 28.7015 25.1811 28.3645 25.6037C28.0283 26.0255 26.7648 27.8849 26.4278 28.3924L26.1751 28.2239C26.5121 27.7171 27.8591 25.942 28.1118 25.4345C28.3645 25.0119 28.4488 24.7586 28.3645 24.4202C28.3645 23.9984 28.1961 23.8292 27.7749 23.6594C27.2702 23.406 25.9224 23.6594 25.6697 23.6594C24.8281 23.7443 24.5754 23.7443 23.7337 23.7443C22.8914 23.7443 22.5545 23.7443 21.797 23.6594C21.5443 23.6594 20.1973 23.406 19.6926 23.6594C19.2714 23.8285 19.1029 23.9977 19.0187 24.4202C18.9345 24.7586 19.1029 25.0119 19.2714 25.4345C19.6083 25.9413 20.9554 27.8 21.2923 28.3074L21.1239 28.4773V28.4773Z" stroke="white" stroke-width="8.61192" stroke-miterlimit="2.613"/>
<path fill-rule="evenodd" clip-rule="evenodd" d="M19.3563 31.7721C19.3563 29.3217 21.293 27.2939 23.8186 27.2939C26.26 27.2939 28.2809 29.3224 28.2809 31.7721C28.2809 34.2218 26.26 36.2503 23.8186 36.2503C21.2923 36.2503 19.3563 34.2225 19.3563 31.7721Z" fill="#067BC2" stroke="#067BC2" stroke-width="6.30331" stroke-miterlimit="2.613"/>
<path fill-rule="evenodd" clip-rule="evenodd" d="M20.7875 31.7721C20.7875 30.1675 22.1346 28.8149 23.8186 28.8149C25.4183 28.8149 26.7654 30.1675 26.7654 31.7721C26.7654 33.463 25.4183 34.8142 23.8186 34.8142C23.4193 34.8152 23.0238 34.7371 22.6549 34.5845C22.286 34.4318 21.9509 34.2076 21.6691 33.9248C21.3873 33.6419 21.1643 33.3061 21.013 32.9366C20.8617 32.5671 20.7851 32.1714 20.7875 31.7721Z" fill="white"/>
</svg>
