<svg width="123" height="55" fill="none" xmlns="http://www.w3.org/2000/svg"><path fill-rule="evenodd" clip-rule="evenodd" d="M60.78 36.504c-1.431-.676-2.778-.93-4.041-.93-3.031 0-5.894 2.366-5.894 5.831 0 3.294 2.526 5.83 5.978 5.83 1.347 0 2.779-.422 4.041-1.098v-.93c-1.515.845-2.778 1.183-4.04 1.183-2.948 0-5.053-2.028-5.053-4.986 0-2.873 2.105-5.07 4.968-5.07 1.347 0 2.61.338 4.041 1.1v-.93Zm9.094 6.845c0-2.282-1.6-3.888-3.79-3.888-2.188 0-3.788 1.606-3.788 3.888 0 2.197 1.6 3.886 3.789 3.886s3.789-1.69 3.789-3.886Zm-.843 0c0 1.774-1.262 3.042-2.947 3.042-1.684 0-2.947-1.268-2.947-3.042 0-1.86 1.263-3.127 2.947-3.127 1.685 0 2.947 1.352 2.947 3.127Zm8.167 3.718h.843v-7.521h-.843v5.239c-.59 1.1-1.262 1.606-2.44 1.606-1.096 0-2.022-.677-2.022-2.198v-4.647h-.758v4.647c0 2.281 1.432 3.042 2.779 3.042 1.093 0 1.768-.422 2.44-1.437v1.269h.001Zm4.041-7.52h-.841v7.52h.841v-5.239c.675-1.099 1.347-1.606 2.442-1.606 1.264 0 2.02.931 2.02 2.536v4.31h.759v-4.564c0-2.028-1.179-3.042-2.778-3.042-1.01 0-1.768.339-2.442 1.438v-1.353Zm12.883.253c-.758-.253-1.264-.338-1.937-.338-2.105 0-3.62 1.605-3.62 3.971 0 2.282 1.431 3.803 3.62 3.803.758 0 1.262-.084 2.105-.422v-.846c-.843.339-1.347.423-2.022.423-1.768 0-2.861-1.184-2.861-3.041 0-1.86 1.178-3.128 2.777-3.128.673 0 1.094.085 1.937.424V39.8Zm2.188 7.267h.758v-7.521h-.758v7.52Zm0-9.97h.758V35.66h-.758v1.436Zm3.453 9.97h.758V35.66h-.758v11.407ZM60.78 19.858c-1.431-.675-2.778-1.014-4.041-1.014-3.031 0-5.894 2.366-5.894 5.915 0 3.295 2.526 5.745 5.978 5.745a8.685 8.685 0 0 0 4.041-1.012v-.931c-1.515.846-2.778 1.183-4.04 1.183-2.948 0-5.053-2.113-5.053-4.985 0-2.873 2.105-5.07 4.968-5.07 1.347 0 2.61.338 4.041 1.098v-.928Zm9.094 6.845c0-2.282-1.6-3.972-3.79-3.972-2.188 0-3.788 1.69-3.788 3.972 0 2.197 1.6 3.802 3.789 3.802s3.789-1.605 3.789-3.802Zm-.843 0c0 1.774-1.262 3.04-2.947 3.04-1.684 0-2.947-1.266-2.947-3.04 0-1.86 1.263-3.127 2.947-3.127 1.685 0 2.947 1.267 2.947 3.127Zm8.167 3.718h.843V22.9h-.843v5.238c-.59 1.014-1.262 1.605-2.44 1.605-1.096 0-2.022-.676-2.022-2.197V22.9h-.758v4.647c0 2.197 1.432 2.957 2.779 2.957 1.093 0 1.768-.337 2.44-1.351v1.268h.001Zm4.041-7.52h-.841v7.52h.841v-5.24c.675-1.098 1.347-1.604 2.442-1.604 1.264 0 2.02.845 2.02 2.534v4.31h.759v-4.563c0-2.029-1.179-3.127-2.778-3.127-1.01 0-1.768.422-2.442 1.52v-1.35Zm9.093-2.451h-.252l-.505.675v1.776h-2.02v.676h2.02v5.407c0 1.1.843 1.521 1.684 1.521.252 0 .59 0 .927-.083.252-.085.505-.169.673-.254v-.76c-.673.253-.925.336-1.43.336-1.096 0-1.096-.422-1.096-1.69v-4.477h2.105V22.9h-2.105V20.45Zm9.937 2.45h-.843l-2.61 5.239-2.694-5.238h-.843l3.2 6.082-2.61 5.24h.757L100.27 22.9ZM60.612 2.368h-.842v5.239h-7.578v-5.24h-.841v11.408h.841V8.366h7.578v5.408h.842V2.367Zm8.673 10.055c-.422.338-.843.676-1.095.676-.085 0-.168-.084-.168-.422V8.028c0-1.52-1.348-1.942-2.274-1.942-.842 0-1.516.253-2.442.845v.76c.842-.676 1.516-.93 2.273-.93 1.095 0 1.684.507 1.684 1.522v.929c-2.188.17-4.378.845-4.378 2.789 0 1.014.842 1.858 2.02 1.858.759 0 1.517-.253 2.358-.93.084.762.169.93.506.93.335 0 .673-.084 1.347-.676l.169-.085v-.676Zm-2.022-.169c-.841.676-1.347.93-2.105.93-.841 0-1.431-.507-1.431-1.183 0-1.352 1.6-2.197 3.536-2.113v2.366Zm4.21-6h-.757v7.521h.758V8.451c.758-1.098 1.347-1.605 2.273-1.605 1.01 0 1.937.76 1.937 2.62v4.308h.842V8.62c.758-1.267 1.347-1.774 2.273-1.774 1.262 0 1.937 1.098 1.937 2.62v4.308h.758V9.127c0-1.86-1.011-3.042-2.61-3.042-1.01 0-1.852.59-2.526 1.774-.505-1.182-1.262-1.774-2.442-1.774-1.01 0-1.683.422-2.357 1.52h-.084V6.254h-.001Zm13.219 0h-.759v11.324h.758V13.35c.844.423 1.433.507 2.19.507 2.104 0 3.705-1.69 3.705-3.887 0-2.282-1.516-3.887-3.62-3.887-.842 0-1.431.169-2.274.591v-.422Zm0 1.184c.758-.423 1.263-.591 1.936-.591 1.853 0 3.115 1.352 3.115 3.21 0 1.775-1.178 3.042-3.03 3.042-.674 0-1.263-.169-2.021-.59V7.436Zm12.124-.676c-.758-.423-1.347-.676-2.021-.676-1.347 0-2.44.93-2.44 2.028 0 2.45 3.872 1.943 3.872 3.718 0 .76-.675 1.267-1.6 1.267-.674 0-1.348-.17-2.273-.676v.76c.758.507 1.43.676 2.189.676 1.432 0 2.442-.845 2.442-2.028 0-2.62-3.873-1.944-3.873-3.718 0-.76.758-1.267 1.6-1.267.674 0 1.263.169 2.104.76v-.844Zm2.863-4.394h-.758v11.407h.758V8.451c.673-1.014 1.347-1.605 2.441-1.605 1.432 0 2.021 1.013 2.021 2.62v4.308h.758V9.127c0-1.944-1.178-3.042-2.694-3.042-1.095 0-1.768.422-2.525 1.437V2.367h-.001Zm7.83 11.407h.758v-7.52h-.758v7.52Zm0-10.055h.758V2.367h-.758v1.352Zm8.42 3.295c-.675-.676-1.179-.93-1.684-.93-.842 0-1.684.762-2.61 2.113V6.253h-.843v7.521h.843V9.042c.758-1.437 1.599-2.197 2.358-2.197.42 0 .758.253 1.515.844l.421-.675ZM123 9.718c0-2.535-1.683-3.633-3.284-3.633-2.02 0-3.452 1.605-3.452 3.802 0 2.366 1.601 3.972 3.789 3.972 1.01 0 1.937-.254 2.863-1.014V12c-1.01.76-1.768 1.098-2.779 1.098a3.067 3.067 0 0 1-3.031-3.38H123Zm-5.724-.676c.252-1.352 1.178-2.197 2.44-2.197 1.264 0 2.105.76 2.357 2.197h-4.797Z" fill="#fff"/><path fill-rule="evenodd" clip-rule="evenodd" d="M9.674 27.294c-.422-.084-.505-.253-.843-.507-.252-.253-.42-.337-.59-.676-.168-.253-.168-.507-.251-.845-.085-.422-.085-.592 0-1.014.084-.423.168-.676.336-1.099.59-1.436 1.347-2.112 2.441-3.126 1.011-.93 1.684-1.437 2.779-2.281a34.674 34.674 0 0 1 2.946-1.859c1.264-.76 2.105-1.352 3.705-1.437.42 0 .674-.085 1.095 0 .42.085.673.17 1.01.339.337.169.505.253.674.506.252.254.337.423.42.761.17.339.253.592.253 1.014 0-.422.085-.675.253-1.098.169-.253.169-.422.421-.676.253-.253.42-.422.758-.507.294-.15.605-.263.926-.338.389-.085.79-.085 1.179 0 1.515.085 2.357.676 3.705 1.352 1.178.676 1.852 1.098 2.947 1.944 1.178.76 1.768 1.266 2.778 2.196 1.094 1.015 1.852 1.69 2.442 3.127.169.422.252.59.336 1.098.084.423.084.592 0 1.015-.084.338-.084.506-.252.845a1.966 1.966 0 0 1-.59.591c-.337.339-.505.422-.926.592.421-.17.674-.17 1.094-.085.337 0 .59 0 .843.169.337.084.505.253.758.506.253.254.42.507.59.846.168.337.252.676.337 1.098.42 1.521.168 2.452-.169 3.973-.253 1.351-.421 2.112-.842 3.38-.505 1.352-.758 2.113-1.263 3.295-.674 1.351-1.01 2.365-2.189 3.38-.337.253-.59.421-.926.591-.42.169-.59.254-1.01.337-.337.085-.505.085-.842 0-.337 0-.506-.168-.843-.337-.337-.17-.504-.338-.757-.675.253.336.336.59.42 1.012.085.339.169.507.085.846 0 .338-.084.507-.253.846-.168.337-.337.507-.59.844-.337.339-.59.422-.926.676-1.346.846-2.357.846-3.788 1.015-1.431.17-2.19.253-3.62.253-1.348 0-2.106 0-3.453-.168-1.515-.169-2.526-.254-3.789-1.1-.42-.253-.673-.337-.926-.676-.337-.253-.421-.507-.59-.844-.168-.338-.336-.507-.336-.846 0-.339 0-.507.084-.846.084-.337.084-.59.421-.929-.253.422-.505.507-.842.677-.252.168-.42.337-.758.422-.337 0-.505 0-.842-.085-.42 0-.673-.085-1.01-.254-.421-.253-.59-.422-.927-.676-1.178-1.014-1.515-1.943-2.189-3.295-.59-1.268-.842-2.029-1.263-3.38-.42-1.268-.673-2.028-.926-3.38-.337-1.437-.59-2.45-.168-3.972.084-.422.168-.676.337-1.098.168-.338.337-.506.59-.845.252-.169.42-.339.757-.507.252-.169.505-.169.842-.169.337 0 .59-.085.927.084Z" fill="#fff" stroke="#fff" stroke-width="11.478" stroke-miterlimit="2.613"/><path fill-rule="evenodd" clip-rule="evenodd" d="M23.819 10.901c5.05 0 9.766 1.69 13.723 5.07L40.32 1.945l-2.525.338s.336 1.014.42 1.69v1.352L37.121 3.38 35.689 7.86l2.106-.929c-.337 1.183-1.432 1.943-2.779 1.943-2.02 0-2.694-1.69-2.525-2.873 0-.508.336-.845.504-.93a1.146 1.146 0 0 1 1.011-.17c.336.17.674.34.674.762.084.676-.421 1.098-.421 1.098s1.01-.422 1.431-1.098c.337-.592.505-1.352 0-2.028-.084-.254-.337-.676-1.01-.676-.674-.084-1.516.422-1.516.422.084-.253.168-.506.168-.929.085-.76-.168-1.268-.336-1.69C32.912.59 32.659 0 32.659 0s-.337.507-.505.676c-.252.338-.674.76-.758 1.521-.084.423-.084.676 0 .93 0 0-.674-.677-1.348-.846-.673-.169-1.01.085-1.262.254-.59.506-.758 1.351-.59 2.028.253.761 1.01 1.437 1.01 1.437s-.337-.508-.084-1.183c.253-.422.505-.507.842-.507.337 0 .673.17 1.01.507.085.084.253.507.169.93-.169 1.014-.926 2.027-2.19 2.112-.168 0-.336.085-.504.085-.169 0-.42-.085-.59-.085-1.6-.085-3.115-1.013-3.115-2.45l2.778 1.774V1.438l-2.694 1.69L27.185.423H20.45l2.273 2.705-2.61-1.69v5.745l2.694-1.774c0 1.437-1.515 2.366-3.115 2.45-.17 0-.337.085-.506.085-.252 0-.42-.085-.59-.085-1.178-.085-2.02-1.098-2.188-2.112-.084-.423.084-.846.253-.93.252-.337.59-.507.926-.507.337 0 .674.085.842.507.337.676 0 1.183-.084 1.183 0 0 .842-.676 1.01-1.437.168-.676.084-1.52-.59-2.028-.168-.17-.59-.423-1.178-.254-.674.17-1.347.845-1.347.845.084-.253.084-.506 0-.929-.085-.76-.506-1.183-.843-1.521-.084-.17-.504-.676-.504-.676s-.253.592-.253.76c-.169.423-.505.93-.421 1.691.084.423.168.676.252.93 0 0-.841-.507-1.515-.423-.674 0-.926.422-1.094.676-.422.676-.253 1.436.084 2.028.421.676 1.347 1.098 1.347 1.098s-.505-.422-.42-1.098c.084-.423.336-.592.673-.761.337-.084.674-.084 1.01.169.253.085.506.422.59.93.168 1.183-.59 2.873-2.61 2.873-1.347 0-2.358-.761-2.778-1.943l2.189.93-1.431-4.479L9.42 5.325s-.084-.339 0-1.352c0-.676.337-1.69.337-1.69L7.23 1.945l2.779 14.026c4.042-3.38 8.757-5.07 13.809-5.07Z" fill="#fff"/><path fill-rule="evenodd" clip-rule="evenodd" d="M32.49 43.856c.169.337.085 1.268-.084 1.521-.168.422-.504.676-.926.845-.42.17-.758.253-1.262.253-.59.085-.843 0-1.347-.084-.506-.084-.842-.17-1.348-.253-.673-.085-1.01-.17-1.6-.17-.42-.083-.589-.083-1.01-.168h-2.188c-.337.085-.59.085-1.01.168-.59 0-.926.085-1.516.17-.59.084-.842.169-1.431.254-.505.083-.758.168-1.263.083-.461.006-.92-.08-1.347-.253-.421-.169-.674-.422-.926-.845-.168-.253-.252-1.184 0-1.52h-.168c-.253.336-1.095.506-1.431.421-.422-.085-.843-.253-1.095-.59-.337-.339-.505-.761-.674-1.184-.168-.507-.168-.761-.337-1.268-.084-.59-.084-.844-.168-1.436-.084-.59-.169-.93-.253-1.521-.084-.422-.168-.676-.252-1.014-.085-.337-.169-.761-.253-1.098-.169-.254-.253-.677-.421-1.014-.169-.339-.253-.507-.42-.931l-.675-1.351c-.252-.507-.42-.761-.674-1.268-.168-.507-.337-.676-.505-1.183-.084-.507-.169-.93-.169-1.352.085-.507.253-.845.59-1.183.169-.254 1.094-.592 1.431-.507-.337-.168-.926-1.014-.926-1.352-.084-.422 0-.845.253-1.267.252-.422.504-.676.925-1.014.42-.338.674-.338 1.095-.676.505-.253.757-.338 1.263-.591.59-.253.841-.423 1.43-.76.338-.17.506-.254.843-.508.253-.169.673-.422.926-.59.253-.17.59-.507.842-.677.253-.253.42-.421.758-.676l1.094-1.098c.42-.423.59-.676 1.01-1.014.421-.338.506-.591 1.01-.845.422-.253.759-.506 1.18-.591.504-.085.926 0 1.263.169.336.084.925.845.925 1.267.085-.422.674-1.183 1.01-1.352.421-.169.842-.253 1.263-.169.42.17.758.338 1.179.591.505.254.59.507 1.01.845.421.423.59.676 1.01 1.014l1.095 1.099c.336.253.504.422.758.675.252.254.589.507.841.677.253.252.674.421.926.59.337.255.506.339.843.507.59.339.842.508 1.43.761.505.253.759.338 1.264.676.42.254.674.338 1.094.676.421.254.674.592.926.93.253.422.337.844.253 1.267 0 .338-.42 1.098-.841 1.268.42-.085 1.262.253 1.515.506.253.337.421.676.505 1.183 0 .422 0 .845-.169 1.353-.168.505-.337.676-.504 1.183-.253.506-.422.76-.674 1.267l-.673 1.351c-.169.422-.253.592-.422 1.015-.084.253-.252.675-.336 1.014-.169.253-.253.676-.337 1.014-.085.422-.085.592-.169 1.014-.168.592-.168.93-.337 1.521-.084.59-.084.845-.168 1.437-.085.506-.085.76-.337 1.267-.169.422-.337.845-.59 1.183a2.009 2.009 0 0 1-1.094.592c-.335.083-1.43-.254-1.43-.254Zm-9.008-22.055V18.76c-.085-.845-.253-1.268-.758-1.774-.42-.338-.758-.507-1.515-.338-.926.253-2.61 1.859-2.863 2.113-.85.729-1.72 1.434-2.61 2.113-1.094.845-1.599 1.098-2.778 1.774-.337.254-2.358 1.267-2.863 2.113-.42.676-.42 1.098-.168 1.605.253.592.674.93 1.432 1.268.841.253 2.02.591 2.947.929l-.169.422c-1.01-.252-2.02-.676-2.862-.93-.843-.168-1.263-.168-1.853.17-.59.337-.757.59-.841 1.436-.085.93 1.01 2.958 1.094 3.38.505 1.268.757 1.775 1.178 3.042.422 1.353.59 1.858.927 3.21.084.423.42 2.705 1.01 3.465.505.592.926.676 1.516.592.674-.085 1.01-.338 1.599-1.014.589-.676 1.094-1.606 1.769-2.367l.42.253c-.59.846-1.263 1.606-1.768 2.367-.336.761-.505 1.183-.421 1.86.085.59.337.929 1.094 1.182.842.422 3.115 0 3.537 0 1.43-.085 1.936-.17 3.283-.17 1.432 0 1.936.085 3.368.17.336 0 2.61.422 3.536 0 .674-.253.927-.591 1.01-1.182.169-.677 0-1.1-.42-1.86-.506-.76-1.18-1.52-1.77-2.45l.338-.254c.674.761 1.178 1.605 1.683 2.366.59.592 1.01.846 1.684.93.59.084.926 0 1.432-.591.673-.76 1.01-3.042 1.094-3.465.337-1.352.42-1.86.842-3.127.421-1.35.674-1.858 1.18-3.125.168-.422 1.262-2.45 1.094-3.38 0-.846-.253-1.1-.758-1.438-.59-.337-1.095-.337-1.937-.168-.843.253-1.853.676-2.779.93l-.252-.338c1.01-.338 2.02-.591 2.862-.93.758-.337 1.18-.59 1.432-1.268.252-.506.252-.93-.169-1.605-.421-.761-2.526-1.859-2.863-2.028-1.179-.761-1.683-1.014-2.778-1.86-1.094-.76-1.516-1.182-2.61-2.027-.253-.254-1.853-1.944-2.863-2.197-.757-.17-1.094 0-1.515.422-.505.423-.674.93-.758 1.69 0 .93.084 2.028 0 3.127h-.42V21.8Z" fill="#397BC8"/><path d="M32.49 43.856c.169.337.085 1.268-.084 1.521-.168.422-.504.676-.926.845-.42.17-.758.253-1.262.253-.59.085-.843 0-1.347-.084-.506-.084-.842-.17-1.348-.253-.673-.085-1.01-.17-1.6-.17-.42-.083-.589-.083-1.01-.168h-2.188c-.337.085-.59.085-1.01.168-.59 0-.926.085-1.516.17-.59.084-.842.169-1.431.254-.505.083-.758.168-1.263.083-.461.006-.92-.08-1.347-.253-.421-.169-.674-.422-.926-.845-.168-.253-.252-1.184 0-1.52h-.168c-.253.336-1.095.506-1.431.421-.422-.085-.843-.253-1.095-.59-.337-.339-.505-.761-.674-1.184-.168-.507-.168-.761-.337-1.268-.084-.59-.084-.844-.168-1.436-.084-.59-.169-.93-.253-1.521-.084-.422-.168-.676-.252-1.014-.085-.337-.169-.761-.253-1.098-.169-.254-.253-.677-.421-1.014-.169-.339-.253-.507-.422-.931l-.673-1.351c-.252-.507-.42-.761-.674-1.268-.168-.507-.337-.676-.505-1.183-.084-.507-.169-.93-.169-1.352.085-.507.253-.845.59-1.183.169-.254 1.094-.592 1.431-.507-.337-.168-.925-1.014-.925-1.352-.085-.422 0-.845.252-1.267.252-.422.505-.676.926-1.014.42-.338.674-.338 1.095-.676.504-.253.757-.338 1.262-.591.59-.253.842-.423 1.432-.76.336-.17.505-.254.842-.508.253-.169.673-.422.926-.59.252-.17.59-.507.841-.677.253-.253.422-.421.759-.676l1.094-1.098c.42-.423.59-.676 1.01-1.014.421-.338.505-.591 1.01-.845.421-.253.758-.506 1.18-.591.504-.085.925 0 1.262.169.337.084.926.845.926 1.267 0-.422.674-1.183 1.01-1.352.42-.169.842-.253 1.263-.169.42.17.758.338 1.179.591.505.254.59.507 1.01.845.42.423.59.676 1.01 1.014l1.094 1.099c.337.253.505.422.758.675.253.254.59.507.842.677.253.252.674.421.926.59.337.255.505.339.842.508.59.338.842.507 1.431.76.505.253.759.338 1.263.676.422.254.674.338 1.095.676.42.254.674.592.926.93.253.422.337.844.253 1.267 0 .338-.421 1.098-.842 1.268.42-.085 1.263.253 1.516.506.252.337.421.676.505 1.183 0 .422 0 .845-.169 1.353-.168.505-.337.676-.505 1.183-.252.506-.42.76-.674 1.267l-.673 1.351c-.169.422-.253.592-.422 1.015-.084.253-.252.675-.336 1.014-.169.253-.253.676-.337 1.014-.085.422-.085.592-.169 1.014-.168.592-.168.93-.337 1.521-.084.59-.084.845-.168 1.437-.085.506-.085.76-.337 1.267-.169.422-.337.845-.59 1.183a2.009 2.009 0 0 1-1.094.592c-.335.083-1.43-.254-1.43-.254Zm-9.008-22.055V18.76c-.085-.845-.253-1.268-.758-1.774-.42-.338-.758-.507-1.515-.338-.926.253-2.61 1.859-2.863 2.113-.85.729-1.72 1.434-2.61 2.113-1.094.845-1.599 1.098-2.778 1.774-.337.254-2.358 1.268-2.863 2.113-.42.676-.42 1.098-.168 1.605.253.592.674.93 1.432 1.268.841.253 2.02.591 2.947.929l-.169.422c-1.01-.252-2.02-.676-2.862-.93-.843-.168-1.263-.168-1.853.17-.59.337-.757.59-.841 1.436-.085.93 1.01 2.958 1.094 3.38.505 1.268.757 1.775 1.178 3.042.422 1.353.59 1.858.927 3.21.084.423.42 2.705 1.01 3.465.505.592.926.676 1.516.592.674-.085 1.01-.338 1.599-1.014.589-.676 1.094-1.606 1.769-2.367l.42.253c-.59.846-1.263 1.606-1.768 2.367-.336.761-.505 1.183-.421 1.86.085.59.337.929 1.094 1.182.842.422 3.115 0 3.537 0 1.43-.085 1.936-.17 3.283-.17 1.432 0 1.936.085 3.368.17.336 0 2.61.422 3.536 0 .674-.253.927-.591 1.01-1.182.169-.677 0-1.1-.42-1.86-.506-.76-1.18-1.52-1.77-2.45l.338-.254c.674.761 1.178 1.605 1.683 2.366.59.592 1.01.846 1.684.93.59.084.926 0 1.432-.591.673-.76 1.01-3.042 1.094-3.465.337-1.352.42-1.86.842-3.127.421-1.35.674-1.858 1.18-3.125.168-.422 1.262-2.45 1.094-3.38 0-.846-.253-1.1-.758-1.438-.59-.337-1.095-.337-1.937-.168-.843.253-1.853.676-2.779.93l-.252-.338c1.01-.338 2.02-.591 2.862-.93.758-.337 1.18-.59 1.432-1.268.252-.506.252-.93-.169-1.605-.421-.76-2.526-1.859-2.863-2.028-1.179-.761-1.683-1.014-2.778-1.86-1.094-.76-1.516-1.182-2.61-2.027-.253-.254-1.853-1.944-2.863-2.197-.757-.17-1.094 0-1.515.422-.505.423-.674.93-.758 1.69 0 .93.084 2.028 0 3.127h-.42V21.8Z" stroke="#067BC2" stroke-width="8.612" stroke-miterlimit="2.613"/><path fill-rule="evenodd" clip-rule="evenodd" d="M15.483 34.476c-.253.17-.337.085-.59.085-.252 0-.337 0-.504-.085-.169-.084-.253-.169-.422-.337-.168-.17-.252-.254-.337-.507-.168-.168-.168-.338-.252-.592-.253-.929-.085-1.52.084-2.365.168-.76.337-1.268.59-2.029.252-.76.337-1.182.673-1.943.421-.845.59-1.352 1.347-1.943.168-.17.253-.254.505-.423.252-.085.336-.169.59-.169.168 0 .336-.084.505 0 .252 0 .336.085.504.17.169.168.337.253.42.422-.168-.17-.168-.338-.252-.592 0-.168-.084-.253 0-.507 0-.169 0-.253.169-.506.084-.17.168-.254.336-.423.169-.253.337-.337.505-.422.758-.507 1.347-.507 2.273-.676.758-.085 1.263-.085 2.105-.085.758 0 1.263 0 2.02.085.926.084 1.516.169 2.274.591.253.17.336.254.59.423.168.169.168.338.336.507.084.169.168.337.168.506 0 .17 0 .339-.084.507-.084.254-.084.338-.252.592.168-.254.252-.338.505-.423.168-.169.252-.169.42-.253h.59c.169.084.337.084.505.253.253.085.421.17.59.338.673.592.925 1.183 1.262 1.944.289.633.542 1.281.758 1.942.253.846.422 1.268.59 2.029.168.93.336 1.436.084 2.367-.084.253-.084.422-.252.676-.085.168-.169.253-.337.422-.17.168-.253.253-.422.338-.168.084-.252.084-.505.084-.168 0-.337.084-.589 0 .252 0 .336.17.59.338.083.085.252.168.336.338.084.169.084.254.169.507v.59c-.085.254-.169.423-.253.677-.337.844-.758 1.183-1.43 1.774-.491.499-1.027.951-1.6 1.352-.675.506-1.095.76-1.769 1.182-.758.423-1.263.761-2.19.761a.922.922 0 0 1-.673 0c-.253 0-.336-.083-.59-.168-.168-.085-.252-.169-.42-.339-.085-.083-.17-.253-.254-.421-.084-.169-.168-.254-.168-.592.084.338 0 .423-.084.676-.084.169-.169.254-.253.422-.168.169-.253.169-.421.254-.253.168-.337.168-.59.253h-.673c-.926-.085-1.431-.422-2.19-.846-.672-.422-1.094-.676-1.768-1.097-.674-.507-1.01-.761-1.6-1.353-.673-.59-1.094-1.014-1.43-1.858-.17-.17-.17-.338-.253-.592v-.592c.084-.253.084-.336.168-.506.084-.169.169-.254.337-.422.173-.17.257-.254.509-.34Z" fill="#397BC8"/><path d="M15.483 34.476c-.253.17-.337.085-.59.085-.252 0-.337 0-.504-.085-.169-.084-.253-.169-.422-.337-.168-.169-.252-.254-.337-.507-.168-.168-.168-.338-.252-.592-.253-.929-.085-1.52.084-2.365.168-.76.337-1.268.59-2.029.252-.76.337-1.182.673-1.943.421-.845.59-1.352 1.347-1.943.168-.17.253-.254.505-.423.252-.085.336-.169.59-.169.168 0 .336-.084.505 0 .252 0 .336.085.504.17.169.168.337.253.42.422-.168-.17-.168-.338-.252-.592v-.507c0-.169 0-.253.169-.506.084-.17.168-.254.336-.423.169-.253.337-.337.505-.422.758-.507 1.347-.507 2.273-.676.758-.085 1.263-.085 2.105-.085.758 0 1.263 0 2.02.085.927.084 1.516.168 2.274.59.253.17.336.254.59.423.168.17.168.338.336.507.084.17.168.338.168.507 0 .169 0 .338-.084.506-.084.254-.084.339-.252.592.168-.254.252-.338.505-.422.168-.17.252-.17.42-.254h.59c.169.085.337.085.506.254.252.084.42.169.59.337.672.592.925 1.184 1.262 1.944.289.633.542 1.282.758 1.943.253.846.421 1.267.59 2.028.167.93.336 1.437.084 2.367-.084.254-.084.422-.253.676-.084.169-.168.254-.337.422-.169.168-.252.253-.42.338-.17.084-.254.084-.505.084-.169 0-.337.085-.59 0 .252 0 .336.17.59.338.084.085.252.169.336.339.084.168.084.253.168.506v.59c-.084.254-.168.424-.253.677-.336.845-.757 1.183-1.43 1.775-.49.498-1.026.95-1.6 1.35-.674.508-1.094.762-1.768 1.184-.758.423-1.264.76-2.19.76a.922.922 0 0 1-.673 0c-.253 0-.337-.083-.59-.168-.169-.085-.253-.169-.421-.338-.084-.084-.169-.254-.253-.422-.084-.169-.168-.254-.168-.592 0 .338 0 .423-.085.677-.084.168-.168.253-.252.422-.169.168-.253.168-.421.253-.253.168-.337.168-.59.253h-.673c-.926-.085-1.432-.422-2.19-.845-.673-.422-1.094-.676-1.768-1.098-.674-.507-1.01-.761-1.6-1.353-.673-.59-1.094-1.014-1.43-1.858-.17-.17-.17-.338-.254-.592v-.591c.085-.254.085-.337.169-.507.084-.168.168-.253.337-.422.172-.168.256-.253.508-.338Z" stroke="#067BC2" stroke-width="11.478" stroke-miterlimit="2.613"/><path fill-rule="evenodd" clip-rule="evenodd" d="M23.65 31.772c0-.083.084-.168.169-.168.084 0 .084.085.084.168 0 .085 0 .17-.084.17-.085 0-.169-.085-.169-.17Z" fill="#397BC8"/><path d="m23.65 31.772.169-.168.084.168-.084.17-.169-.17Z" stroke="#397BC8" stroke-width="8.612" stroke-miterlimit="2.613"/><path fill-rule="evenodd" clip-rule="evenodd" d="M32.07 34.476c.252.085.504.592.504.76.084.254 0 .508-.168.762-.084.253-.253.338-.505.591a2.547 2.547 0 0 1-.674.339 6.11 6.11 0 0 1-.758.422c-.253.168-.505.253-.758.421-.252.085-.337.169-.505.339-.168.085-.421.168-.59.338-.168.084-.336.253-.505.422-.168.083-.253.168-.421.338l-.673.676-.59.59c-.253.17-.337.339-.59.507-.206.146-.433.26-.673.338-.337.085-.59 0-.758-.084-.168-.084-.59-.507-.59-.761v.085c-.084.253-.42.676-.59.76-.25.087-.502.087-.755.087-.252-.085-.42-.254-.673-.338-.337-.169-.421-.339-.59-.507l-.59-.592-.673-.676c-.169-.168-.252-.253-.505-.422-.084-.085-.337-.253-.421-.422-.169-.085-.421-.253-.59-.338-.168-.085-.337-.17-.505-.253a4.391 4.391 0 0 0-.843-.507c-.252-.085-.42-.169-.757-.338-.253-.169-.421-.169-.59-.422a1.968 1.968 0 0 1-.59-.592 1.59 1.59 0 0 1-.168-.676c.084-.253.336-.676.59-.76-.253 0-.843-.17-.926-.34-.169-.168-.337-.421-.337-.675 0-.254 0-.507.084-.845.078-.24.191-.469.336-.676.085-.254.253-.422.337-.761l.42-.844.254-.507c.084-.17.168-.422.252-.592 0-.253.084-.422.169-.676 0-.168.084-.338.084-.592.084-.337.168-.506.168-.844.085-.338.085-.507.169-.846 0-.338 0-.507.168-.76.085-.254.169-.507.337-.676.169-.253.42-.337.674-.422.168 0 .757.084.841.254-.084-.17-.084-.761.084-.93a.76.76 0 0 1 .506-.507c.253-.084.505-.17.757-.17.337 0 .506.086.842.086.253 0 .421.084.758.168.421 0 .59.085.926.085.252 0 .421.085.59.085h1.263c.253 0 .42-.085.674-.085.337 0 .505-.085.926-.085.252-.084.42-.168.757-.168s.506-.085.758-.085c.336 0 .59.085.842.169a.76.76 0 0 1 .505.507c.084.169.168.675.084.93.084-.255.673-.339.841-.339.253.085.506.17.674.423.169.169.253.422.337.676.169.253.169.422.169.76.084.338.084.507.168.846.085.338.085.507.169.93 0 .169.084.337.084.59.084.17.168.423.168.593.085.168.169.421.253.59.084.253.169.338.253.592.168.253.252.506.42.76.169.337.253.507.337.761.168.337.252.422.337.761.084.254.084.507.084.761s-.169.505-.337.676c-.082.166-.756.335-.756.335Zm-10.946-5.999c-.42-.506-1.683-2.367-2.021-2.79-.336-.422-.505-.59-.926-.59-.337-.085-.59 0-.926.337-.337.423-.505 1.776-.59 2.029-.168.76-.252 1.098-.504 1.858-.253.846-.421 1.1-.674 1.86-.084.253-.758 1.436-.674 2.028 0 .422.168.59.421.76.421.253.673.253 1.179.084.505-.085 2.694-.844 3.284-1.014l.084.253c-.59.17-2.779.846-3.284 1.1-.42.168-.673.336-.842.676-.168.338-.168.591.085.929.337.507 1.515 1.1 1.684 1.267.758.424 1.01.592 1.683 1.1.674.422.842.676 1.515 1.183.169.168 1.095 1.099 1.684 1.267.422.085.674 0 .926-.253.252-.254.337-.507.421-1.014v-3.55h.253c.084.676 0 2.957.084 3.55 0 .421.085.76.422 1.014.252.253.42.338.925.168.505-.083 1.516-1.098 1.684-1.182.59-.592.842-.761 1.516-1.268s.927-.676 1.6-1.098c.252-.085 1.43-.677 1.768-1.184.168-.422.168-.676.084-.93-.168-.421-.421-.591-.842-.76-.505-.169-2.863-.93-3.368-1.098l.084-.254c.59.169 2.694.93 3.284 1.098.42.085.674.085 1.094-.085.253-.168.421-.422.421-.844.085-.592-.505-1.775-.59-2.029-.336-.76-.505-1.014-.757-1.857-.252-.761-.252-1.015-.505-1.86 0-.253-.253-1.605-.59-2.028-.337-.338-.59-.423-.926-.338-.337 0-.59.17-.926.592-.336.422-1.6 2.28-1.937 2.788l-.253-.168c.337-.507 1.684-2.282 1.937-2.79.253-.422.337-.675.253-1.014 0-.422-.169-.59-.59-.76-.505-.254-1.852 0-2.105 0-.842.084-1.094.084-1.936.084-.842 0-1.18 0-1.937-.085-.252 0-1.6-.253-2.104 0-.421.17-.59.339-.674.761-.084.339.084.592.253 1.014.337.507 1.684 2.366 2.02 2.873l-.167.17Z" fill="#fff"/><path d="M32.07 34.476c.252.085.504.592.504.76.084.254 0 .508-.168.762-.084.253-.253.338-.505.591a2.547 2.547 0 0 1-.674.339 6.11 6.11 0 0 1-.758.422c-.253.168-.505.253-.758.421-.252.085-.337.169-.505.339-.168.085-.421.168-.59.338-.168.084-.336.253-.505.422-.168.083-.253.168-.421.338l-.673.676-.59.59c-.253.17-.337.339-.59.507-.206.146-.433.26-.673.338-.337.085-.59 0-.758-.084-.168-.084-.59-.507-.59-.761v.085c0 .253-.42.676-.59.76-.25.087-.502.087-.755.087-.252-.085-.42-.254-.673-.338-.337-.169-.421-.339-.59-.507l-.59-.592-.673-.676c-.169-.168-.252-.253-.505-.422-.084-.085-.337-.253-.421-.422-.169-.085-.421-.253-.59-.338-.168-.085-.337-.17-.505-.253a4.391 4.391 0 0 0-.843-.507c-.252-.085-.42-.169-.757-.338-.253-.169-.421-.169-.59-.422a1.968 1.968 0 0 1-.59-.592 1.59 1.59 0 0 1-.168-.676c.084-.253.336-.676.59-.76-.253 0-.843-.17-.926-.34-.169-.168-.337-.421-.337-.675 0-.254 0-.507.084-.845.078-.24.191-.469.336-.676.085-.254.253-.422.337-.761l.42-.844.254-.507c.084-.17.168-.422.252-.592 0-.253.084-.422.169-.676 0-.168.084-.338.084-.592.084-.337.168-.506.168-.844.085-.338.085-.507.169-.846 0-.338 0-.507.168-.76.085-.254.169-.507.337-.676.169-.253.42-.337.674-.422.168 0 .757.084.841.254-.084-.17-.084-.761.084-.93a.76.76 0 0 1 .506-.507c.253-.084.505-.17.757-.17.337 0 .506.086.842.086.253 0 .421.084.758.168.421 0 .59.085.926.085.252 0 .421.085.59.085h1.263c.253 0 .42-.085.674-.085.337 0 .505-.085.926-.085.252-.084.42-.168.757-.168s.506-.085.758-.085c.336 0 .59.085.842.169a.76.76 0 0 1 .505.507c.084.169.168.675.084.93.084-.255.673-.339.841-.339.253.085.506.17.674.423.169.169.253.422.337.676.169.253.169.422.169.76.084.338.084.507.168.846.085.338.085.507.169.93 0 .169.084.337.084.59.084.17.168.423.168.593.085.168.169.421.253.59.084.253.169.338.253.592.168.253.252.506.421.76.169.337.253.507.336.761.169.337.253.422.337.761.084.254.084.507.084.761s-.168.507-.337.676c-.082.166-.756.335-.756.335Zm-10.946-5.999c-.42-.506-1.683-2.367-2.021-2.79-.336-.422-.505-.59-.926-.59-.337-.085-.59 0-.926.337-.337.423-.505 1.776-.59 2.029-.168.76-.252 1.098-.504 1.858-.253.846-.421 1.1-.674 1.86-.084.253-.758 1.436-.674 2.028 0 .422.168.59.421.76.421.253.673.253 1.179.084.505-.083 2.694-.844 3.284-1.014l.084.253c-.59.17-2.779.846-3.284 1.1-.42.168-.673.337-.842.676-.168.338-.168.591.085.929.337.507 1.515 1.1 1.684 1.267.758.424 1.01.592 1.683 1.1.674.422.842.676 1.515 1.183.169.168 1.095 1.099 1.684 1.267.422.085.674 0 .926-.253.252-.254.337-.507.421-1.014v-3.55h.253c0 .676 0 2.957.084 3.55 0 .421.085.76.422 1.014.252.253.42.338.925.168.505-.083 1.516-1.098 1.684-1.182.59-.592.842-.761 1.516-1.268s.927-.676 1.6-1.098c.252-.085 1.43-.677 1.768-1.184.168-.422.168-.676.084-.93-.168-.421-.421-.591-.841-.76-.505-.169-2.863-.93-3.368-1.098l.084-.254c.59.169 2.694.93 3.284 1.098.42.085.673.085 1.094-.083.253-.17.421-.423.421-.846.084-.592-.505-1.775-.59-2.029-.337-.76-.505-1.014-.757-1.857-.253-.761-.253-1.015-.505-1.86 0-.253-.253-1.605-.59-2.028-.337-.338-.59-.423-.926-.338-.337 0-.59.17-.927.592-.336.422-1.6 2.28-1.936 2.788l-.253-.168c.337-.507 1.684-2.282 1.937-2.79.253-.422.337-.675.253-1.014 0-.422-.169-.59-.59-.76-.505-.254-1.853 0-2.105 0-.842.084-1.095.084-1.936.084-.843 0-1.18 0-1.937-.085-.253 0-1.6-.253-2.104 0-.422.17-.59.339-.674.761-.084.339.084.592.252 1.014.337.507 1.684 2.366 2.021 2.873l-.168.17Z" stroke="#fff" stroke-width="8.612" stroke-miterlimit="2.613"/><path fill-rule="evenodd" clip-rule="evenodd" d="M19.356 31.772c0-2.45 1.937-4.478 4.463-4.478 2.441 0 4.462 2.028 4.462 4.478 0 2.45-2.021 4.478-4.462 4.478-2.527 0-4.463-2.028-4.463-4.478Z" fill="#067BC2" stroke="#067BC2" stroke-width="6.303" stroke-miterlimit="2.613"/><path fill-rule="evenodd" clip-rule="evenodd" d="M20.788 31.772c0-1.604 1.347-2.957 3.03-2.957 1.6 0 2.947 1.352 2.947 2.957 0 1.691-1.347 3.042-2.946 3.042a3.025 3.025 0 0 1-3.031-3.042Z" fill="#fff"/></svg>