<svg width="36" height="66" fill="none" xmlns="http://www.w3.org/2000/svg"><path d="M35.5 18.26c0 2.499-.16 4.353-.63 6.316-.47 1.97-1.26 4.068-2.544 7.052-.722 1.679-1.599 3.635-2.659 5.998-2.625 5.854-6.372 14.21-11.667 27.06-5.295-12.85-9.042-21.206-11.667-27.06-1.06-2.363-1.937-4.32-2.66-5.998-1.283-2.984-2.072-5.082-2.544-7.052C.66 22.613.5 20.759.5 18.26.5 8.445 8.342.5 18 .5c9.658 0 17.5 7.945 17.5 17.76Z" fill="#D56062" stroke="#C65658"/><ellipse cx="18" cy="18.261" rx="15.429" ry="15.652" fill="#fff"/><path d="M28.694 19.657c-.234.058-.426-.025-.582-.204a.942.942 0 0 1-.087-.122.81.81 0 0 0-.448-.35 15.19 15.19 0 0 0-.623-.188 1.167 1.167 0 0 1-.277-.103c-.165-.097-.205-.256-.106-.422a.64.64 0 0 1 .36-.272c.294-.103.59-.095.897-.024.484.073.854.352 1.168.722.11.131.191.28.181.463-.016.294-.27.446-.483.5Zm-2.056 2.655a9.609 9.609 0 0 1-2.358 2.704c-2.206 1.751-5.088 2.549-7.853 2.01-1.656-.323-3.23-1.078-4.56-2.16-1.407-1.143-2.42-2.69-3.031-4.402-.048-.135-.095-.28-.066-.42.165-.793 1.494-.1 1.912.037 3.547 1.152 7.59 1.003 11.257.68.92-.081 1.87-.277 2.765-.567.46-.149.911-.323 1.352-.52.38-.17.875-.57 1.304-.336.751.409-.44 2.487-.722 2.974ZM8.15 19.773c-.04.03-.078.063-.121.085-.206.109-.428.012-.496-.213a.564.564 0 0 1-.012-.274 1.42 1.42 0 0 1 .379-.711 1.64 1.64 0 0 1 .562-.41c.358-.152.735-.233 1.127-.17.186.03.348.11.448.286a.433.433 0 0 1-.024.494.84.84 0 0 1-.538.343c-.097.02-.195.033-.293.046-.27.038-.513.14-.734.301-.1.073-.198.15-.298.223Zm3.562-6.501a.52.52 0 0 1 .714-.207l.072.041c.156.088.307.187.462.268l.234.102.116.053.118.031c.079.02.156.044.233.067.078.008.155.017.232.028.078.018.154.004.23.003l.113-.002c.038-.002.074-.015.112-.02a2.29 2.29 0 0 0 .873-.333 3.306 3.306 0 0 0 .747-.66l.043-.049a.52.52 0 0 1 .675-.098c.245.157.319.487.164.736a3.412 3.412 0 0 1-.445.575c-.16.172-.338.33-.53.473-.385.283-.853.5-1.356.563-.062.008-.124.02-.187.023h-.19c-.125-.002-.252.005-.373-.021l-.366-.063a8.523 8.523 0 0 1-.345-.115l-.17-.06-.156-.082-.311-.163c-.193-.125-.371-.265-.555-.398a.537.537 0 0 1-.154-.692Zm8.67-.662a.501.501 0 0 1 .696.162l.04.064c.094.153.18.315.278.463l.163.205.08.102.094.085.183.17.201.134c.064.052.14.075.21.11l.107.05c.036.015.075.021.113.033.296.087.625.125.946.027.158-.05.322-.072.487-.116.083-.018.165-.04.248-.061.079-.02.174-.047.233-.056l.142-.02a.498.498 0 0 1 .465.194.513.513 0 0 1-.092.713 2.42 2.42 0 0 1-.63.363c-.218.088-.45.151-.69.165-.119.01-.241 0-.36.005-.12-.002-.243-.011-.364-.016a2.995 2.995 0 0 1-.72-.155c-.058-.02-.118-.036-.174-.061l-.166-.083c-.11-.057-.225-.106-.32-.183l-.296-.215-.256-.252-.126-.127-.106-.14-.21-.278c-.125-.192-.23-.391-.344-.588a.518.518 0 0 1 .167-.694Zm10.836 2.668c-.393-1.712-1.085-3.235-2.077-4.567a12.916 12.916 0 0 0-3.696-3.337c-1.472-.893-3.11-1.52-4.915-1.879a15.016 15.016 0 0 0-5.226-.138c-1.712.26-3.266.818-4.665 1.674s-2.599 2.002-3.6 3.437c-1 1.436-1.69 3.134-2.069 5.093-.379 1.96-.374 3.804.016 5.533.389 1.729 1.07 3.266 2.044 4.61.973 1.345 2.2 2.482 3.681 3.41a14.405 14.405 0 0 0 4.882 1.922c1.805.359 3.558.39 5.26.095a13.175 13.175 0 0 0 4.678-1.746c1.418-.87 2.629-2.03 3.633-3.481 1.003-1.452 1.695-3.157 2.074-5.117.38-1.96.372-3.796-.02-5.509" fill="#D56062"/></svg>