<svg width="146" height="147" viewBox="0 0 146 147" fill="none" xmlns="http://www.w3.org/2000/svg">
<g clip-path="url(#clip0_101_59)">
<path d="M110.412 89.2405C109.5 89.2176 108.877 88.7247 108.485 87.9225C108.403 87.7552 108.341 87.5762 108.287 87.3977C108.064 86.6685 107.622 86.1005 106.993 85.6878C106.306 85.2371 105.606 84.8046 104.901 84.3832C104.578 84.1904 104.257 83.9983 103.992 83.732C103.482 83.2188 103.493 82.6056 104.018 82.1065C104.461 81.6856 105.01 81.5229 105.605 81.4852C106.781 81.4105 107.861 81.7342 108.911 82.3002C110.607 83.049 111.687 84.4253 112.468 86.0739C112.744 86.6573 112.891 87.273 112.673 87.9233C112.323 88.9683 111.242 89.2612 110.412 89.2405ZM100.267 96.7508C97.0254 99.9162 93.1445 102.389 88.9707 104.135C79.1707 108.236 67.8396 108.22 58.2603 103.504C52.5216 100.679 47.5156 96.3789 43.7187 91.1463C39.7031 85.612 37.53 79.0201 36.9855 72.2324C36.9429 71.6978 36.9151 71.1317 37.1605 70.6546C38.5487 67.9582 42.7225 71.7937 44.1164 72.7025C55.9504 80.417 70.8818 83.9309 84.6161 86.4465C88.0564 87.0766 91.7275 87.3236 95.2871 87.176C97.1155 87.1001 98.9394 86.9243 100.749 86.6547C102.302 86.4236 104.509 85.4828 105.847 86.7542C108.19 88.9816 101.777 95.2767 100.267 96.7508ZM35.161 69.0559C34.9864 69.1228 34.8128 69.2012 34.6314 69.24C33.7724 69.4248 33.0544 68.852 33.0289 67.9711C33.0165 67.5459 33.1514 67.1607 33.2552 66.9745C33.7969 65.908 34.5251 65.298 35.3445 64.7898C36.1002 64.3209 36.9353 63.9915 37.8056 63.8784C39.2663 63.6885 40.7247 63.7745 42.0963 64.396C42.7476 64.6913 43.2609 65.1373 43.4525 65.8744C43.6381 66.5884 43.4318 67.1803 42.8779 67.6314C42.2111 68.1746 41.4234 68.3884 40.5679 68.3284C40.1948 68.3023 39.8234 68.2501 39.4524 68.2008C38.4283 68.0649 37.4353 68.1923 36.4702 68.5495C36.0314 68.7117 35.598 68.8887 35.161 69.0559ZM54.6164 49.19C55.3856 48.4048 56.6455 48.3917 57.4308 49.1612L57.6537 49.3797C58.1377 49.8536 58.5929 50.3604 59.0777 50.8074L59.8328 51.4127L60.2046 51.7182L60.6061 51.9504C60.8734 52.1026 61.1347 52.2636 61.3936 52.4252C61.6706 52.532 61.9437 52.6428 62.2149 52.7582C62.4795 52.9001 62.771 52.9259 63.0485 53.0004L63.4664 53.1049C63.6066 53.135 63.7531 53.127 63.895 53.1441C65.0265 53.2735 66.216 53.1789 67.417 52.8192C68.0106 52.6231 68.6159 52.4131 69.194 52.1186C69.488 51.9807 69.7695 51.822 70.0486 51.658C70.3116 51.5043 70.6297 51.3044 70.8012 51.1921L71.0068 51.0573C71.8109 50.5291 72.9023 50.6475 73.5721 51.3807C74.3154 52.1942 74.2585 53.4558 73.4452 54.1989C73.0302 54.5779 72.7267 54.8254 72.3565 55.0997C71.9966 55.3563 71.6304 55.6043 71.2491 55.8268C70.4957 56.2873 69.6886 56.675 68.8436 56.9973C67.1561 57.6334 65.2294 57.9444 63.3287 57.6683C63.0921 57.6354 62.8524 57.6187 62.6204 57.5647L61.9293 57.3768C61.4726 57.2415 61.0006 57.1409 60.5833 56.9233L59.3047 56.3308C58.9158 56.0871 58.5364 55.8296 58.1594 55.5705L57.5982 55.1791L57.1054 54.7311L56.1305 53.8287C55.5478 53.1847 55.0344 52.5016 54.4952 51.8399C53.8623 51.0649 53.8999 49.9214 54.6164 49.19ZM86.9762 55.4986C87.9901 55.1937 89.0591 55.7681 89.3642 56.7819L89.4451 57.0512C89.6405 57.6999 89.7963 58.3691 90.0073 59.0024L90.3996 59.9031L90.5946 60.3529L90.85 60.7516L91.3515 61.5496L91.9572 62.2325C92.1372 62.4832 92.3943 62.6422 92.6171 62.8382L92.9569 63.1261C93.0732 63.2177 93.2114 63.2793 93.3361 63.3589C94.3326 63.9703 95.4978 64.4388 96.7686 64.4073C97.3984 64.3862 98.0193 64.4681 98.6644 64.4775C98.9864 64.493 99.3077 64.4956 99.6334 64.5039C99.9409 64.5109 100.317 64.5086 100.541 64.538L101.079 64.6085C101.732 64.6961 102.321 65.1211 102.588 65.7747C102.984 66.7464 102.518 67.8556 101.546 68.2518C101.027 68.4637 100.648 68.5886 100.198 68.7003C99.7651 68.8038 99.3259 68.8858 98.8832 68.9268C98 69.0263 97.0897 69.0213 96.1996 68.8308C95.7536 68.7456 95.3144 68.5909 94.8746 68.4877C94.4358 68.3615 93.9985 68.2046 93.5614 68.0669C92.7005 67.7286 91.8505 67.3315 91.0831 66.7863C90.8901 66.6538 90.6856 66.5372 90.5051 66.3889L89.9784 65.9251C89.6351 65.6088 89.2624 65.3176 88.9893 64.9447L88.1189 63.871L87.4305 62.7073L87.0976 62.122L86.849 61.5138L86.3539 60.2986C86.0884 59.4818 85.8997 58.6557 85.6779 57.8336C85.4099 56.8368 85.9811 55.7981 86.9762 55.4986ZM123.972 75.9876C124.229 69.4203 123.202 63.2368 120.891 57.4402C118.577 51.6457 115.172 46.3976 110.674 41.7019C106.173 37.0042 100.802 33.1039 94.5554 29.9989C88.4168 26.9474 82.0903 25.0329 75.5776 24.2563C69.0615 23.4768 62.8236 23.9317 56.8622 25.6124C50.9001 27.2965 45.3767 30.2241 40.2992 34.3952C35.2179 38.5668 31.0163 43.9962 27.6941 50.6799C24.3707 57.3653 22.566 64.0188 22.2814 70.6422C21.9938 77.2642 22.9677 83.4889 25.1976 89.3127C27.4285 95.1369 30.7914 100.466 35.2924 105.299C39.7903 110.129 45.1083 114.072 51.2467 117.124C57.4936 120.229 63.8731 122.1 70.3889 122.744C76.9019 123.387 83.1815 122.851 89.2263 121.14C95.2694 119.429 100.846 116.46 105.954 112.235C111.059 108.008 115.277 102.553 118.6 95.8679C121.922 89.1843 123.711 82.5555 123.972 75.9876Z" fill="#D56062"/>
</g>
<defs>
<clipPath id="clip0_101_59">
<rect width="106.826" height="106.826" fill="white" transform="translate(53.4131 0.627838) rotate(30)"/>
</clipPath>
</defs>
</svg>
