<svg width="376" height="281" viewBox="0 0 376 281" fill="none" xmlns="http://www.w3.org/2000/svg">
<ellipse cx="142.995" cy="206.727" rx="77.3397" ry="74.2043" fill="white"/>
<path d="M204.568 209.048C203.253 209.503 202.1 209.132 201.111 208.196C200.904 208.001 200.721 207.779 200.547 207.553C199.84 206.631 198.905 206.055 197.786 205.803C196.563 205.526 195.333 205.283 194.1 205.058C193.536 204.956 192.975 204.853 192.454 204.614C191.451 204.154 191.14 203.273 191.623 202.279C192.03 201.441 192.726 200.915 193.556 200.544C195.196 199.808 196.912 199.692 198.713 199.94C201.536 200.102 203.813 201.49 205.81 203.426C206.517 204.112 207.056 204.912 207.092 205.957C207.151 207.637 205.764 208.634 204.568 209.048V209.048ZM194.097 225.198C191.16 231.452 186.94 237.058 181.914 241.784C170.111 252.88 153.922 258.915 137.72 257.305C128.014 256.339 118.566 252.876 110.346 247.433C101.652 241.677 95.0236 233.426 90.6164 224.024C90.2695 223.283 89.9267 222.489 90.0223 221.677C90.5627 217.084 98.5739 220.33 101.051 220.882C122.075 225.571 145.278 222.604 166.236 218.852C171.486 217.912 176.86 216.302 181.865 214.187C184.435 213.102 186.946 211.875 189.386 210.522C191.48 209.362 194.129 206.838 196.719 207.939C201.257 209.866 195.465 222.285 194.097 225.198ZM86.312 220.463C86.0984 220.652 85.8924 220.857 85.6545 221.009C84.5261 221.733 83.1945 221.298 82.687 220.054C82.4422 219.454 82.4287 218.831 82.4778 218.51C82.6807 216.697 83.3943 215.437 84.2928 214.273C85.1213 213.199 86.1375 212.282 87.3199 211.655C89.3045 210.603 91.4332 209.946 93.7242 210.101C94.8124 210.174 95.7836 210.536 96.4515 211.486C97.0982 212.406 97.1204 213.362 96.5706 214.303C95.9086 215.435 94.8982 216.161 93.6442 216.533C93.0975 216.695 92.5394 216.82 91.983 216.947C90.4478 217.301 89.0982 218.014 87.9106 219.04C87.3708 219.506 86.8469 219.991 86.312 220.463ZM103.472 181.69C104.151 180.158 105.943 179.465 107.476 180.144L107.911 180.337C108.856 180.755 109.777 181.235 110.708 181.614L112.11 182.075L112.804 182.313L113.502 182.429C113.965 182.503 114.424 182.594 114.88 182.686C115.333 182.691 115.782 182.703 116.231 182.722C116.685 182.783 117.115 182.665 117.551 182.623L118.204 182.548C118.42 182.516 118.625 182.426 118.837 182.375C120.522 181.955 122.17 181.184 123.693 180.028C124.435 179.43 125.187 178.807 125.856 178.077C126.202 177.723 126.519 177.346 126.83 176.963C127.123 176.602 127.471 176.147 127.656 175.894L127.877 175.592C128.743 174.408 130.365 173.993 131.714 174.682C133.21 175.446 133.803 177.278 133.039 178.774C132.649 179.537 132.348 180.053 131.966 180.643C131.589 181.202 131.199 181.752 130.774 182.273C129.944 183.334 128.998 184.319 127.964 185.232C125.895 187.042 123.309 188.517 120.447 189.139C120.092 189.218 119.741 189.323 119.381 189.369L118.293 189.471C117.569 189.522 116.841 189.631 116.128 189.543L113.986 189.381C113.3 189.241 112.621 189.075 111.944 188.907L110.933 188.649L109.99 188.272L108.115 187.505C106.939 186.897 105.84 186.196 104.716 185.539C103.398 184.771 102.84 183.118 103.472 181.69V181.69ZM153.057 173.395C154.342 172.417 156.176 172.666 157.153 173.951L157.413 174.292C158.039 175.114 158.619 175.986 159.259 176.778L160.301 177.854L160.82 178.392L161.398 178.825L162.541 179.696L163.771 180.348C164.162 180.609 164.614 180.699 165.037 180.86L165.677 181.089C165.892 181.158 166.122 181.172 166.342 181.219C168.092 181.559 170.007 181.605 171.805 180.881C172.693 180.514 173.624 180.298 174.55 179.967C175.018 179.817 175.478 179.649 175.948 179.486C176.39 179.332 176.926 179.128 177.262 179.05L178.069 178.863C179.047 178.639 180.116 178.931 180.847 179.721C181.932 180.897 181.859 182.73 180.684 183.816C180.056 184.396 179.581 184.777 178.998 185.177C178.435 185.556 177.852 185.909 177.241 186.204C176.033 186.818 174.731 187.298 173.358 187.502C172.675 187.618 171.966 187.632 171.282 187.72C170.588 187.775 169.88 187.784 169.182 187.822C167.772 187.799 166.346 187.686 164.958 187.318C164.612 187.232 164.257 187.175 163.92 187.06L162.92 186.679C162.261 186.411 161.573 186.194 160.983 185.808L159.166 184.74L157.561 183.446L156.772 182.789L156.092 182.053L154.735 180.582C153.919 179.558 153.208 178.479 152.452 177.424C151.536 176.143 151.796 174.355 153.057 173.395V173.395ZM216.845 182.871C213.7 173.355 208.927 165.074 202.527 158.032C196.124 150.995 188.456 145.32 179.521 141.02C170.581 136.718 160.826 134.021 150.245 132.927C139.847 131.852 129.788 132.501 120.073 134.874C110.35 137.246 101.686 141.231 94.0711 146.819C86.4578 152.413 80.1356 159.547 75.1152 168.218C70.0893 176.893 66.9926 186.893 65.8223 198.214C64.6517 209.539 65.6322 220.005 68.7677 229.616C71.898 239.226 76.6175 247.595 82.9162 254.719C89.2162 261.844 96.8683 267.654 105.88 272.148C114.887 276.642 124.589 279.43 134.988 280.506C145.569 281.6 155.679 280.859 165.329 278.294C174.973 275.728 183.654 271.605 191.372 265.93C199.087 260.255 205.463 253.035 210.498 244.269C215.528 235.502 218.634 225.458 219.805 214.133C220.975 202.812 219.985 192.39 216.845 182.871" fill="#D56062"/>
<ellipse cx="328.506" cy="157.606" rx="74.7268" ry="72.114" fill="white"/>
<path d="M380.532 190.37C380.48 190.694 380.273 191.288 379.854 191.79C378.981 192.83 377.565 192.837 376.703 191.793C376.519 191.572 376.388 191.312 376.239 191.064C375.872 190.445 375.515 189.816 375.141 189.201C374.314 187.847 373.237 186.744 371.87 185.93C371.374 185.635 370.876 185.343 370.398 185.019C369.307 184.274 368.56 183.263 368.272 181.969C368.033 180.894 368.352 179.982 369.259 179.297C370.194 178.588 371.239 178.54 372.309 178.806C374.56 179.365 376.405 180.654 377.991 182.28C378.933 183.248 379.629 184.444 380.093 185.733C380.598 187.13 380.896 188.563 380.532 190.37V190.37ZM372.295 191.086C372.136 191.897 371.561 192.555 370.997 193.16C363.854 200.844 354.928 206.735 344.787 209.587C335.2 212.284 325.04 212.698 315.404 210.629C299.321 207.176 285.61 196.369 277.683 182.049C274.307 175.95 271.979 169.253 271.085 162.33C270.669 159.105 268.932 145.368 273.893 144.916C276.724 144.657 278.494 147.903 280.149 149.666C282.079 151.721 284.116 153.677 286.253 155.515C290.415 159.095 295.087 162.304 299.848 164.83C318.852 174.912 340.255 184.932 361.929 186.915C364.484 187.148 373.192 186.501 372.295 191.086V191.086ZM269.588 143.807C268.348 144.402 267.124 144.402 265.999 143.558C264.976 142.791 263.95 141.404 264.525 139.806C264.883 138.812 265.649 138.208 266.541 137.767C269.06 136.521 271.68 135.889 274.446 136.605C276.254 136.923 277.87 137.564 279.22 138.779C279.903 139.392 280.411 140.114 280.544 141.045C280.701 142.15 280.13 142.902 279.023 143.035C278.447 143.104 277.877 143.029 277.302 142.954C276.047 142.789 274.788 142.643 273.526 142.531C272.371 142.429 271.295 142.693 270.329 143.362C270.093 143.526 269.847 143.683 269.588 143.807V143.807ZM297.804 121.957C298.743 121.419 299.856 121.462 300.728 121.972L301.445 122.395C301.743 122.571 302.196 122.929 302.574 123.211C302.975 123.508 303.366 123.808 303.77 124.093C304.558 124.691 305.385 125.178 306.127 125.798C307.632 127.036 309.483 127.57 311.264 127.772C311.49 127.793 311.715 127.849 311.942 127.848L312.625 127.821C313.079 127.795 313.539 127.845 313.994 127.712L315.37 127.459L316.729 126.968L317.414 126.728L318.075 126.368L319.399 125.65C320.252 125.084 321.072 124.422 321.92 123.823L322.272 123.574C323.598 122.637 325.432 122.952 326.369 124.277C327.289 125.579 326.998 127.373 325.733 128.324C324.689 129.108 323.682 129.929 322.59 130.665L320.844 131.666L319.97 132.166L319.015 132.559L317.085 133.315L315.019 133.791C314.337 133.984 313.612 133.984 312.899 134.042L311.825 134.105C311.466 134.114 311.109 134.062 310.751 134.04C309.309 133.975 307.907 133.652 306.548 133.248C305.889 133.002 305.213 132.778 304.564 132.517C303.934 132.226 303.258 131.999 302.638 131.68C301.383 131.071 300.279 130.217 299.305 129.263C298.809 128.796 298.356 128.282 297.93 127.748C297.492 127.189 297.151 126.68 296.724 125.934C295.924 124.538 296.408 122.757 297.804 121.957V121.957ZM346.453 131.955C347.955 131.701 349.385 132.588 349.859 133.985L349.981 134.343C350.081 134.64 350.275 135.182 350.448 135.616C350.632 136.078 350.822 136.535 351.047 136.979C351.466 137.881 351.999 138.706 352.532 139.503C353.644 141.072 354.994 142.309 356.483 143.22C356.67 143.334 356.84 143.482 357.037 143.578L357.639 143.846C358.048 144.018 358.422 144.262 358.875 144.34C359.312 144.457 359.748 144.581 360.184 144.713C360.648 144.763 361.116 144.814 361.583 144.883L362.286 144.981L363.027 144.963L364.509 144.945C365.516 144.862 366.544 144.679 367.576 144.563L368.054 144.51C369.726 144.321 371.239 145.527 371.426 147.201C371.603 148.762 370.568 150.179 369.072 150.518C367.794 150.809 366.531 151.149 365.218 151.377L363.189 151.548L362.168 151.624L361.122 151.567C360.423 151.524 359.72 151.477 359.021 151.404L356.916 150.913C356.206 150.783 355.541 150.458 354.863 150.191L353.848 149.765C353.519 149.612 353.211 149.406 352.896 149.222C350.337 147.761 348.305 145.567 346.865 143.205C346.148 142.018 345.538 140.788 345.064 139.52C344.811 138.891 344.604 138.246 344.41 137.596C344.223 136.915 344.091 136.329 343.946 135.48C343.665 133.814 344.787 132.236 346.453 131.955V131.955ZM402.48 141.928C400.278 132.094 396.321 123.333 390.618 115.652C384.909 107.974 377.797 101.535 369.283 96.3457C360.766 91.1539 351.272 87.4866 340.792 85.3421C330.495 83.2342 320.364 82.8855 310.406 84.2964C300.442 85.7042 291.377 88.8328 283.202 93.6686C275.029 98.51 267.994 105.022 262.11 113.201C256.22 121.382 252.129 131.082 249.834 142.294C247.539 153.51 247.482 164.081 249.665 174.008C251.844 183.936 255.736 192.778 261.332 200.532C266.93 208.286 274.01 214.861 282.582 220.253C291.148 225.642 300.581 229.395 310.879 231.503C321.359 233.647 331.551 233.911 341.46 232.303C351.366 230.692 360.461 227.428 368.746 222.515C377.028 217.601 384.126 211.008 390.033 202.736C395.94 194.463 400.043 184.72 402.338 173.505C404.634 162.292 404.675 151.764 402.48 141.928" fill="#F37748"/>
<ellipse cx="206" cy="51.5" rx="64" ry="61.5" fill="white"/>
<path d="M262.934 54.9482C261.75 55.354 260.714 55.0179 259.827 54.1741C259.643 53.9982 259.478 53.7977 259.323 53.5942C258.689 52.7632 257.85 52.2438 256.844 52.0136C255.746 51.7622 254.641 51.5403 253.533 51.3353C253.026 51.2418 252.522 51.148 252.054 50.9319C251.153 50.5161 250.876 49.7226 251.313 48.8307C251.681 48.0783 252.309 47.6074 253.055 47.275C254.531 46.6179 256.074 46.5182 257.693 46.7453C260.23 46.898 262.274 48.1517 264.064 49.8977C264.698 50.5161 265.181 51.237 265.211 52.1767C265.259 53.6869 264.01 54.5788 262.934 54.9482V54.9482ZM253.479 69.4409C250.823 75.0557 247.015 80.0855 242.484 84.3213C231.846 94.2665 217.275 99.6525 202.715 98.1623C193.991 97.2697 185.506 94.1318 178.13 89.2184C170.328 84.0218 164.39 76.5868 160.452 68.1231C160.142 67.4563 159.836 66.742 159.924 66.0121C160.422 61.8843 167.616 64.8221 169.841 65.3249C188.73 69.5936 209.597 66.9854 228.448 63.6654C233.17 62.8337 238.006 61.3996 242.51 59.5116C244.823 58.5418 247.084 57.4453 249.281 56.2356C251.166 55.1976 253.554 52.9356 255.88 53.9314C259.955 55.6757 254.716 66.8258 253.479 69.4409ZM156.591 64.9115C156.399 65.0804 156.213 65.2639 155.999 65.4007C154.983 66.0478 153.787 65.6541 153.334 64.5344C153.115 63.9939 153.105 63.4344 153.149 63.1457C153.337 61.5163 153.982 60.3851 154.792 59.3409C155.54 58.378 156.455 57.5561 157.52 56.9955C159.307 56.0548 161.222 55.4694 163.281 55.6137C164.259 55.6823 165.132 56.0105 165.73 56.8664C166.309 57.6956 166.326 58.5546 165.83 59.3987C165.232 60.4149 164.321 61.0655 163.193 61.3968C162.701 61.5409 162.199 61.6513 161.699 61.7649C160.318 62.0786 159.102 62.7163 158.032 63.6356C157.546 64.0538 157.073 64.488 156.591 64.9115V64.9115ZM172.117 30.0977C172.731 28.7215 174.344 28.1034 175.72 28.7176L176.111 28.8918C176.959 29.2702 177.786 29.7044 178.622 30.0475L179.881 30.4651L180.505 30.6804L181.132 30.7874C181.548 30.8553 181.961 30.9377 182.371 31.0218C182.777 31.027 183.181 31.0388 183.585 31.0578C183.992 31.1139 184.379 31.008 184.772 30.9713L185.359 30.9062C185.553 30.8781 185.737 30.7978 185.928 30.7521C187.444 30.3789 188.928 29.6895 190.3 28.6543C190.969 28.119 191.647 27.5602 192.249 26.9061C192.561 26.5886 192.847 26.2504 193.128 25.9066C193.392 25.5835 193.706 25.1746 193.873 24.9485L194.073 24.6771C194.854 23.6145 196.313 23.2461 197.524 23.8687C198.867 24.5594 199.396 26.2081 198.705 27.5512C198.353 28.236 198.081 28.6989 197.736 29.2283C197.396 29.73 197.044 30.2231 196.66 30.6912C195.911 31.6426 195.059 32.5258 194.126 33.3433C192.261 34.9657 189.933 36.2849 187.359 36.8371C187.039 36.9074 186.723 37.0006 186.399 37.0414L185.421 37.1301C184.77 37.174 184.115 37.2699 183.475 37.1893L181.549 37.038C180.933 36.9102 180.323 36.7603 179.715 36.6073L178.806 36.3718L177.959 36.0315L176.276 35.3366C175.22 34.7868 174.234 34.1542 173.226 33.5607C172.042 32.8669 171.545 31.3795 172.117 30.0977V30.0977ZM216.715 22.7659C217.873 21.8899 219.521 22.1184 220.396 23.2756L220.629 23.583C221.19 24.3236 221.709 25.1092 222.282 25.8224L223.216 26.7929L223.681 27.278L224.2 27.6686L225.225 28.4545L226.329 29.0435C226.68 29.2796 227.087 29.3613 227.466 29.507L228.04 29.7148C228.234 29.7771 228.441 29.7903 228.639 29.8329C230.211 30.1434 231.932 30.1898 233.551 29.5427C234.35 29.2152 235.187 29.0244 236.02 28.7284C236.442 28.5947 236.856 28.4448 237.279 28.3001C237.677 28.1623 238.159 27.9798 238.461 27.9109L239.187 27.7447C240.068 27.5456 241.027 27.8108 241.682 28.5237C242.655 29.5832 242.585 31.2313 241.525 32.2042C240.959 32.7243 240.532 33.0656 240.007 33.4236C239.499 33.7633 238.974 34.0784 238.425 34.3422C237.337 34.8917 236.165 35.3196 234.93 35.4993C234.316 35.6025 233.678 35.6136 233.063 35.6904C232.439 35.7375 231.802 35.7444 231.175 35.7763C229.907 35.7524 228.625 35.6475 227.379 35.3127C227.068 35.2344 226.749 35.1825 226.446 35.0779L225.548 34.7331C224.956 34.4904 224.338 34.2941 223.81 33.9451L222.178 32.9805L220.738 31.8133L220.031 31.2199L219.421 30.5568L218.205 29.2314C217.474 28.3084 216.838 27.3365 216.161 26.3861C215.341 25.2328 215.579 23.6252 216.715 22.7659V22.7659ZM274.037 31.4463C271.233 22.8836 266.964 15.4264 261.228 9.07963C255.489 2.73733 248.61 -2.38345 240.588 -6.27165C232.563 -10.1633 223.799 -12.6112 214.289 -13.6222C204.944 -14.6159 195.9 -14.0584 187.159 -11.9464C178.413 -9.84129 170.613 -6.27858 163.754 -1.27551C156.895 3.73448 151.193 10.1311 146.658 17.9145C142.118 25.7002 139.309 34.6825 138.228 44.8576C137.146 55.0352 138.002 64.4472 140.796 73.0954C143.586 81.7429 147.807 89.278 153.452 95.6988C159.098 102.119 165.962 107.363 174.053 111.427C182.138 115.489 190.854 118.02 200.199 119.012C209.709 120.023 218.801 119.384 227.482 117.103C236.159 114.821 243.973 111.136 250.926 106.054C257.876 100.971 263.626 94.495 268.175 86.6272C272.719 78.7587 275.537 69.7369 276.618 59.5594C277.699 49.3843 276.835 40.0117 274.037 31.4463" fill="#7DC889"/>
<ellipse cx="57.5" cy="70.5" rx="52.5" ry="50.5" fill="white"/>
<path d="M102.608 66.6655C102.403 66.6205 102.207 66.5311 102.01 66.4546C101.516 66.2631 101.027 66.0606 100.531 65.8747C99.4405 65.4658 98.3173 65.3166 97.1578 65.4655C96.7374 65.5191 96.3168 65.5762 95.8947 65.6039C94.9259 65.6677 94.0354 65.4218 93.2838 64.8038C92.6592 64.2903 92.4286 63.6193 92.6422 62.8122C92.8627 61.9789 93.4458 61.4768 94.1843 61.1458C95.7399 60.4495 97.3908 60.3595 99.043 60.5815C100.027 60.7141 100.971 61.0911 101.824 61.6254C102.748 62.2046 103.57 62.8985 104.177 64.1085C104.294 64.3198 104.445 64.7564 104.429 65.2376C104.395 66.2341 103.58 66.8787 102.608 66.6655ZM99.929 70.0402C99.2788 77.7193 96.7866 85.1689 92.2143 91.4118C87.8908 97.3147 82.2036 102.156 75.6948 105.325C64.83 110.614 52.0062 110.575 40.9357 105.885C36.2207 103.888 31.8412 101.069 28.1881 97.4709C26.4867 95.7951 19.2605 88.6385 21.9237 86.1293C23.444 84.6973 25.9373 85.773 27.6934 86.0424C29.7403 86.3564 31.8035 86.5649 33.8726 86.6597C37.9003 86.8446 42.0561 86.5836 45.953 85.8876C61.5089 83.1098 78.4252 79.2081 91.8566 70.5364C93.4389 69.515 98.1816 65.195 99.7389 68.254C100.015 68.7948 99.9799 69.4353 99.929 70.0402V70.0402ZM20.6319 84.9165C19.9176 85.3808 19.4146 86.0213 19.1591 86.8453C19.0967 87.0472 19.0257 87.2494 18.9323 87.4384C18.4846 88.3442 17.7772 88.8988 16.7444 88.9203C15.8051 88.9397 14.5837 88.6025 14.1924 87.418C13.9488 86.6812 14.1181 85.9853 14.4341 85.3261C15.3262 83.4644 16.555 81.9122 18.4784 81.0733C19.6687 80.4379 20.8933 80.0772 22.2243 80.1675C22.897 80.2132 23.5174 80.3998 24.0164 80.8787C24.6081 81.4462 24.6181 82.14 24.0378 82.7182C23.7369 83.0184 23.3727 83.2341 23.0064 83.4509C22.2056 83.9242 21.412 84.4099 20.6319 84.9165V84.9165ZM25.3507 62.0225C25.6499 61.2857 26.3129 60.8062 27.048 60.7068L27.6542 60.6265C27.9066 60.5929 28.3304 60.5946 28.6763 60.5867C29.0437 60.577 29.4051 60.5735 29.768 60.5555C30.4944 60.5441 31.1938 60.4509 31.9032 60.4734C33.3345 60.507 34.6464 59.9776 35.7679 59.2873C35.9081 59.1976 36.0635 59.128 36.1944 59.0248L36.577 58.7C36.8277 58.4788 37.1168 58.2994 37.3193 58.0166L38.0004 57.2465L38.564 56.347L38.8511 55.8976L39.0702 55.3907L39.5106 54.376C39.7475 53.662 39.922 52.9083 40.1408 52.1774L40.2318 51.8737C40.5739 50.7315 41.7771 50.0827 42.9196 50.4247C44.0407 50.7606 44.6854 51.9295 44.3853 53.053C44.1367 53.9792 43.9255 54.9098 43.6277 55.8301L43.0716 57.1998L42.7926 57.885L42.4186 58.5449L41.6448 59.8565L40.666 61.0672C40.3589 61.4876 39.9396 61.8161 39.5536 62.1731L38.9612 62.6963C38.7579 62.8635 38.5277 62.9951 38.3106 63.1446C37.4471 63.7599 36.4901 64.2083 35.5213 64.5905C35.029 64.7463 34.5366 64.9239 34.0426 65.0666C33.5475 65.1836 33.053 65.3584 32.5507 65.455C31.5487 65.6711 30.5231 65.678 29.528 65.5672C29.0295 65.5215 28.5347 65.4301 28.0465 65.3141C27.5396 65.1888 27.1124 65.0489 26.5276 64.8111C25.4324 64.3661 24.9055 63.1176 25.3507 62.0225V62.0225ZM58.0109 45.7665C58.764 44.9397 59.9931 44.8047 60.8999 45.3985L61.1315 45.5501C61.3247 45.6761 61.6837 45.9009 61.9801 46.0736C62.2948 46.2578 62.612 46.4361 62.9433 46.5912C63.595 46.9219 64.277 47.1577 64.9456 47.3775C66.299 47.7809 67.639 47.8858 68.9131 47.7383C69.0731 47.7186 69.2382 47.7276 69.3958 47.6933L69.8666 47.5752C70.1789 47.4907 70.5075 47.461 70.8049 47.301C71.1103 47.1705 71.4178 47.0455 71.7297 46.9247C72.0209 46.7426 72.3148 46.5604 72.6161 46.3887L73.0679 46.127L73.4861 45.7817L74.3358 45.0993C74.8811 44.5948 75.3929 44.0232 75.9371 43.4886L76.1885 43.2421C77.0717 42.3748 78.4906 42.3876 79.3583 43.2709C80.1667 44.0935 80.2103 45.3815 79.4985 46.255C78.8926 47.0012 78.3151 47.7715 77.66 48.4976L76.5631 49.5155L76.0085 50.021L75.3769 50.4625C74.9528 50.755 74.5259 51.0455 74.0883 51.3208L72.649 51.9897C72.1795 52.2355 71.6476 52.3498 71.1335 52.5028L70.3555 52.7154C70.0941 52.7767 69.8244 52.7957 69.5578 52.8335C67.4174 53.1471 65.2468 52.7995 63.3453 52.0856C62.3932 51.7238 61.4833 51.2886 60.634 50.7706C60.2043 50.5206 59.7916 50.2419 59.3858 49.9535C58.9682 49.645 58.6258 49.3666 58.1581 48.9408C57.2409 48.105 57.1751 46.6837 58.0109 45.7665V45.7665ZM115.274 66.9546C114.94 59.4964 112.901 52.0036 109.148 44.4785C105.396 36.9552 100.652 30.8477 94.9259 26.1552C89.1972 21.4662 82.9425 18.1915 76.1639 16.3339C69.3843 14.4809 62.3568 13.9782 55.0828 14.834C47.805 15.6903 40.6539 17.8702 33.6222 21.3772C26.7128 24.8232 20.6974 29.21 15.5784 34.5364C10.4544 39.8639 6.62922 45.7793 4.09306 52.2788C1.55988 58.7807 0.441794 65.7324 0.74409 73.1276C1.04421 80.5262 3.07223 87.9882 6.82425 95.5112C10.5774 103.037 15.3326 109.175 21.0924 113.927C26.8492 118.68 33.1053 122.031 39.8534 123.98C46.6025 125.928 53.6747 126.523 61.0744 125.758C68.4689 124.994 75.6234 122.891 82.5329 119.445C89.5642 115.938 95.5765 111.474 100.579 106.055C105.577 100.637 109.358 94.6293 111.924 88.035C114.488 81.4417 115.605 74.4145 115.274 66.9546" fill="#ECC30B"/>
</svg>
