<svg width="376" height="281" fill="none" xmlns="http://www.w3.org/2000/svg"><ellipse cx="142.995" cy="206.727" rx="77.34" ry="74.204" fill="#fff"/><path d="M204.568 209.048c-1.315.455-2.468.084-3.457-.852a5.397 5.397 0 0 1-.564-.643c-.707-.922-1.642-1.498-2.761-1.75a89.034 89.034 0 0 0-3.686-.745c-.564-.102-1.125-.205-1.646-.444-1.003-.46-1.314-1.341-.831-2.335.407-.838 1.103-1.364 1.933-1.735 1.64-.736 3.356-.852 5.157-.604 2.823.162 5.1 1.55 7.097 3.486.707.686 1.246 1.486 1.282 2.531.059 1.68-1.328 2.677-2.524 3.091Zm-10.471 16.15c-2.937 6.254-7.157 11.86-12.183 16.586-11.803 11.096-27.992 17.131-44.194 15.521-9.706-.966-19.154-4.429-27.374-9.872-8.694-5.756-15.322-14.007-19.73-23.409-.347-.741-.69-1.535-.594-2.347.54-4.593 8.552-1.347 11.029-.795 21.024 4.689 44.227 1.722 65.185-2.03 5.25-.94 10.624-2.55 15.629-4.665a78.388 78.388 0 0 0 7.521-3.665c2.094-1.16 4.743-3.684 7.333-2.583 4.538 1.927-1.254 14.346-2.622 17.259Zm-107.785-4.735c-.214.189-.42.394-.657.546-1.129.724-2.46.289-2.968-.955-.245-.6-.258-1.223-.21-1.544.204-1.813.917-3.073 1.816-4.237.828-1.074 1.844-1.991 3.027-2.618 1.985-1.052 4.113-1.709 6.404-1.554 1.088.073 2.06.435 2.727 1.385.647.92.67 1.876.12 2.817-.662 1.132-1.673 1.858-2.927 2.23-.547.162-1.105.287-1.661.414-1.535.354-2.885 1.067-4.072 2.093-.54.466-1.064.951-1.599 1.423Zm17.16-38.773a3.035 3.035 0 0 1 4.004-1.546l.435.193c.945.418 1.866.898 2.797 1.277l1.402.461.694.238.698.116c.463.074.922.165 1.378.257.453.005.902.017 1.351.036.454.061.884-.057 1.32-.099l.653-.075c.216-.032.421-.122.633-.173a13.355 13.355 0 0 0 4.856-2.347c.742-.598 1.494-1.221 2.163-1.951.346-.354.663-.731.974-1.114.293-.361.641-.816.826-1.069l.221-.302a3.043 3.043 0 0 1 5.162 3.182c-.39.763-.691 1.279-1.073 1.869a22.23 22.23 0 0 1-1.192 1.63 22.263 22.263 0 0 1-2.81 2.959c-2.069 1.81-4.655 3.285-7.517 3.907-.355.079-.706.184-1.066.23l-1.088.102c-.724.051-1.452.16-2.165.072l-2.142-.162a49.982 49.982 0 0 1-2.042-.474l-1.011-.258-.943-.377-1.875-.767c-1.176-.608-2.275-1.309-3.399-1.966a3.036 3.036 0 0 1-1.244-3.849Zm49.585-8.295a2.922 2.922 0 0 1 4.096.556l.26.341c.626.822 1.206 1.694 1.846 2.486l1.042 1.076.519.538.578.433 1.143.871 1.23.652c.391.261.843.351 1.266.512l.64.229c.215.069.445.083.665.13 1.75.34 3.665.386 5.463-.338.888-.367 1.819-.583 2.745-.914.468-.15.928-.318 1.398-.481.442-.154.978-.358 1.314-.436l.807-.187a2.9 2.9 0 0 1 2.615 4.953 13.983 13.983 0 0 1-3.443 2.388c-1.208.614-2.51 1.094-3.883 1.298-.683.116-1.392.13-2.076.218-.694.055-1.402.064-2.1.102-1.41-.023-2.836-.136-4.224-.504-.346-.086-.701-.143-1.038-.258l-1-.381c-.659-.268-1.347-.485-1.937-.871l-1.817-1.068-1.605-1.294-.789-.657-.68-.736-1.357-1.471c-.816-1.024-1.527-2.103-2.283-3.158a2.927 2.927 0 0 1 .605-4.029Zm63.788 9.476c-3.145-9.516-7.918-17.797-14.318-24.839-6.403-7.037-14.071-12.712-23.006-17.012-8.94-4.302-18.695-6.999-29.276-8.093-10.398-1.075-20.457-.426-30.172 1.947-9.723 2.372-18.387 6.357-26.002 11.945-7.613 5.594-13.935 12.728-18.956 21.399-5.026 8.675-8.122 18.675-9.293 29.996-1.17 11.325-.19 21.791 2.946 31.402 3.13 9.61 7.85 17.979 14.148 25.103 6.3 7.125 13.952 12.935 22.964 17.429 9.007 4.494 18.709 7.282 29.108 8.358 10.581 1.094 20.691.353 30.341-2.212 9.644-2.566 18.325-6.689 26.043-12.364 7.715-5.675 14.091-12.895 19.126-21.661 5.03-8.767 8.136-18.811 9.307-30.136 1.17-11.321.18-21.743-2.96-31.262" fill="#D56062"/><ellipse cx="328.506" cy="157.606" rx="74.727" ry="72.114" fill="#fff"/><path d="M380.532 190.37c-.052.324-.259.918-.678 1.42-.873 1.04-2.289 1.047-3.151.003-.184-.221-.315-.481-.464-.729-.367-.619-.724-1.248-1.098-1.863-.827-1.354-1.904-2.457-3.271-3.271-.496-.295-.994-.587-1.472-.911-1.091-.745-1.838-1.756-2.126-3.05-.239-1.075.08-1.987.987-2.672.935-.709 1.98-.757 3.05-.491 2.251.559 4.096 1.848 5.682 3.474.942.968 1.638 2.164 2.102 3.453.505 1.397.803 2.83.439 4.637Zm-8.237.716c-.159.811-.734 1.469-1.298 2.074-7.143 7.684-16.069 13.575-26.21 16.427-9.587 2.697-19.747 3.111-29.383 1.042-16.083-3.453-29.794-14.26-37.721-28.58-3.376-6.099-5.704-12.796-6.598-19.719-.416-3.225-2.153-16.962 2.808-17.414 2.831-.259 4.601 2.987 6.256 4.75a79.494 79.494 0 0 0 6.104 5.849c4.162 3.58 8.834 6.789 13.595 9.315 19.004 10.082 40.407 20.102 62.081 22.085 2.555.233 11.263-.414 10.366 4.171Zm-102.707-47.279c-1.24.595-2.464.595-3.589-.249-1.023-.767-2.049-2.154-1.474-3.752.358-.994 1.124-1.598 2.016-2.039 2.519-1.246 5.139-1.878 7.905-1.162 1.808.318 3.424.959 4.774 2.174.683.613 1.191 1.335 1.324 2.266.157 1.105-.414 1.857-1.521 1.99-.576.069-1.146-.006-1.721-.081a90.045 90.045 0 0 0-3.776-.423c-1.155-.102-2.231.162-3.197.831a5.407 5.407 0 0 1-.741.445Zm28.216-21.85a2.915 2.915 0 0 1 2.924.015l.717.423c.298.176.751.534 1.129.816.401.297.792.597 1.196.882.788.598 1.615 1.085 2.357 1.705 1.505 1.238 3.356 1.772 5.137 1.974.226.021.451.077.678.076l.683-.027c.454-.026.914.024 1.369-.109l1.376-.253 1.359-.491.685-.24.661-.36 1.324-.718c.853-.566 1.673-1.228 2.521-1.827l.352-.249a2.94 2.94 0 0 1 4.097.703 2.943 2.943 0 0 1-.636 4.047c-1.044.784-2.051 1.605-3.143 2.341l-1.746 1.001-.874.5-.955.393-1.93.756-2.066.476c-.682.193-1.407.193-2.12.251l-1.074.063c-.359.009-.716-.043-1.074-.065-1.442-.065-2.844-.388-4.203-.792-.659-.246-1.335-.47-1.984-.731-.63-.291-1.306-.518-1.926-.837-1.255-.609-2.359-1.463-3.333-2.417a14.02 14.02 0 0 1-2.581-3.329 2.915 2.915 0 0 1 1.08-3.977Zm48.649 9.998a3.06 3.06 0 0 1 3.406 2.03l.122.358c.1.297.294.839.467 1.273.184.462.374.919.599 1.363.419.902.952 1.727 1.485 2.524a13.43 13.43 0 0 0 3.951 3.717c.187.114.357.262.554.358l.602.268c.409.172.783.416 1.236.494.437.117.873.241 1.309.373.464.05.932.101 1.399.17l.703.098.741-.018 1.482-.018c1.007-.083 2.035-.266 3.067-.382l.478-.053a3.05 3.05 0 0 1 1.018 6.008c-1.278.291-2.541.631-3.854.859l-2.029.171-1.021.076-1.046-.057a49.496 49.496 0 0 1-2.101-.163l-2.105-.491c-.71-.13-1.375-.455-2.053-.722l-1.015-.426c-.329-.153-.637-.359-.952-.543-2.559-1.461-4.591-3.655-6.031-6.017a22.134 22.134 0 0 1-1.801-3.685 21.994 21.994 0 0 1-.654-1.924 20.268 20.268 0 0 1-.464-2.116 3.058 3.058 0 0 1 2.507-3.525Zm56.027 9.973c-2.202-9.834-6.159-18.595-11.862-26.276-5.709-7.678-12.821-14.117-21.335-19.306-8.517-5.192-18.011-8.86-28.491-11.004-10.297-2.108-20.428-2.457-30.386-1.046-9.964 1.408-19.029 4.537-27.204 9.373-8.173 4.841-15.208 11.353-21.092 19.532-5.89 8.181-9.981 17.881-12.276 29.093-2.295 11.216-2.352 21.787-.169 31.714 2.179 9.928 6.071 18.77 11.667 26.524 5.598 7.754 12.678 14.329 21.25 19.721 8.566 5.389 17.999 9.142 28.297 11.25 10.48 2.144 20.672 2.408 30.581.8 9.906-1.611 19.001-4.875 27.286-9.788 8.282-4.914 15.38-11.507 21.287-19.779 5.907-8.273 10.01-18.016 12.305-29.231 2.296-11.213 2.337-21.741.142-31.577" fill="#F37748"/><ellipse cx="206" cy="51.5" rx="64" ry="61.5" fill="#fff"/><path d="M262.934 54.948c-1.184.406-2.22.07-3.107-.774a4.927 4.927 0 0 1-.504-.58c-.634-.83-1.473-1.35-2.479-1.58a80.232 80.232 0 0 0-3.311-.679c-.507-.093-1.011-.187-1.479-.403-.901-.416-1.178-1.21-.741-2.101.368-.753.996-1.224 1.742-1.556 1.476-.657 3.019-.757 4.638-.53 2.537.153 4.581 1.407 6.371 3.153.634.618 1.117 1.339 1.147 2.279.048 1.51-1.201 2.402-2.277 2.771Zm-9.455 14.493c-2.656 5.615-6.464 10.644-10.995 14.88-10.638 9.945-25.209 15.332-39.769 13.841-8.724-.892-17.209-4.03-24.585-8.944-7.802-5.196-13.74-12.631-17.678-21.095-.31-.667-.616-1.381-.528-2.11.498-4.129 7.692-1.19 9.917-.688 18.889 4.269 39.756 1.66 58.607-1.66 4.722-.831 9.558-2.265 14.062-4.153a70.825 70.825 0 0 0 6.771-3.276c1.885-1.038 4.273-3.3 6.599-2.305 4.075 1.745-1.164 12.895-2.401 15.51Zm-96.888-4.53c-.192.17-.378.353-.592.49-1.016.647-2.212.253-2.665-.867a2.854 2.854 0 0 1-.185-1.388c.188-1.63.833-2.76 1.643-3.805.748-.963 1.663-1.785 2.728-2.346 1.787-.94 3.702-1.526 5.761-1.381.978.068 1.851.397 2.449 1.252.579.83.596 1.689.1 2.533-.598 1.016-1.509 1.666-2.637 1.998-.492.144-.994.254-1.494.368-1.381.314-2.597.951-3.667 1.87-.486.419-.959.853-1.441 1.277Zm15.526-34.813a2.728 2.728 0 0 1 3.603-1.38l.391.174c.848.378 1.675.812 2.511 1.155l1.259.418.624.215.627.107c.416.068.829.15 1.239.235.406.005.81.017 1.214.036.407.056.794-.05 1.187-.087l.587-.065c.194-.028.378-.108.569-.154 1.516-.373 3-1.063 4.372-2.098.669-.535 1.347-1.094 1.949-1.748.312-.317.598-.656.879-1 .264-.322.578-.731.745-.957l.2-.272a2.734 2.734 0 0 1 4.632 2.874 17.41 17.41 0 0 1-.969 1.677c-.34.502-.692.995-1.076 1.463a19.927 19.927 0 0 1-2.534 2.652c-1.865 1.623-4.193 2.942-6.767 3.494-.32.07-.636.164-.96.204l-.978.09c-.651.043-1.306.139-1.946.058l-1.926-.151a44.882 44.882 0 0 1-1.834-.43l-.909-.236-.847-.34-1.683-.695c-1.056-.55-2.042-1.183-3.05-1.776a2.727 2.727 0 0 1-1.109-3.463Zm44.598-7.332a2.627 2.627 0 0 1 3.681.51l.233.307c.561.74 1.08 1.526 1.653 2.24l.934.97.465.485.519.39 1.025.787 1.104.589c.351.236.758.317 1.137.463l.574.208c.194.062.401.075.599.118 1.572.31 3.293.357 4.912-.29.799-.328 1.636-.519 2.469-.815.422-.133.836-.283 1.259-.428.398-.138.88-.32 1.182-.39l.726-.165a2.605 2.605 0 0 1 2.338 4.46 12.536 12.536 0 0 1-3.1 2.137c-1.088.55-2.26.978-3.495 1.157-.614.103-1.252.115-1.867.191-.624.047-1.261.054-1.888.086-1.268-.024-2.55-.129-3.796-.463-.311-.079-.63-.13-.933-.235l-.898-.345c-.592-.243-1.21-.439-1.738-.788l-1.632-.965-1.44-1.167-.707-.593-.61-.663-1.216-1.326c-.731-.923-1.367-1.895-2.044-2.845a2.631 2.631 0 0 1 .554-3.62Zm57.322 8.68c-2.804-8.562-7.073-16.02-12.809-22.366-5.739-6.343-12.618-11.463-20.64-15.352-8.025-3.891-16.789-6.34-26.299-7.35-9.345-.994-18.389-.436-27.13 1.676-8.746 2.105-16.546 5.667-23.405 10.67-6.859 5.01-12.561 11.407-17.096 19.19-4.54 7.786-7.349 16.768-8.43 26.944-1.082 10.177-.226 19.59 2.568 28.237 2.79 8.648 7.011 16.183 12.656 22.604 5.646 6.42 12.51 11.664 20.601 15.728 8.085 4.062 16.801 6.593 26.146 7.585 9.51 1.011 18.602.372 27.283-1.909 8.677-2.282 16.491-5.967 23.444-11.049 6.95-5.083 12.7-11.559 17.249-19.427 4.544-7.868 7.362-16.89 8.443-27.068 1.081-10.175.217-19.547-2.581-28.113" fill="#7DC889"/><ellipse cx="57.5" cy="70.5" rx="52.5" ry="50.5" fill="#fff"/><path d="M102.608 66.665c-.205-.044-.401-.134-.598-.21-.494-.192-.983-.394-1.479-.58a6.953 6.953 0 0 0-3.373-.41c-.42.054-.841.111-1.263.139-.97.064-1.86-.182-2.611-.8-.625-.514-.855-1.185-.642-1.992.22-.833.804-1.335 1.542-1.666 1.556-.697 3.207-.787 4.859-.565.984.133 1.928.51 2.781 1.044.924.58 1.746 1.273 2.353 2.484.117.21.268.647.252 1.129-.034.996-.849 1.64-1.821 1.427Zm-2.679 3.375c-.65 7.68-3.142 15.129-7.715 21.372-4.323 5.903-10.01 10.744-16.52 13.913-10.864 5.289-23.688 5.25-34.758.56-4.715-1.997-9.095-4.816-12.748-8.414-1.701-1.676-8.927-8.833-6.264-11.342 1.52-1.432 4.013-.356 5.77-.087 2.046.314 4.11.523 6.179.618 4.027.185 8.183-.076 12.08-.772 15.556-2.778 32.472-6.68 45.904-15.352 1.582-1.021 6.325-5.341 7.882-2.282.276.54.24 1.181.19 1.786ZM20.632 84.916a3.477 3.477 0 0 0-1.473 1.93 4.01 4.01 0 0 1-.227.592c-.447.906-1.155 1.46-2.188 1.482-.939.02-2.16-.317-2.552-1.502-.243-.737-.074-1.433.242-2.092.892-1.862 2.121-3.414 4.044-4.253 1.19-.635 2.415-.996 3.746-.905.673.045 1.293.232 1.792.71.592.568.602 1.262.022 1.84-.301.3-.665.516-1.032.733-.8.473-1.594.959-2.374 1.466Zm4.719-22.893c.299-.737.962-1.217 1.697-1.316l.606-.08c.253-.034.676-.032 1.022-.04.368-.01.73-.014 1.092-.032.726-.01 1.426-.104 2.135-.082 1.431.034 2.743-.495 3.865-1.186.14-.09.295-.159.426-.262l.383-.325c.25-.221.54-.4.742-.683l.681-.77.564-.9.287-.45.22-.506.44-1.015c.236-.714.411-1.468.63-2.199l.09-.303a2.16 2.16 0 0 1 4.154 1.179c-.248.926-.46 1.857-.757 2.777l-.556 1.37-.28.685-.373.66-.774 1.311-.979 1.211c-.307.42-.726.75-1.112 1.106l-.593.523c-.203.168-.433.3-.65.449-.864.615-1.82 1.063-2.79 1.446-.492.155-.984.333-1.478.476-.495.117-.99.291-1.492.388-1.002.216-2.028.223-3.023.112a10.356 10.356 0 0 1-3-.756 2.14 2.14 0 0 1-1.177-2.788Zm32.66-16.257A2.247 2.247 0 0 1 60.9 45.4l.232.151c.193.126.552.35.848.524.315.184.632.362.963.517.652.33 1.334.567 2.003.786a9.867 9.867 0 0 0 3.967.361c.16-.02.325-.01.483-.045l.47-.118c.313-.084.641-.114.939-.274.305-.13.613-.256.925-.376.29-.182.585-.365.886-.536l.452-.262.418-.345.85-.683c.545-.504 1.057-1.076 1.601-1.61l.252-.247a2.242 2.242 0 0 1 3.31 3.013c-.606.746-1.184 1.517-1.839 2.243l-1.097 1.018-.555.505-.631.441a36.66 36.66 0 0 1-1.289.859l-1.439.669c-.47.245-1.001.36-1.516.513l-.777.212c-.262.062-.532.08-.798.118-2.14.314-4.311-.033-6.213-.747a16.36 16.36 0 0 1-2.711-1.315c-.43-.25-.842-.53-1.248-.818-.418-.308-.76-.586-1.228-1.012a2.247 2.247 0 0 1-.147-3.175Zm57.263 21.189c-.334-7.459-2.373-14.951-6.126-22.477-3.752-7.523-8.496-13.63-14.222-18.323-5.729-4.689-11.984-7.963-18.762-9.821-6.78-1.853-13.807-2.356-21.081-1.5-7.278.856-14.43 3.036-21.46 6.543-6.91 3.446-12.926 7.833-18.045 13.16-5.124 5.327-8.949 11.242-11.485 17.742C1.56 58.78.442 65.732.744 73.128c.3 7.398 2.328 14.86 6.08 22.383 3.753 7.526 8.509 13.664 14.268 18.416 5.757 4.753 12.013 8.104 18.761 10.053 6.75 1.948 13.822 2.543 21.221 1.778 7.395-.764 14.55-2.867 21.459-6.313 7.031-3.507 13.043-7.971 18.046-13.39 4.998-5.418 8.779-11.426 11.345-18.02 2.564-6.593 3.681-13.62 3.35-21.08" fill="#ECC30B"/></svg>