<svg width="358" height="266" viewBox="0 0 358 266" fill="none" xmlns="http://www.w3.org/2000/svg">
<ellipse cx="137" cy="194" rx="74" ry="71" fill="white"/>
<path d="M195.914 196.221C194.656 196.656 193.552 196.301 192.606 195.406C192.409 195.219 192.233 195.006 192.067 194.79C191.39 193.908 190.495 193.358 189.424 193.116C188.255 192.851 187.078 192.619 185.898 192.404C185.358 192.305 184.822 192.207 184.323 191.979C183.363 191.539 183.065 190.695 183.528 189.744C183.917 188.943 184.584 188.439 185.377 188.084C186.946 187.38 188.588 187.269 190.312 187.506C193.012 187.661 195.192 188.989 197.102 190.842C197.779 191.498 198.294 192.264 198.329 193.264C198.385 194.871 197.058 195.824 195.914 196.221V196.221ZM185.895 211.674C183.085 217.657 179.047 223.022 174.238 227.543C162.945 238.16 147.455 243.935 131.953 242.394C122.666 241.47 113.625 238.156 105.76 232.948C97.4416 227.441 91.0998 219.546 86.883 210.55C86.551 209.842 86.223 209.082 86.3145 208.305C86.8316 203.91 94.4968 207.015 96.8668 207.544C116.984 212.03 139.184 209.192 159.237 205.601C164.26 204.702 169.403 203.162 174.191 201.138C176.65 200.1 179.053 198.926 181.388 197.631C183.391 196.521 185.926 194.106 188.404 195.159C192.745 197.004 187.204 208.886 185.895 211.674ZM82.7645 207.143C82.5601 207.324 82.3629 207.52 82.1353 207.666C81.0557 208.358 79.7816 207.942 79.2959 206.752C79.0617 206.178 79.0488 205.582 79.0958 205.274C79.29 203.54 79.9727 202.334 80.8324 201.22C81.6252 200.193 82.5975 199.315 83.7288 198.716C85.6277 197.709 87.6644 197.08 89.8565 197.228C90.8978 197.298 91.827 197.645 92.4661 198.554C93.0849 199.434 93.1061 200.349 92.58 201.249C91.9466 202.332 90.9799 203.027 89.78 203.383C89.2569 203.538 88.7229 203.657 88.1905 203.779C86.7216 204.117 85.4303 204.8 84.294 205.781C83.7775 206.228 83.2763 206.691 82.7645 207.143ZM99.1835 170.044C99.8328 168.578 101.547 167.915 103.014 168.565L103.431 168.749C104.335 169.149 105.216 169.609 106.107 169.972L107.448 170.412L108.113 170.64L108.78 170.751C109.223 170.822 109.663 170.909 110.099 170.997C110.533 171.002 110.962 171.013 111.392 171.032C111.826 171.09 112.237 170.977 112.655 170.937L113.279 170.866C113.486 170.835 113.682 170.749 113.885 170.7C115.497 170.298 117.074 169.56 118.531 168.454C119.242 167.882 119.961 167.285 120.601 166.587C120.932 166.248 121.235 165.888 121.533 165.521C121.813 165.176 122.146 164.74 122.323 164.499L122.535 164.21C123.363 163.076 124.915 162.68 126.205 163.339C127.637 164.07 128.205 165.823 127.474 167.255C127.101 167.985 126.813 168.478 126.447 169.042C126.087 169.577 125.713 170.103 125.306 170.602C124.512 171.618 123.608 172.56 122.618 173.433C120.638 175.166 118.164 176.576 115.426 177.171C115.086 177.247 114.75 177.347 114.405 177.392L113.365 177.489C112.671 177.538 111.975 177.642 111.293 177.558L109.243 177.403C108.587 177.269 107.937 177.111 107.289 176.95L106.322 176.702L105.42 176.342L103.626 175.608C102.5 175.026 101.449 174.356 100.374 173.727C99.1126 172.992 98.5785 171.41 99.1835 170.044V170.044ZM146.627 162.107C147.857 161.172 149.611 161.41 150.547 162.639L150.795 162.965C151.394 163.752 151.949 164.587 152.562 165.344L153.558 166.374L154.055 166.889L154.608 167.303L155.702 168.136L156.879 168.76C157.253 169.01 157.685 169.096 158.09 169.25L158.702 169.47C158.908 169.535 159.128 169.548 159.339 169.593C161.013 169.919 162.846 169.963 164.566 169.27C165.416 168.919 166.306 168.713 167.192 168.395C167.64 168.252 168.08 168.091 168.53 167.936C168.953 167.788 169.466 167.592 169.787 167.518L170.559 167.339C171.495 167.125 172.518 167.404 173.217 168.161C174.256 169.285 174.186 171.039 173.061 172.079C172.46 172.633 172.006 172.998 171.448 173.381C170.909 173.744 170.351 174.081 169.767 174.363C168.612 174.951 167.365 175.41 166.051 175.605C165.398 175.716 164.719 175.73 164.065 175.814C163.401 175.866 162.723 175.876 162.055 175.911C160.707 175.889 159.342 175.782 158.015 175.429C157.683 175.347 157.344 175.292 157.021 175.182L156.064 174.818C155.433 174.561 154.775 174.354 154.211 173.984L152.472 172.962L150.937 171.725L150.182 171.095L149.531 170.391L148.233 168.984C147.452 168.004 146.772 166.972 146.048 165.962C145.172 164.737 145.421 163.026 146.627 162.107V162.107ZM207.661 171.174C204.651 162.069 200.085 154.145 193.961 147.408C187.834 140.674 180.497 135.245 171.949 131.131C163.395 127.015 154.061 124.434 143.936 123.387C133.988 122.359 124.363 122.979 115.067 125.25C105.765 127.519 97.4744 131.333 90.1885 136.68C82.9039 142.031 76.8547 148.857 72.0511 157.154C67.2422 165.454 64.2793 175.023 63.1595 185.855C62.0395 196.69 62.9776 206.705 65.9777 215.901C68.9729 225.096 73.4886 233.103 79.5152 239.92C85.5433 246.737 92.8649 252.296 101.488 256.596C110.105 260.896 119.389 263.563 129.338 264.594C139.462 265.64 149.136 264.931 158.369 262.477C167.597 260.022 175.903 256.076 183.288 250.647C190.669 245.217 196.77 238.308 201.587 229.921C206.401 221.532 209.373 211.922 210.493 201.087C211.613 190.254 210.665 180.282 207.661 171.174" fill="#D56062"/>
<ellipse cx="314.5" cy="147" rx="71.5" ry="69" fill="white"/>
<path d="M364.28 178.349C364.23 178.659 364.031 179.228 363.63 179.708C362.796 180.704 361.441 180.71 360.616 179.711C360.44 179.5 360.314 179.251 360.172 179.014C359.821 178.421 359.479 177.82 359.122 177.231C358.33 175.936 357.3 174.88 355.991 174.101C355.517 173.819 355.04 173.54 354.583 173.229C353.54 172.516 352.824 171.549 352.549 170.311C352.32 169.283 352.625 168.41 353.493 167.754C354.388 167.077 355.388 167.03 356.412 167.284C358.565 167.819 360.331 169.053 361.848 170.608C362.749 171.535 363.415 172.679 363.859 173.912C364.343 175.249 364.628 176.62 364.28 178.349V178.349ZM356.399 179.035C356.246 179.81 355.696 180.44 355.156 181.019C348.322 188.371 339.781 194.008 330.078 196.737C320.905 199.317 311.184 199.713 301.964 197.734C286.575 194.43 273.456 184.089 265.871 170.387C262.641 164.552 260.414 158.144 259.559 151.52C259.16 148.435 257.499 135.291 262.245 134.858C264.954 134.611 266.647 137.716 268.231 139.403C270.078 141.369 272.027 143.241 274.072 145C278.054 148.425 282.525 151.495 287.079 153.912C305.262 163.559 325.742 173.146 346.48 175.043C348.925 175.267 357.257 174.647 356.399 179.035V179.035ZM258.127 133.797C256.94 134.367 255.769 134.367 254.693 133.559C253.714 132.825 252.732 131.498 253.282 129.969C253.625 129.018 254.357 128.44 255.211 128.018C257.621 126.826 260.128 126.221 262.774 126.906C264.505 127.211 266.05 127.824 267.343 128.986C267.996 129.573 268.482 130.263 268.609 131.155C268.76 132.212 268.213 132.931 267.153 133.058C266.603 133.124 266.057 133.053 265.507 132.981C264.306 132.823 263.102 132.684 261.895 132.577C260.789 132.479 259.76 132.732 258.835 133.371C258.609 133.528 258.374 133.679 258.127 133.797V133.797ZM285.123 112.891C286.023 112.376 287.088 112.417 287.921 112.905L288.608 113.31C288.893 113.478 289.326 113.82 289.688 114.09C290.072 114.375 290.445 114.662 290.832 114.935C291.586 115.507 292.378 115.973 293.087 116.566C294.528 117.75 296.298 118.261 298.003 118.454C298.219 118.475 298.434 118.528 298.651 118.528L299.304 118.502C299.739 118.477 300.18 118.525 300.614 118.397L301.931 118.155L303.232 117.685L303.887 117.455L304.519 117.111L305.786 116.424C306.602 115.882 307.387 115.25 308.198 114.676L308.535 114.438C309.804 113.541 311.558 113.843 312.455 115.111C313.335 116.356 313.057 118.073 311.847 118.983C310.848 119.733 309.884 120.518 308.839 121.222L307.169 122.18L306.332 122.659L305.419 123.035L303.572 123.759L301.596 124.214C300.943 124.398 300.249 124.398 299.567 124.454L298.539 124.515C298.196 124.523 297.854 124.473 297.512 124.452C296.132 124.389 294.791 124.081 293.49 123.694C292.86 123.458 292.213 123.245 291.591 122.995C290.99 122.717 290.342 122.499 289.75 122.194C288.548 121.611 287.491 120.794 286.56 119.882C286.085 119.434 285.652 118.943 285.244 118.432C284.825 117.897 284.499 117.41 284.091 116.696C283.325 115.36 283.788 113.656 285.123 112.891V112.891ZM331.672 122.457C333.109 122.214 334.478 123.063 334.931 124.4L335.047 124.741C335.143 125.026 335.329 125.544 335.495 125.96C335.67 126.402 335.852 126.839 336.068 127.264C336.469 128.127 336.979 128.916 337.489 129.679C338.552 131.18 339.844 132.364 341.269 133.236C341.448 133.345 341.61 133.486 341.799 133.578L342.375 133.834C342.766 133.999 343.124 134.232 343.558 134.307C343.975 134.419 344.393 134.537 344.81 134.664C345.254 134.711 345.701 134.761 346.149 134.826L346.821 134.921L347.53 134.903L348.948 134.886C349.912 134.806 350.896 134.632 351.883 134.521L352.34 134.47C353.94 134.289 355.388 135.443 355.567 137.045C355.736 138.538 354.745 139.894 353.314 140.218C352.092 140.497 350.883 140.822 349.627 141.041L347.686 141.204L346.709 141.276L345.708 141.222C345.039 141.181 344.366 141.136 343.697 141.066L341.683 140.597C341.004 140.471 340.368 140.161 339.718 139.905L338.748 139.498C338.433 139.351 338.138 139.154 337.837 138.978C335.389 137.581 333.444 135.481 332.066 133.221C331.38 132.085 330.797 130.908 330.343 129.695C330.101 129.094 329.903 128.476 329.717 127.855C329.538 127.203 329.412 126.642 329.273 125.83C329.005 124.236 330.078 122.726 331.672 122.457V122.457ZM385.28 131.999C383.173 122.589 379.386 114.207 373.93 106.858C368.467 99.5117 361.663 93.3508 353.516 88.3853C345.367 83.4177 336.283 79.9087 326.255 77.8568C316.403 75.8399 306.71 75.5063 297.182 76.8563C287.648 78.2033 278.974 81.1968 271.153 85.8238C263.332 90.4561 256.601 96.6865 250.971 104.512C245.336 112.341 241.421 121.621 239.226 132.35C237.029 143.081 236.975 153.195 239.064 162.694C241.149 172.193 244.873 180.654 250.227 188.073C255.583 195.492 262.357 201.783 270.559 206.942C278.755 212.099 287.781 215.689 297.634 217.706C307.661 219.758 317.413 220.01 326.895 218.471C336.373 216.93 345.075 213.807 353.003 209.106C360.927 204.405 367.718 198.096 373.37 190.181C379.022 182.266 382.947 172.944 385.144 162.212C387.34 151.484 387.38 141.411 385.28 131.999" fill="#F37748"/>
<path d="M251.759 48.7755C250.627 49.1637 249.636 48.8421 248.787 48.0348C248.61 47.8665 248.453 47.6747 248.304 47.4799C247.698 46.6848 246.895 46.1878 245.933 45.9675C244.882 45.727 243.824 45.5147 242.764 45.3186C242.279 45.2291 241.797 45.1393 241.35 44.9326C240.488 44.5347 240.222 43.7755 240.64 42.9221C240.992 42.2022 241.593 41.7516 242.307 41.4336C243.72 40.8048 245.196 40.7094 246.744 40.9268C249.172 41.0728 251.128 42.2724 252.841 43.9431C253.448 44.5347 253.909 45.2245 253.938 46.1236C253.984 47.5686 252.789 48.422 251.759 48.7755V48.7755ZM242.712 62.6423C240.171 68.0147 236.528 72.8272 232.193 76.8801C222.014 86.3959 208.073 91.5493 194.141 90.1235C185.794 89.2694 177.675 86.267 170.617 81.5658C163.153 76.5936 157.471 69.4796 153.703 61.3814C153.406 60.7434 153.114 60.0599 153.198 59.3616C153.674 55.4121 160.557 58.223 162.686 58.704C180.76 62.7884 200.725 60.2929 218.762 57.1162C223.281 56.3205 227.908 54.9483 232.218 53.1418C234.431 52.2139 236.594 51.1647 238.696 50.0072C240.5 49.014 242.785 46.8497 245.01 47.8025C248.909 49.4715 243.896 60.1401 242.712 62.6423ZM150.009 58.3085C149.825 58.4701 149.647 58.6457 149.442 58.7766C148.47 59.3957 147.326 59.0191 146.892 57.9477C146.683 57.4306 146.673 56.8952 146.715 56.6189C146.895 55.0599 147.512 53.9776 148.287 52.9785C149.003 52.0572 149.879 51.2707 150.898 50.7344C152.607 49.8343 154.44 49.2741 156.41 49.4122C157.346 49.4778 158.181 49.7919 158.753 50.6108C159.307 51.4042 159.323 52.2261 158.848 53.0338C158.276 54.0061 157.405 54.6286 156.326 54.9456C155.855 55.0834 155.375 55.1891 154.896 55.2978C153.575 55.5979 152.412 56.2081 151.388 57.0877C150.922 57.4879 150.47 57.9033 150.009 58.3085V58.3085ZM164.864 24.9981C165.451 23.6812 166.995 23.0899 168.312 23.6776L168.685 23.8442C169.497 24.2063 170.288 24.6217 171.089 24.95L172.293 25.3495L172.89 25.5556L173.49 25.658C173.888 25.7229 174.283 25.8017 174.675 25.8822C175.064 25.8872 175.451 25.8985 175.837 25.9167C176.227 25.9704 176.597 25.869 176.972 25.8339L177.534 25.7716C177.72 25.7448 177.896 25.6679 178.079 25.6242C179.529 25.267 180.949 24.6075 182.262 23.6169C182.902 23.1048 183.55 22.5701 184.127 21.9443C184.426 21.6405 184.699 21.3168 184.968 20.9879C185.221 20.6788 185.521 20.2875 185.681 20.0712L185.872 19.8115C186.619 18.7948 188.015 18.4423 189.174 19.038C190.459 19.6989 190.965 21.2764 190.304 22.5615C189.967 23.2167 189.707 23.6597 189.377 24.1662C189.051 24.6462 188.714 25.118 188.347 25.5659C187.63 26.4762 186.815 27.3213 185.923 28.1035C184.138 29.6559 181.911 30.9181 179.448 31.4465C179.142 31.5137 178.84 31.6028 178.53 31.6419L177.594 31.7267C176.971 31.7688 176.344 31.8606 175.732 31.7834L173.889 31.6386C173.3 31.5163 172.716 31.3729 172.134 31.2265L171.265 31.0012L170.454 30.6756L168.843 30.0107C167.833 29.4846 166.89 28.8794 165.925 28.3115C164.793 27.6476 164.317 26.2245 164.864 24.9981V24.9981ZM207.537 17.9828C208.644 17.1447 210.221 17.3633 211.059 18.4705L211.281 18.7647C211.818 19.4733 212.315 20.2249 212.863 20.9074L213.757 21.836L214.202 22.3001L214.698 22.6738L215.679 23.4258L216.736 23.9893C217.072 24.2152 217.46 24.2934 217.824 24.4329L218.373 24.6317C218.558 24.6913 218.756 24.7039 218.945 24.7446C220.45 25.0418 222.097 25.0862 223.645 24.467C224.41 24.1536 225.211 23.9711 226.008 23.6878C226.411 23.5599 226.808 23.4165 227.212 23.278C227.593 23.1462 228.055 22.9716 228.343 22.9057L229.038 22.7466C229.881 22.5562 230.799 22.8099 231.425 23.492C232.356 24.5058 232.289 26.0827 231.275 27.0136C230.734 27.5112 230.324 27.8378 229.822 28.1803C229.337 28.5053 228.834 28.8068 228.309 29.0593C227.268 29.585 226.146 29.9945 224.965 30.1664C224.377 30.2651 223.767 30.2757 223.179 30.3492C222.581 30.3943 221.972 30.4009 221.372 30.4314C220.159 30.4086 218.932 30.3082 217.74 29.9878C217.442 29.9129 217.137 29.8633 216.848 29.7632L215.988 29.4333C215.422 29.201 214.83 29.0132 214.325 28.6792L212.764 27.7563L211.386 26.6396L210.709 26.0717L210.126 25.4373L208.962 24.1692C208.263 23.286 207.654 22.3561 207.006 21.4467C206.221 20.3432 206.45 18.8051 207.537 17.9828V17.9828ZM262.383 26.2884C259.701 18.0954 255.615 10.9603 250.127 4.88756C244.636 -1.18086 238.054 -6.08052 230.379 -9.80082C222.7 -13.5244 214.315 -15.8666 205.215 -16.8339C196.274 -17.7847 187.62 -17.2513 179.257 -15.2305C170.888 -13.2163 163.425 -9.80745 156.862 -5.02042C150.299 -0.226773 144.844 5.89366 140.504 13.3409C136.161 20.7904 133.472 29.3849 132.438 39.1206C131.404 48.8587 132.222 57.8642 134.896 66.139C137.565 74.4131 141.604 81.6228 147.005 87.7664C152.407 93.9097 158.975 98.9273 166.716 102.816C174.452 106.702 182.792 109.123 191.733 110.073C200.833 111.04 209.532 110.428 217.838 108.246C226.14 106.062 233.618 102.537 240.27 97.674C246.92 92.8112 252.422 86.6145 256.774 79.0865C261.122 71.5578 263.818 62.9256 264.853 53.1875C265.887 43.4518 265.061 34.484 262.383 26.2884" fill="#067BC2"/>
<path d="M98.3569 59.9867C98.1608 59.9436 97.9733 59.8582 97.7845 59.785C97.3121 59.6018 96.844 59.408 96.3696 59.2301C95.326 58.8388 94.2513 58.6961 93.1419 58.8385C92.7397 58.8899 92.3372 58.9445 91.9334 58.971C91.0064 59.032 90.1544 58.7968 89.4352 58.2054C88.8375 57.7141 88.6169 57.0721 88.8213 56.2999C89.0323 55.5025 89.5902 55.0221 90.2968 54.7054C91.7853 54.0392 93.3648 53.9531 94.9457 54.1654C95.8875 54.2923 96.7903 54.6531 97.6066 55.1643C98.4911 55.7185 99.2769 56.3824 99.8583 57.5402C99.9699 57.7423 100.114 58.16 100.099 58.6205C100.067 59.5739 99.2865 60.1908 98.3569 59.9867ZM95.7935 63.2157C95.1713 70.5632 92.7867 77.6911 88.4118 83.6644C84.2751 89.3125 78.8335 93.9448 72.6057 96.9767C62.2101 102.037 49.94 102 39.3476 97.5127C34.8362 95.6015 30.6458 92.9049 27.1505 89.4619C25.5225 87.8585 18.6083 81.0109 21.1566 78.6101C22.6112 77.2399 24.9968 78.2692 26.6771 78.5269C28.6356 78.8274 30.6097 79.0268 32.5894 79.1176C36.4433 79.2945 40.4196 79.0447 44.1482 78.3788C59.0324 75.7209 75.2182 71.9877 88.0696 63.6904C89.5836 62.7132 94.1215 58.5797 95.6116 61.5066C95.8753 62.0241 95.8421 62.637 95.7935 63.2157V63.2157ZM19.9206 77.4496C19.2371 77.8938 18.7558 78.5067 18.5113 79.2952C18.4517 79.4883 18.3837 79.6818 18.2943 79.8626C17.8659 80.7293 17.1891 81.26 16.2009 81.2805C15.3022 81.2991 14.1335 80.9764 13.7591 79.8431C13.526 79.1381 13.688 78.4723 13.9903 77.8415C14.8439 76.0602 16.0197 74.5751 17.86 73.7724C18.9989 73.1645 20.1707 72.8193 21.4441 72.9057C22.0878 72.9494 22.6815 73.128 23.1588 73.5862C23.725 74.1291 23.7346 74.793 23.1794 75.3463C22.8915 75.6335 22.543 75.8399 22.1925 76.0473C21.4262 76.5001 20.6669 76.9649 19.9206 77.4496V77.4496ZM24.4356 55.5442C24.7218 54.8393 25.3562 54.3804 26.0595 54.2854L26.6396 54.2085C26.8811 54.1763 27.2866 54.178 27.6176 54.1704C27.9691 54.1611 28.3149 54.1578 28.6621 54.1406C29.3571 54.1296 30.0263 54.0405 30.7051 54.0621C32.0746 54.0942 33.3299 53.5877 34.4029 52.9271C34.5371 52.8413 34.6858 52.7747 34.811 52.676L35.1771 52.3652C35.4169 52.1536 35.6936 51.9819 35.8874 51.7113L36.539 50.9745L37.0783 50.1139L37.353 49.6838L37.5627 49.1988L37.984 48.2279C38.2106 47.5448 38.3776 46.8236 38.587 46.1242L38.6741 45.8337C39.0014 44.7408 40.1526 44.12 41.2459 44.4473C42.3185 44.7686 42.9354 45.887 42.6482 46.962C42.4103 47.8482 42.2082 48.7387 41.9233 49.6193L41.3913 50.9298L41.1243 51.5854L40.7665 52.2168L40.0261 53.4717L39.0895 54.6302C38.7957 55.0324 38.3945 55.3468 38.0251 55.6883L37.4583 56.1889C37.2638 56.3489 37.0435 56.4748 36.8358 56.6179C36.0096 57.2066 35.0939 57.6356 34.167 58.0013C33.6959 58.1504 33.2248 58.3204 32.7521 58.4569C32.2784 58.5688 31.8053 58.7361 31.3246 58.8285C30.3659 59.0353 29.3846 59.0419 28.4325 58.9359C27.9555 58.8922 27.4821 58.8047 27.015 58.6937C26.53 58.5738 26.1212 58.44 25.5616 58.2124C24.5138 57.7867 24.0096 56.5921 24.4356 55.5442V55.5442ZM55.6854 39.9902C56.406 39.1991 57.582 39.0699 58.4497 39.6381L58.6713 39.7832C58.8561 39.9037 59.1997 40.1187 59.4833 40.2841C59.7844 40.4603 60.0879 40.6309 60.4049 40.7793C61.0284 41.0957 61.681 41.3213 62.3207 41.5316C63.6157 41.9176 64.8977 42.018 66.1169 41.8769C66.2699 41.858 66.4279 41.8666 66.5787 41.8338L67.0292 41.7208C67.328 41.64 67.6424 41.6115 67.927 41.4584C68.2192 41.3335 68.5134 41.214 68.8118 41.0984C69.0905 40.9241 69.3717 40.7498 69.6599 40.5855L70.0922 40.3351L70.4924 40.0048L71.3054 39.3518C71.8272 38.8691 72.3168 38.3222 72.8376 37.8107L73.0781 37.5748C73.9232 36.745 75.2808 36.7572 76.111 37.6023C76.8845 38.3894 76.9263 39.6218 76.2452 40.4576C75.6654 41.1715 75.1128 41.9087 74.486 42.6034L73.4365 43.5773L72.9058 44.061L72.3016 44.4834C71.8958 44.7633 71.4873 45.0413 71.0685 45.3046L69.6914 45.9446C69.2422 46.1799 68.7333 46.2892 68.2414 46.4356L67.497 46.639C67.2469 46.6977 66.9888 46.7159 66.7337 46.752C64.6857 47.0521 62.6089 46.7195 60.7895 46.0364C59.8785 45.6902 59.0079 45.2738 58.1952 44.7782C57.7841 44.539 57.3892 44.2723 57.001 43.9964C56.6014 43.7012 56.2738 43.4349 55.8262 43.0274C54.9487 42.2277 54.8857 40.8678 55.6854 39.9902V39.9902ZM110.476 60.2633C110.157 53.1272 108.205 45.9579 104.614 38.7578C101.024 31.5594 96.4852 25.7156 91.0064 21.2257C85.525 16.7392 79.5404 13.6059 73.0546 11.8286C66.5677 10.0556 59.8437 9.57453 52.8838 10.3935C45.9202 11.2127 39.0779 13.2985 32.3499 16.654C25.7389 19.9513 19.9832 24.1486 15.0853 29.2451C10.1826 34.3425 6.52251 40.0025 4.09587 46.2213C1.67208 52.4424 0.602269 59.0939 0.891512 66.1698C1.17867 73.2489 3.11912 80.3887 6.70912 87.5868C10.3002 94.7872 14.85 100.661 20.3612 105.207C25.8694 109.756 31.8553 112.961 38.312 114.826C44.7697 116.69 51.5365 117.259 58.6166 116.527C65.6918 115.796 72.5374 113.784 79.1485 110.487C85.8762 107.131 91.6289 102.86 96.4149 97.6753C101.198 92.4911 104.815 86.743 107.27 80.4334C109.724 74.1248 110.792 67.4011 110.476 60.2633" fill="#ECC30B"/>
</svg>
