<svg width="315" height="106" viewBox="0 0 315 106" fill="none" xmlns="http://www.w3.org/2000/svg">
<path d="M4.35164 97.8873C2.5455 97.3621 1.09502 96.6791 0 95.8388L1.92243 91.5675C2.97085 92.3378 4.21721 92.957 5.66233 93.4231C7.10704 93.8901 8.55153 94.1236 9.99665 94.1236C11.6044 94.1236 12.7927 93.8847 13.5615 93.406C14.3306 92.9277 14.7151 92.2914 14.7151 91.4977C14.7151 90.9145 14.4881 90.4296 14.0337 90.0446C13.5792 89.6597 12.9966 89.3503 12.2861 89.1169C11.5748 88.8835 10.6138 88.6268 9.40224 88.3466C7.53775 87.9034 6.01181 87.4596 4.82338 87.0162C3.63496 86.5732 2.61519 85.8609 1.7649 84.8807C0.914205 83.9002 0.489266 82.5933 0.489266 80.9591C0.489266 79.5357 0.873586 78.246 1.64285 77.0905C2.4119 75.935 3.57063 75.0197 5.1207 74.3423C6.66993 73.6655 8.56349 73.3271 10.8003 73.3271C12.3611 73.3271 13.8877 73.5137 15.3792 73.8869C16.8703 74.2607 18.1754 74.7973 19.2939 75.4978L17.5464 79.8038C15.286 78.5205 13.0254 77.8784 10.7655 77.8784C9.18059 77.8784 8.00969 78.1355 7.2528 78.6483C6.4953 79.1621 6.11675 79.8389 6.11675 80.6792C6.11675 81.5194 6.55385 82.1443 7.42744 82.5524C8.30123 82.9613 9.63501 83.3638 11.4296 83.7601C13.2935 84.204 14.82 84.6474 16.0085 85.091C17.1967 85.5342 18.216 86.2345 19.0669 87.1911C19.9172 88.1483 20.3428 89.4438 20.3428 91.0776C20.3428 92.4779 19.9523 93.7558 19.1717 94.9111C18.3907 96.0666 17.2198 96.9829 15.6588 97.6595C14.0974 98.3363 12.1982 98.6748 9.96139 98.6748C8.02722 98.6748 6.15737 98.4121 4.35144 97.8873H4.35164ZM36.7873 92.6356C37.6842 91.6902 38.133 90.4244 38.133 88.8369C38.133 87.2495 37.6842 85.9834 36.7873 85.0381C35.89 84.0926 34.7426 83.6205 33.3445 83.6205C31.9466 83.6205 30.793 84.0926 29.8842 85.0381C28.9753 85.9834 28.5209 87.2495 28.5209 88.8369C28.5209 90.4244 28.9753 91.6902 29.8842 92.6356C30.793 93.5809 31.9466 94.0532 33.3445 94.0532C34.7426 94.0532 35.89 93.5809 36.7873 92.6356ZM28.0143 97.2917C26.4412 96.4639 25.2119 95.3138 24.3266 93.843C23.4408 92.3731 22.9984 90.7045 22.9984 88.8369C22.9984 86.9697 23.4408 85.3004 24.3266 83.8304C25.2119 82.3599 26.4412 81.2102 28.0143 80.3816C29.5873 79.5535 31.3637 79.139 33.3445 79.139C35.3249 79.139 37.0962 79.5533 38.6576 80.3816C40.2184 81.2102 41.4418 82.3599 42.3276 83.8304C43.2127 85.3004 43.656 86.9697 43.656 88.8369C43.656 90.7045 43.2127 92.3731 42.3276 93.843C41.4418 95.3138 40.2184 96.4637 38.6576 97.2919C37.0962 98.1209 35.3249 98.5347 33.3443 98.5347C31.3637 98.5347 29.5873 98.1209 28.0143 97.2917ZM51.5379 97.2917C49.9412 96.4639 48.6944 95.3138 47.7977 93.843C46.9 92.3731 46.4518 90.7045 46.4518 88.8369C46.4518 86.9697 46.9 85.3004 47.7977 83.8304C48.6944 82.3599 49.9412 81.2102 51.5379 80.3816C53.1333 79.5535 54.9334 79.139 56.9377 79.139C58.9183 79.139 60.6481 79.5533 62.1283 80.3816C63.6079 81.2102 64.6856 82.3946 65.3612 83.9355L61.132 86.2111C60.1537 84.484 58.7434 83.6205 56.9027 83.6205C55.4811 83.6205 54.3044 84.0875 53.3724 85.0203C52.4403 85.9544 51.9743 87.2264 51.9743 88.8369C51.9743 90.4473 52.4403 91.7197 53.3724 92.6534C54.3044 93.5869 55.4811 94.0532 56.9027 94.0532C58.7667 94.0532 60.1764 93.1901 61.132 91.4626L65.3612 93.7736C64.6856 95.2671 63.6079 96.4338 62.1283 97.2741C60.6481 98.1145 58.9181 98.5347 56.9377 98.5347C54.9334 98.5347 53.1333 98.1209 51.5379 97.2917ZM69.0665 79.4188H74.5191V98.2547H69.0665V79.4188ZM69.3461 75.9181C68.7168 75.3349 68.4022 74.6108 68.4022 73.7473C68.4022 72.8839 68.7168 72.1598 69.3461 71.5762C69.9749 70.9931 70.7904 70.7013 71.7926 70.7013C72.7942 70.7013 73.6101 70.981 74.2393 71.5415C74.8686 72.1015 75.183 72.8021 75.183 73.6422C75.183 74.5525 74.8686 75.3053 74.2393 75.9003C73.6101 76.4955 72.794 76.7929 71.7926 76.7929C70.7904 76.7929 69.9749 76.5015 69.3461 75.9181ZM89.7934 94.2108C90.5152 93.7794 91.0282 93.1431 91.3311 92.3025V90.3773H87.5914C85.3541 90.3773 84.2358 91.1125 84.2358 92.5832C84.2358 93.2833 84.5094 93.838 85.0572 94.2461C85.6046 94.6546 86.3559 94.8589 87.3118 94.8589C88.2433 94.8589 89.0705 94.643 89.7934 94.2108ZM94.4419 81.222C96.0029 82.6106 96.7839 84.7054 96.7839 87.506V98.2547H91.6806V95.9094C90.6548 97.6595 88.7448 98.5347 85.9485 98.5347C84.5032 98.5347 83.2511 98.2898 82.1911 97.7995C81.1305 97.3092 80.3208 96.6325 79.7617 95.769C79.2025 94.9059 78.9229 93.9254 78.9229 92.8281C78.9229 91.0776 79.5811 89.7008 80.8975 88.6969C82.2138 87.6936 84.2471 87.1911 86.9972 87.1911H91.3311C91.3311 86.0009 90.9696 85.0852 90.2478 84.4429C89.5253 83.8014 88.4417 83.4801 86.9972 83.4801C85.9939 83.4802 84.997 83.6397 84.0436 83.9526C83.0762 84.2676 82.255 84.694 81.5794 85.2306L79.6221 81.4145C80.6472 80.6912 81.8763 80.1313 83.3096 79.734C84.7426 79.3373 86.2162 79.139 87.7312 79.139C90.6437 79.139 92.8805 79.8333 94.4419 81.222ZM102.271 72.2769H107.724V98.2547H102.271V72.2769ZM143.131 93.7034V98.2547H124.186V73.7473H142.676V78.2985H129.814V83.6205H141.173V88.0314H129.814V93.7034H143.13H143.131ZM164.888 81.2397C166.321 82.64 167.038 84.7172 167.038 87.4713V98.2547H161.585V88.3117C161.585 86.8177 161.258 85.7033 160.607 84.9679C159.954 84.2327 159.011 83.8648 157.775 83.8648C156.4 83.8648 155.305 84.2913 154.49 85.143C153.674 85.9949 153.267 87.2613 153.267 88.9414V98.2545H147.814V79.4184H153.022V81.6245C153.744 80.831 154.641 80.2185 155.713 79.786C156.785 79.3544 157.962 79.1388 159.243 79.1388C161.573 79.1388 163.455 79.8387 164.888 81.2395V81.2397ZM184.654 97.3446C184.118 97.7413 183.46 98.0391 182.679 98.2369C181.898 98.4352 181.077 98.5347 180.215 98.5347C177.978 98.5347 176.248 97.9631 175.025 96.8194C173.801 95.6759 173.189 93.9954 173.189 91.7775V84.0404H170.288V79.8389H173.189V75.2525H178.642V79.8389H183.326V84.0404H178.642V91.7075C178.642 92.5014 178.846 93.1141 179.254 93.5456C179.662 93.9776 180.238 94.1936 180.984 94.1936C181.846 94.1936 182.58 93.9605 183.186 93.4933L184.654 97.3446H184.654ZM193.252 84.3204C192.413 85.0205 191.9 85.9778 191.714 87.1911H200.977C200.79 86.0009 200.278 85.0499 199.439 84.338C198.6 83.6259 197.574 83.2699 196.363 83.2699C195.128 83.2699 194.091 83.6205 193.252 84.3204H193.252ZM206.01 90.3773H191.784C192.04 91.5448 192.646 92.4661 193.601 93.1431C194.557 93.8205 195.745 94.1583 197.167 94.1583C198.145 94.1583 199.013 94.0129 199.771 93.7211C200.528 93.4291 201.233 92.9681 201.885 92.3378L204.786 95.4892C203.015 97.5193 200.429 98.5347 197.027 98.5347C194.907 98.5347 193.03 98.1209 191.399 97.2917C189.768 96.4639 188.51 95.3138 187.624 93.843C186.739 92.3731 186.296 90.7045 186.296 88.8369C186.296 86.9935 186.733 85.3305 187.607 83.8473C188.481 82.3657 189.681 81.2102 191.207 80.3816C192.733 79.5535 194.441 79.139 196.328 79.139C198.169 79.139 199.835 79.5357 201.326 80.329C202.817 81.1226 203.988 82.2604 204.839 83.7424C205.689 85.2252 206.115 86.9464 206.115 88.9069C206.115 88.9769 206.08 89.4666 206.01 90.3773ZM218.156 79.8389C219.262 79.3722 220.538 79.1388 221.983 79.1388V84.1802C221.377 84.1337 220.97 84.1104 220.76 84.1104C219.199 84.1104 217.975 84.5482 217.09 85.4231C216.204 86.2987 215.761 87.6114 215.761 89.3619V98.2547H210.309V79.4186H215.517V81.9043C216.169 80.9944 217.049 80.3063 218.156 79.8389ZM239.407 92.6356C240.304 91.6902 240.752 90.4244 240.752 88.8369C240.752 87.2495 240.304 85.9834 239.407 85.0381C238.51 84.0926 237.362 83.6205 235.964 83.6205C234.566 83.6205 233.418 84.0926 232.521 85.0381C231.624 85.9834 231.175 87.2495 231.175 88.8369C231.175 90.4244 231.624 91.6902 232.521 92.6356C233.418 93.5809 234.566 94.0532 235.964 94.0532C237.362 94.0532 238.51 93.5809 239.407 92.6356ZM241.679 80.3467C243.112 81.1516 244.236 82.2843 245.051 83.7424C245.867 85.2017 246.275 86.8997 246.275 88.8369C246.275 90.7745 245.867 92.4725 245.051 93.9312C244.236 95.3898 243.112 96.5218 241.679 97.3268C240.246 98.1322 238.655 98.5347 236.908 98.5347C234.507 98.5347 232.62 97.7766 231.245 96.2591V105.047H225.793V79.4188H231.001V81.5896C232.352 79.956 234.321 79.1392 236.908 79.1392C238.655 79.1392 240.246 79.5417 241.679 80.3469L241.679 80.3467ZM258.316 79.8389C259.421 79.3722 260.7 79.1388 262.143 79.1388V84.1802C261.538 84.1337 261.129 84.1104 260.92 84.1104C259.358 84.1104 258.135 84.5482 257.25 85.4231C256.364 86.2987 255.922 87.6114 255.922 89.3619V98.2547H250.469V79.4186H255.677V81.9043C256.329 80.9944 257.209 80.3063 258.316 79.8389ZM265.953 79.4188H271.407V98.2547H265.953V79.4188ZM266.234 75.9181C265.604 75.3349 265.291 74.6108 265.291 73.7473C265.291 72.8839 265.604 72.1598 266.234 71.5762C266.863 70.9931 267.677 70.7013 268.68 70.7013C269.681 70.7013 270.497 70.981 271.127 71.5415C271.757 72.1015 272.07 72.8021 272.07 73.6422C272.07 74.5525 271.757 75.3053 271.127 75.9003C270.497 76.4955 269.681 76.7929 268.68 76.7929C267.677 76.7929 266.863 76.5015 266.234 75.9181ZM278.78 97.9573C277.29 97.5721 276.1 97.0879 275.215 96.5042L277.035 92.5832C277.873 93.1201 278.885 93.558 280.075 93.8958C281.263 94.2343 282.428 94.4035 283.569 94.4035C285.876 94.4035 287.03 93.8316 287.03 92.6877C287.03 92.1511 286.714 91.7662 286.087 91.5328C285.458 91.2994 284.49 91.1008 283.184 90.9372C281.648 90.7045 280.378 90.436 279.374 90.1322C278.374 89.829 277.505 89.2918 276.771 88.5219C276.037 87.7516 275.671 86.6543 275.671 85.2306C275.671 84.0404 276.015 82.9844 276.702 82.0625C277.389 81.1402 278.39 80.4227 279.707 79.9089C281.024 79.3961 282.58 79.139 284.372 79.139C285.707 79.1396 287.038 79.2862 288.342 79.5762C289.656 79.8684 290.747 80.2709 291.608 80.7844L289.79 84.6707C288.136 83.7372 286.329 83.2699 284.372 83.2699C283.209 83.2699 282.335 83.4334 281.752 83.7601C281.169 84.0875 280.878 84.5071 280.878 85.0203C280.878 85.6042 281.194 86.0129 281.821 86.2458C282.45 86.4796 283.454 86.7012 284.828 86.9111C286.365 87.1682 287.624 87.4424 288.603 87.7338C289.581 88.0263 290.431 88.5566 291.154 89.3272C291.877 90.0971 292.237 91.1712 292.237 92.5481C292.237 93.7153 291.888 94.7539 291.19 95.6641C290.491 96.574 289.472 97.2803 288.13 97.7824C286.791 98.2838 285.2 98.5347 283.36 98.5347C281.815 98.5368 280.277 98.3428 278.78 97.9573ZM301.71 84.3204C300.872 85.0205 300.358 85.9778 300.171 87.1911H309.435C309.248 86.0009 308.737 85.0499 307.896 84.338C307.057 83.6259 306.032 83.2699 304.82 83.2699C303.585 83.2699 302.549 83.6205 301.71 84.3204ZM314.469 90.3773H300.242C300.498 91.5448 301.103 92.4661 302.06 93.1431C303.016 93.8205 304.204 94.1583 305.625 94.1583C306.604 94.1583 307.472 94.0129 308.228 93.7211C308.987 93.4291 309.691 92.9681 310.342 92.3378L313.245 95.4892C311.475 97.5193 308.888 98.5347 305.485 98.5347C303.365 98.5347 301.488 98.1209 299.857 97.2917C298.227 96.4639 296.968 95.3138 296.083 93.843C295.198 92.3731 294.755 90.7045 294.755 88.8369C294.755 86.9935 295.192 85.3305 296.066 83.8473C296.938 82.3657 298.139 81.2102 299.665 80.3816C301.191 79.5535 302.898 79.139 304.787 79.139C306.626 79.139 308.292 79.5357 309.784 80.329C311.274 81.1226 312.445 82.2604 313.298 83.7424C314.147 85.2252 314.573 86.9464 314.573 88.9069C314.573 88.9769 314.538 89.4666 314.469 90.3773Z" fill="#F37748"/>
<path d="M0 3.51047H13.5172V50.9836H42.8051V62.016H0V3.51026V3.51047ZM131.502 48.6015C133.671 46.3449 134.756 43.3228 134.756 39.5329C134.756 35.7447 133.671 32.7214 131.502 30.4645C129.332 28.2081 126.606 27.0798 123.325 27.0798C119.987 27.0798 117.234 28.2081 115.064 30.4647C112.895 32.7214 111.81 35.7447 111.81 39.5329C111.81 43.3226 112.895 46.3449 115.064 48.6017C117.234 50.8578 119.987 51.9864 123.325 51.9864C126.606 51.9864 129.332 50.8578 131.502 48.6015ZM147.522 0V62.016H135.09V56.8339C131.863 60.7351 127.19 62.6847 121.072 62.6847C116.844 62.6847 113.02 61.7378 109.599 59.8429C106.177 57.9493 103.493 55.2462 101.547 51.7359C99.5989 48.2252 98.6263 44.1586 98.6263 39.5329C98.6263 34.9087 99.5989 30.841 101.547 27.3303C103.493 23.8201 106.177 21.1186 109.599 19.2235C113.02 17.3295 116.844 16.382 121.072 16.382C126.8 16.382 131.279 18.1932 134.506 21.8145V0H147.522ZM188.241 48.6015C190.41 46.3449 191.495 43.3228 191.495 39.5329C191.495 35.7447 190.41 32.7214 188.241 30.4645C186.072 28.2081 183.344 27.0798 180.063 27.0798C176.726 27.0798 173.972 28.2081 171.803 30.4647C169.633 32.7214 168.548 35.7447 168.548 39.5329C168.548 43.3226 169.633 46.3449 171.803 48.6017C173.972 50.8578 176.726 51.9864 180.063 51.9864C183.344 51.9864 186.072 50.8578 188.241 48.6015ZM204.261 0V62.016H191.828V56.8339C188.602 60.7351 183.929 62.6847 177.811 62.6847C173.582 62.6847 169.759 61.7378 166.338 59.8429C162.916 57.9493 160.232 55.2462 158.286 51.7359C156.337 48.2252 155.365 44.1586 155.365 39.5329C155.365 34.9087 156.337 30.841 158.286 27.3303C160.232 23.8201 162.916 21.1186 166.338 19.2235C169.759 17.3295 173.582 16.382 177.811 16.382C183.539 16.382 188.018 18.1932 191.244 21.8145V0H204.261ZM309.688 21.3965C313.108 24.7393 314.818 29.6994 314.818 36.2734V62.016H301.801V38.2793C301.801 34.7143 301.023 32.0529 299.464 30.2977C297.908 28.5422 295.654 27.6647 292.707 27.6647C289.425 27.6647 286.81 28.6822 284.864 30.715C282.915 32.7501 281.942 35.7721 281.942 39.784V62.016H268.925V17.0503H281.359V22.3158C283.083 20.4224 285.224 18.9594 287.784 17.9278C290.343 16.8975 293.152 16.382 296.212 16.382C301.773 16.382 306.266 18.0532 309.688 21.3965ZM88.9952 38.8219C88.5973 39.0077 88.2239 38.9286 87.8835 38.667C87.8129 38.611 87.7467 38.5496 87.6858 38.4832C87.434 38.2163 87.1225 38.0662 86.7633 38.023C86.3709 37.9768 85.9776 37.9388 85.5836 37.909C85.4034 37.895 85.224 37.8812 85.0531 37.8231C84.7238 37.711 84.5974 37.4442 84.717 37.1166C84.8172 36.8403 85.0186 36.6526 85.2667 36.5088C85.7568 36.2246 86.2914 36.1323 86.864 36.1515C87.7542 36.1108 88.5134 36.4731 89.2023 37.0162C89.4462 37.2087 89.641 37.4425 89.6864 37.7696C89.7589 38.295 89.3567 38.6531 88.9952 38.8219ZM86.2355 44.2342C85.5172 46.2936 84.376 48.1914 82.9531 49.8386C79.6124 53.7068 74.7319 56.1282 69.6001 56.1478C66.5255 56.1598 63.4509 55.379 60.6972 53.9366C57.7845 52.411 55.439 50.035 53.7524 47.2251C53.6197 47.0037 53.4865 46.7657 53.4902 46.5076C53.5108 45.0475 56.1278 45.8067 56.922 45.8998C63.6662 46.6895 70.8448 45.0045 77.2943 43.1456C78.9099 42.6799 80.5429 41.9998 82.0435 41.1733C82.814 40.7483 83.5615 40.2826 84.2828 39.7783C84.9015 39.3456 85.6504 38.4673 86.4982 38.7285C87.9833 39.1864 86.5697 43.2751 86.2355 44.2342ZM52.2875 46.2468C52.2267 46.3131 52.1688 46.3839 52.0989 46.4394C51.7688 46.7034 51.337 46.6102 51.1379 46.236C51.0416 46.0553 51.017 45.8604 51.0218 45.7579C51.0267 45.1819 51.2098 44.7629 51.4537 44.3682C51.6785 44.0041 51.9677 43.6832 52.318 43.448C52.9061 43.0531 53.5522 42.7774 54.2755 42.7516C54.619 42.7392 54.9353 42.8216 55.1757 43.0983C55.4083 43.3662 55.4462 43.6654 55.3039 43.9789C55.1332 44.3558 54.84 44.6169 54.459 44.7745C54.2928 44.843 54.1219 44.9002 53.9518 44.9583C53.4817 45.1191 53.0817 45.387 52.7428 45.7478C52.5885 45.912 52.4397 46.0809 52.2875 46.2468ZM56.4111 33.5126C56.4895 33.2709 56.6604 33.0702 56.8864 32.9548C57.1124 32.8393 57.3749 32.8185 57.6162 32.8969L57.7589 32.9434C58.0684 33.044 58.3731 33.165 58.6775 33.254L59.1319 33.3529L59.3572 33.4052L59.5797 33.419C59.7267 33.4282 59.8736 33.4401 60.0201 33.455C60.1616 33.4417 60.3032 33.4309 60.445 33.4225C60.5892 33.4269 60.7203 33.3757 60.8553 33.3484L61.0578 33.3038C61.1246 33.2869 61.1859 33.2517 61.2506 33.229C61.7652 33.0423 62.257 32.7466 62.6972 32.334C62.9103 32.1223 63.1262 31.9019 63.3118 31.6512C63.4075 31.5283 63.4975 31.4009 63.5813 31.2695C63.6615 31.1469 63.7557 30.9924 63.8056 30.9073L63.8652 30.8053C63.9875 30.598 64.1831 30.4444 64.4131 30.3747C64.6432 30.305 64.891 30.3244 65.1075 30.429C65.324 30.5336 65.4934 30.7158 65.5822 30.9395C65.6709 31.1633 65.6726 31.4123 65.5868 31.6372C65.5064 31.8493 65.4143 32.0567 65.3109 32.2586C65.2124 32.447 65.1053 32.6308 64.9899 32.8094C64.7601 33.1729 64.4974 33.5145 64.2049 33.8296C63.6147 34.4657 62.8522 35.0126 61.9749 35.3009C61.866 35.3372 61.759 35.3814 61.6477 35.4078L61.3102 35.4752C61.0848 35.5144 60.8599 35.5722 60.6337 35.5679L59.9566 35.5865C59.7376 35.5637 59.519 35.5363 59.3012 35.5043L58.9756 35.4556L58.6678 35.3682L58.055 35.1879C57.6666 35.0353 57.2994 34.8508 56.9258 34.6809C56.7116 34.5836 56.5407 34.4107 56.4458 34.1951C56.3509 33.9796 56.3385 33.7366 56.4111 33.5126ZM71.6887 29.2975C71.7769 29.2145 71.8805 29.1498 71.9937 29.107C72.1069 29.0642 72.2274 29.0441 72.3483 29.0479C72.4693 29.0518 72.5882 29.0794 72.6985 29.1293C72.8088 29.1792 72.9081 29.2504 72.9909 29.3388L73.0837 29.4379C73.3066 29.6756 73.5167 29.9307 73.7431 30.1587L74.1047 30.4627L74.2847 30.6149L74.4799 30.732L74.8667 30.9684L75.2733 31.1332C75.4045 31.2026 75.5492 31.2161 75.6869 31.253L75.8948 31.3042C75.9646 31.3187 76.0372 31.3158 76.1079 31.3232C76.6675 31.3732 77.2694 31.3257 77.8095 31.0399C78.0761 30.8955 78.3611 30.7979 78.6405 30.6636C78.7825 30.6014 78.9213 30.5337 79.0633 30.4674C79.1969 30.4046 79.3584 30.3228 79.4613 30.2875L79.7081 30.2029C79.8986 30.1378 80.1053 30.1376 80.296 30.2023C80.4866 30.267 80.6506 30.393 80.7624 30.5607C80.8742 30.7284 80.9276 30.9284 80.9142 31.1296C80.9008 31.3308 80.8215 31.5219 80.6884 31.6733C80.5105 31.8757 80.3738 32.011 80.2043 32.1555C80.0409 32.2941 79.8679 32.421 79.6866 32.5351C79.3279 32.7672 78.9347 32.9601 78.5112 33.0688C78.3009 33.1276 78.0786 33.1551 77.8673 33.2047C77.6514 33.2443 77.4296 33.2705 77.2118 33.3046C76.7694 33.3434 76.3185 33.3546 75.8715 33.2838C75.7601 33.2681 75.6471 33.2615 75.5377 33.2363L75.2117 33.1495C74.9964 33.0865 74.7738 33.0407 74.5764 32.9385L73.9719 32.6623L73.4268 32.3081L73.1581 32.127L72.921 31.918L72.4478 31.5002C72.1588 31.2049 71.901 30.8891 71.6297 30.5824C71.471 30.4026 71.3884 30.1679 71.3994 29.9281C71.4104 29.6883 71.5141 29.4622 71.6887 29.2977V29.2975ZM91.9958 30.2024C90.7014 27.3161 88.9365 24.8702 86.7015 22.8666C84.4657 20.8643 81.8777 19.3311 78.9367 18.271C75.9943 17.2099 72.8482 16.6796 69.4953 16.6796C66.2001 16.6796 63.0677 17.2099 60.0985 18.271C57.127 19.3311 54.5394 20.8643 52.3331 22.8666C50.1272 24.8702 48.3765 27.3161 47.0835 30.2024C45.7887 33.0898 45.1421 36.3312 45.1421 39.9247C45.1421 43.519 45.7887 46.7744 47.0835 49.6911C48.3763 52.6072 50.1272 55.0824 52.3331 57.1154C54.5394 59.148 57.1268 60.7248 60.0985 61.8439C63.0677 62.9625 66.2001 63.5228 69.4953 63.5228C72.8482 63.5228 75.9943 62.9625 78.9367 61.8437C81.8777 60.7248 84.4657 59.148 86.7015 57.1154C88.9365 55.0824 90.7014 52.6074 91.9958 49.6909C93.2887 46.7744 93.9372 43.519 93.9372 39.9247C93.9372 36.3312 93.2887 33.0898 91.9958 30.2024ZM255.098 45.9946C254.899 46.3682 254.469 46.4609 254.139 46.1978C254.07 46.142 254.011 46.0714 253.951 46.0053C253.799 45.8397 253.651 45.671 253.497 45.5072C253.158 45.1472 252.759 44.8798 252.29 44.7193C252.12 44.6613 251.949 44.6043 251.783 44.5355C251.403 44.3786 251.11 44.1179 250.94 43.7414C250.798 43.429 250.836 43.1301 251.068 42.8625C251.308 42.5864 251.624 42.5044 251.967 42.5163C252.688 42.5426 253.333 42.8175 253.92 43.2117C254.27 43.4463 254.559 43.7668 254.783 44.1301C255.026 44.5242 255.209 44.9424 255.214 45.5173C255.219 45.6195 255.195 45.8141 255.099 45.9944L255.098 45.9946ZM252.489 46.982C250.805 49.7863 248.464 52.158 245.557 53.6807C242.808 55.1202 239.739 55.8998 236.671 55.888C231.548 55.8682 226.677 53.4513 223.342 49.5906C221.922 47.946 220.783 46.0518 220.066 43.9963C219.732 43.0391 218.322 38.9582 219.804 38.5011C220.65 38.2401 221.398 39.117 222.015 39.5486C222.735 40.0523 223.481 40.5172 224.251 40.9414C225.748 41.7663 227.378 42.4453 228.991 42.91C235.428 44.7654 242.594 46.4473 249.325 45.6588C250.118 45.5658 252.73 44.8083 252.75 46.2655C252.754 46.5233 252.621 46.7608 252.489 46.982ZM218.618 38.256C218.558 38.3223 218.492 38.3836 218.421 38.4394C218.082 38.701 217.709 38.7797 217.312 38.5943C216.951 38.426 216.549 38.0685 216.622 37.5439C216.667 37.2174 216.862 36.9842 217.105 36.792C217.793 36.2496 218.55 35.8884 219.439 35.9291C220.011 35.9099 220.544 36.0018 221.033 36.2856C221.281 36.4289 221.482 36.6164 221.582 36.8921C221.701 37.2192 221.575 37.4855 221.246 37.5974C221.076 37.6552 220.897 37.6693 220.717 37.6833C220.324 37.7135 219.931 37.7498 219.539 37.7969C219.181 37.8399 218.87 37.99 218.618 38.256ZM225.684 30.1702C225.805 30.0638 225.951 29.9912 226.109 29.9598C226.266 29.9283 226.43 29.939 226.582 29.991L226.828 30.0756C226.93 30.111 227.091 30.1925 227.225 30.2553C227.367 30.3214 227.505 30.3891 227.647 30.4515C227.926 30.5851 228.21 30.6828 228.476 30.8268C229.016 31.112 229.616 31.1597 230.175 31.1097C230.245 31.1021 230.318 31.1052 230.387 31.0905L230.595 31.0393C230.733 31.0027 230.877 30.9891 231.008 30.9201L231.414 30.7557L231.8 30.5195L231.995 30.4026L232.174 30.2506L232.535 29.9472C232.761 29.7198 232.971 29.465 233.194 29.2277L233.286 29.1292C233.45 28.9487 233.679 28.841 233.923 28.8297C234.167 28.8185 234.405 28.9046 234.585 29.0692C234.765 29.2337 234.872 29.4632 234.884 29.7072C234.895 29.9512 234.809 30.1897 234.645 30.3701C234.374 30.6764 234.117 30.9918 233.828 31.2863L233.356 31.7035L233.119 31.912L232.851 32.0925L232.307 32.4461L231.704 32.722C231.507 32.8238 231.284 32.8697 231.069 32.9321L230.744 33.0192C230.635 33.0442 230.522 33.0508 230.411 33.0665C229.965 33.1369 229.515 33.126 229.073 33.0874C228.856 33.0533 228.634 33.0271 228.419 32.9878C228.208 32.9378 227.986 32.9106 227.776 32.8517C227.353 32.7435 226.961 32.5508 226.603 32.3191C226.422 32.2051 226.249 32.0786 226.086 31.9403C225.917 31.796 225.781 31.6613 225.603 31.4589C225.443 31.2772 225.362 31.0394 225.377 30.7977C225.392 30.556 225.503 30.3303 225.684 30.1702ZM241.224 30.1828C241.436 30.1006 241.67 30.0967 241.884 30.1717C242.099 30.2468 242.28 30.3959 242.395 30.5924L242.454 30.6946C242.526 30.8167 242.601 30.9372 242.678 31.056C242.763 31.1863 242.85 31.3146 242.947 31.4368C243.133 31.6871 243.348 31.9073 243.561 32.1184C244 32.5302 244.491 32.8253 245.004 33.0118C245.069 33.0345 245.13 33.0696 245.197 33.0865L245.399 33.1309C245.534 33.1582 245.665 33.2094 245.809 33.2051C245.95 33.2133 246.092 33.2241 246.233 33.2375C246.378 33.223 246.525 33.2096 246.673 33.2014L246.894 33.1877L247.12 33.1357L247.573 33.0368C247.877 32.948 248.18 32.8271 248.49 32.7268L248.632 32.6805C248.865 32.6044 249.117 32.6205 249.338 32.7253C249.559 32.8301 249.731 33.0157 249.819 33.2439C249.907 33.472 249.905 33.7255 249.812 33.9519C249.72 34.1784 249.544 34.3606 249.321 34.4611C248.948 34.6305 248.582 34.8145 248.194 34.9671L247.582 35.1468L247.275 35.2344L246.95 35.2827C246.733 35.3135 246.515 35.3432 246.296 35.3649L245.62 35.3463C245.395 35.3506 245.17 35.293 244.945 35.2538L244.608 35.1865C244.497 35.1604 244.39 35.116 244.281 35.0797C243.406 34.792 242.645 34.2459 242.056 33.6113C241.764 33.2968 241.502 32.9559 241.272 32.5929C241.157 32.4147 241.05 32.2313 240.952 32.0432C240.849 31.8416 240.757 31.6345 240.676 31.4228C240.585 31.1856 240.591 30.9218 240.694 30.6893C240.796 30.4568 240.987 30.2746 241.224 30.1828ZM259.023 29.7243C257.73 26.8436 255.969 24.4023 253.738 22.4023C251.507 20.4036 248.923 18.8735 245.988 17.8152C243.051 16.7564 239.911 16.2271 236.564 16.2271C233.275 16.2271 230.148 16.7564 227.185 17.8152C224.219 18.8735 221.636 20.4036 219.434 22.4021C217.233 24.4023 215.485 26.8436 214.194 29.7243C212.902 32.6066 212.256 35.8415 212.256 39.4284C212.256 43.0161 212.902 46.2655 214.194 49.1767C215.485 52.0878 217.233 54.558 219.434 56.5869C221.636 58.616 224.219 60.1897 227.185 61.307C230.148 62.4232 233.275 62.9827 236.564 62.9827C239.911 62.9827 243.051 62.4232 245.988 61.307C248.924 60.1897 251.507 58.616 253.738 56.5869C255.969 54.558 257.73 52.0878 259.023 49.1767C260.312 46.2655 260.961 43.0161 260.961 39.4284C260.961 35.8415 260.312 32.6066 259.023 29.7243" fill="#067BC2"/>
</svg>
