<svg width="315" height="106" fill="none" xmlns="http://www.w3.org/2000/svg"><path d="M4.352 97.887C2.545 97.362 1.095 96.68 0 95.84l1.922-4.272c1.049.77 2.295 1.39 3.74 1.856 1.445.467 2.89.7 4.335.7 1.607 0 2.796-.238 3.565-.717.769-.478 1.153-1.115 1.153-1.908 0-.584-.227-1.069-.681-1.453-.455-.385-1.037-.695-1.748-.928-.711-.234-1.672-.49-2.884-.77-1.864-.444-3.39-.887-4.579-1.33a7.433 7.433 0 0 1-3.058-2.136C.915 83.9.489 82.593.489 80.959c0-1.423.385-2.713 1.154-3.868.769-1.156 1.928-2.071 3.478-2.749 1.549-.677 3.442-1.015 5.68-1.015 1.56 0 3.087.187 4.578.56 1.491.374 2.796.91 3.915 1.61l-1.748 4.307c-2.26-1.284-4.52-1.926-6.78-1.926-1.585 0-2.756.257-3.513.77-.758.514-1.136 1.19-1.136 2.031 0 .84.437 1.465 1.31 1.873.874.41 2.208.812 4.003 1.208 1.864.444 3.39.887 4.579 1.33a7.586 7.586 0 0 1 3.058 2.101c.85.957 1.276 2.253 1.276 3.887a6.7 6.7 0 0 1-1.171 3.833c-.781 1.156-1.952 2.072-3.513 2.748-1.562.677-3.46 1.016-5.698 1.016-1.934 0-3.804-.263-5.61-.788Zm32.435-5.251c.897-.946 1.346-2.212 1.346-3.8 0-1.587-.449-2.853-1.346-3.798-.897-.945-2.044-1.417-3.443-1.417-1.397 0-2.551.472-3.46 1.417-.909.945-1.363 2.212-1.363 3.799 0 1.587.454 2.853 1.363 3.799.909.945 2.063 1.417 3.46 1.417 1.399 0 2.546-.472 3.443-1.417Zm-8.773 4.656c-1.573-.828-2.802-1.978-3.687-3.45-.886-1.469-1.329-3.138-1.329-5.005s.443-3.537 1.329-5.007c.885-1.47 2.114-2.62 3.687-3.448 1.573-.829 3.35-1.243 5.33-1.243s3.752.414 5.314 1.243c1.56.828 2.784 1.978 3.67 3.448.885 1.47 1.328 3.14 1.328 5.007 0 1.867-.443 3.536-1.328 5.006-.886 1.47-2.11 2.62-3.67 3.449-1.562.829-3.333 1.243-5.314 1.243-1.98 0-3.757-.414-5.33-1.243Zm23.524 0c-1.597-.828-2.844-1.978-3.74-3.45-.898-1.469-1.346-3.138-1.346-5.005s.448-3.537 1.346-5.007c.896-1.47 2.143-2.62 3.74-3.448 1.595-.829 3.395-1.243 5.4-1.243 1.98 0 3.71.414 5.19 1.243 1.48.828 2.558 2.013 3.233 3.553l-4.229 2.276c-.978-1.727-2.389-2.59-4.23-2.59-1.42 0-2.598.467-3.53 1.4-.932.933-1.398 2.205-1.398 3.816 0 1.61.466 2.883 1.398 3.816.932.934 2.11 1.4 3.53 1.4 1.865 0 3.274-.863 4.23-2.59l4.23 2.31c-.676 1.494-1.754 2.66-3.234 3.501-1.48.84-3.21 1.26-5.19 1.26-2.005 0-3.805-.413-5.4-1.242Zm17.529-17.873h5.452v18.836h-5.453V79.419Zm.28-3.501c-.63-.583-.945-1.307-.945-2.17 0-.864.315-1.588.944-2.172.629-.583 1.444-.875 2.447-.875 1.001 0 1.817.28 2.446.84.63.56.944 1.261.944 2.101 0 .91-.314 1.663-.944 2.258-.629.596-1.445.893-2.446.893-1.003 0-1.818-.292-2.447-.875Zm20.446 18.293c.722-.432 1.235-1.068 1.538-1.909v-1.925h-3.74c-2.237 0-3.355.736-3.355 2.206 0 .7.273 1.255.821 1.663.548.409 1.299.613 2.255.613.931 0 1.758-.216 2.481-.648Zm4.649-12.989c1.56 1.389 2.342 3.483 2.342 6.284v10.749H91.68v-2.346c-1.026 1.75-2.936 2.626-5.733 2.626-1.445 0-2.697-.245-3.757-.736-1.06-.49-1.87-1.167-2.43-2.03-.558-.863-.838-1.844-.838-2.94 0-1.751.658-3.128 1.974-4.132 1.317-1.004 3.35-1.506 6.1-1.506h4.334c0-1.19-.361-2.106-1.083-2.748-.723-.642-1.806-.963-3.25-.963-1.004 0-2.001.16-2.954.473-.968.314-1.789.741-2.465 1.278l-1.957-3.817c1.025-.723 2.254-1.283 3.688-1.68a16.49 16.49 0 0 1 4.421-.595c2.913 0 5.15.694 6.71 2.083Zm7.829-8.945h5.453v25.978h-5.453V72.277Zm40.86 21.426v4.552h-18.945V73.747h18.49v4.551h-12.862v5.323h11.359v4.41h-11.359v5.672h13.317Zm21.757-12.463c1.433 1.4 2.15 3.477 2.15 6.231v10.784h-5.453v-9.943c0-1.494-.327-2.609-.978-3.344-.653-.735-1.596-1.103-2.832-1.103-1.375 0-2.47.426-3.285 1.278-.816.852-1.223 2.118-1.223 3.798v9.313h-5.453V79.418h5.208v2.206c.722-.793 1.619-1.405 2.691-1.838 1.072-.432 2.249-.647 3.53-.647 2.33 0 4.212.7 5.645 2.1Zm19.766 16.105c-.536.396-1.194.694-1.975.892a9.975 9.975 0 0 1-2.464.298c-2.237 0-3.967-.572-5.19-1.716-1.224-1.143-1.836-2.824-1.836-5.041V84.04h-2.901V79.84h2.901v-4.587h5.453v4.587h4.684v4.201h-4.684v7.667c0 .794.204 1.407.612 1.839.408.432.984.648 1.73.648.862 0 1.596-.234 2.202-.7l1.468 3.85Zm8.598-13.025c-.839.7-1.352 1.658-1.538 2.871h9.263c-.187-1.19-.699-2.141-1.538-2.853-.839-.712-1.865-1.068-3.076-1.068-1.235 0-2.272.35-3.111 1.05Zm12.758 6.057h-14.226c.256 1.168.862 2.09 1.817 2.766.956.677 2.144 1.015 3.566 1.015.978 0 1.846-.145 2.604-.437.757-.292 1.462-.753 2.114-1.383l2.901 3.151c-1.771 2.03-4.357 3.046-7.759 3.046-2.12 0-3.997-.414-5.628-1.243-1.631-.828-2.889-1.978-3.775-3.45-.885-1.469-1.328-3.138-1.328-5.005 0-1.844.437-3.507 1.311-4.99a9.195 9.195 0 0 1 3.6-3.465c1.526-.829 3.234-1.243 5.121-1.243 1.841 0 3.507.397 4.998 1.19a8.686 8.686 0 0 1 3.513 3.413c.85 1.483 1.276 3.204 1.276 5.165 0 .07-.035.56-.105 1.47Zm12.146-10.538c1.106-.467 2.382-.7 3.827-.7v5.041a19.724 19.724 0 0 0-1.223-.07c-1.561 0-2.785.438-3.67 1.313-.886.876-1.329 2.188-1.329 3.939v8.893h-5.452V79.419h5.208v2.485c.652-.91 1.532-1.598 2.639-2.065Zm21.251 12.797c.897-.946 1.345-2.212 1.345-3.8 0-1.587-.448-2.853-1.345-3.798-.897-.945-2.045-1.417-3.443-1.417-1.398 0-2.546.472-3.443 1.417-.897.945-1.346 2.212-1.346 3.799 0 1.587.449 2.853 1.346 3.799.897.945 2.045 1.417 3.443 1.417 1.398 0 2.546-.472 3.443-1.417Zm2.272-12.29a8.662 8.662 0 0 1 3.372 3.396c.816 1.46 1.224 3.158 1.224 5.095 0 1.937-.408 3.635-1.224 5.094a8.66 8.66 0 0 1-3.372 3.396c-1.433.805-3.024 1.208-4.771 1.208-2.401 0-4.288-.758-5.663-2.276v8.788h-5.452V79.419h5.208v2.17c1.351-1.633 3.32-2.45 5.907-2.45 1.747 0 3.338.403 4.771 1.208Zm16.637-.507c1.105-.467 2.384-.7 3.827-.7v5.041a19.724 19.724 0 0 0-1.223-.07c-1.562 0-2.785.438-3.67 1.313-.886.876-1.328 2.188-1.328 3.939v8.893h-5.453V79.419h5.208v2.485c.652-.91 1.532-1.598 2.639-2.065Zm7.637-.42h5.454v18.836h-5.454V79.419Zm.281-3.501c-.63-.583-.943-1.307-.943-2.17 0-.864.313-1.588.943-2.172.629-.583 1.443-.875 2.446-.875 1.001 0 1.817.28 2.447.84.63.56.943 1.261.943 2.101 0 .91-.313 1.663-.943 2.258-.63.596-1.446.893-2.447.893-1.003 0-1.817-.292-2.446-.875Zm12.546 22.04c-1.49-.386-2.68-.87-3.565-1.454l1.82-3.92c.838.536 1.85.974 3.04 1.312 1.188.338 2.353.507 3.494.507 2.307 0 3.461-.571 3.461-1.715 0-.537-.316-.922-.943-1.155-.629-.234-1.597-.432-2.903-.596-1.536-.233-2.806-.501-3.81-.805a5.911 5.911 0 0 1-2.603-1.61c-.734-.77-1.1-1.868-1.1-3.291 0-1.19.344-2.247 1.031-3.168.687-.923 1.688-1.64 3.005-2.154 1.317-.513 2.873-.77 4.665-.77 1.335 0 2.666.147 3.97.437 1.314.292 2.405.695 3.266 1.208l-1.818 3.887c-1.654-.934-3.461-1.401-5.418-1.401-1.163 0-2.037.163-2.62.49-.583.327-.874.747-.874 1.26 0 .584.316.993.943 1.226.629.234 1.633.455 3.007.665 1.537.257 2.796.531 3.775.823a5.679 5.679 0 0 1 2.551 1.593c.723.77 1.083 1.844 1.083 3.221a4.983 4.983 0 0 1-1.047 3.116c-.699.91-1.718 1.616-3.06 2.118-1.339.502-2.93.753-4.77.753a18.265 18.265 0 0 1-4.58-.578Zm22.93-13.638c-.838.7-1.352 1.658-1.539 2.871h9.264c-.187-1.19-.698-2.141-1.539-2.853-.839-.712-1.864-1.068-3.076-1.068-1.235 0-2.271.35-3.11 1.05Zm12.759 6.057h-14.227c.256 1.168.861 2.09 1.818 2.766.956.677 2.144 1.015 3.565 1.015.979 0 1.847-.145 2.603-.437.759-.292 1.463-.753 2.114-1.383l2.903 3.151c-1.77 2.03-4.357 3.046-7.76 3.046-2.12 0-3.997-.414-5.628-1.243-1.63-.828-2.889-1.978-3.774-3.45-.885-1.469-1.328-3.138-1.328-5.005 0-1.844.437-3.507 1.311-4.99a9.179 9.179 0 0 1 3.599-3.465c1.526-.829 3.233-1.243 5.122-1.243 1.839 0 3.505.397 4.997 1.19a8.707 8.707 0 0 1 3.514 3.413c.849 1.483 1.275 3.204 1.275 5.165 0 .07-.035.56-.104 1.47" fill="#FFD624"/><path d="M0 3.51h13.517v47.474h29.288v11.032H0V3.51Zm131.502 45.092c2.169-2.257 3.254-5.28 3.254-9.07 0-3.787-1.085-6.81-3.254-9.067-2.17-2.257-4.896-3.385-8.177-3.385-3.338 0-6.091 1.128-8.261 3.385-2.169 2.256-3.254 5.28-3.254 9.068 0 3.79 1.085 6.812 3.254 9.069 2.17 2.256 4.923 3.384 8.261 3.384 3.281 0 6.007-1.128 8.177-3.384ZM147.522 0v62.016H135.09v-5.182c-3.227 3.901-7.9 5.85-14.018 5.85-4.228 0-8.052-.946-11.473-2.841-3.422-1.894-6.106-4.597-8.052-8.107-1.948-3.51-2.92-7.577-2.92-12.203 0-4.624.972-8.692 2.92-12.203 1.946-3.51 4.63-6.211 8.052-8.106 3.421-1.895 7.245-2.842 11.473-2.842 5.728 0 10.207 1.811 13.434 5.432V0h13.016Zm40.719 48.602c2.169-2.257 3.254-5.28 3.254-9.07 0-3.787-1.085-6.81-3.254-9.067-2.169-2.257-4.897-3.385-8.178-3.385-3.337 0-6.091 1.128-8.26 3.385-2.17 2.256-3.255 5.28-3.255 9.068 0 3.79 1.085 6.812 3.255 9.069 2.169 2.256 4.923 3.384 8.26 3.384 3.281 0 6.009-1.128 8.178-3.384ZM204.261 0v62.016h-12.433v-5.182c-3.226 3.901-7.899 5.85-14.017 5.85-4.229 0-8.052-.946-11.473-2.841-3.422-1.894-6.106-4.597-8.052-8.107-1.949-3.51-2.921-7.577-2.921-12.203 0-4.624.972-8.692 2.921-12.203 1.946-3.51 4.63-6.211 8.052-8.106 3.421-1.895 7.244-2.842 11.473-2.842 5.728 0 10.207 1.811 13.433 5.432V0h13.017Zm105.427 21.396c3.42 3.343 5.13 8.303 5.13 14.877v25.743h-13.017V38.279c0-3.565-.778-6.226-2.337-7.981-1.556-1.756-3.81-2.633-6.757-2.633-3.282 0-5.897 1.017-7.843 3.05-1.949 2.035-2.922 5.057-2.922 9.069v22.232h-13.017V17.05h12.434v5.266c1.724-1.894 3.865-3.357 6.425-4.388 2.559-1.03 5.368-1.546 8.428-1.546 5.561 0 10.054 1.671 13.476 5.014ZM88.995 38.822c-.398.186-.771.107-1.112-.155a1.719 1.719 0 0 1-.197-.184 1.474 1.474 0 0 0-.923-.46 28.419 28.419 0 0 0-1.18-.114c-.18-.014-.359-.028-.53-.086-.33-.112-.456-.379-.336-.706.1-.277.302-.464.55-.608.49-.284 1.024-.377 1.597-.358.89-.04 1.65.322 2.338.865.244.193.439.427.484.754.073.525-.33.883-.69 1.052Zm-2.76 5.412c-.718 2.06-1.859 3.957-3.282 5.605-3.34 3.868-8.221 6.29-13.353 6.309-3.075.012-6.15-.769-8.903-2.211-2.913-1.526-5.258-3.902-6.945-6.712-.132-.221-.266-.46-.262-.717.02-1.46 2.638-.701 3.432-.608 6.744.79 13.923-.895 20.372-2.754a23.433 23.433 0 0 0 4.75-1.973 24.88 24.88 0 0 0 2.239-1.395c.618-.432 1.367-1.31 2.215-1.05 1.485.458.072 4.547-.263 5.506Zm-33.947 2.013c-.061.066-.12.137-.19.192-.33.264-.761.171-.96-.203a1.003 1.003 0 0 1-.116-.478c.005-.576.188-.995.432-1.39a2.99 2.99 0 0 1 .864-.92c.588-.395 1.234-.67 1.958-.696.343-.013.66.07.9.346a.77.77 0 0 1 .128.88c-.17.378-.464.639-.845.797-.166.068-.337.125-.507.183-.47.161-.87.429-1.21.79-.153.164-.302.333-.454.499Zm4.123-12.734a.958.958 0 0 1 1.205-.616l.143.046c.31.101.614.222.919.311l.454.099.225.052.223.014c.147.01.294.021.44.036.142-.013.283-.024.425-.032.144.004.275-.047.41-.075l.203-.044c.067-.017.128-.052.193-.075a4.212 4.212 0 0 0 1.446-.895 6.054 6.054 0 0 0 .884-1.065c.08-.122.175-.277.225-.362l.06-.102a.96.96 0 0 1 1.72.832 6.129 6.129 0 0 1-.596 1.172c-.23.364-.493.706-.785 1.02-.59.637-1.353 1.184-2.23 1.472-.109.036-.216.08-.327.107l-.338.067c-.225.04-.45.097-.676.093l-.677.019c-.22-.023-.438-.05-.656-.083l-.325-.048-.308-.088-.613-.18c-.388-.153-.756-.337-1.13-.507a.957.957 0 0 1-.514-1.168Zm15.278-4.215a.92.92 0 0 1 1.302.04l.093.1c.223.238.433.493.66.72l.36.305.18.152.196.117.387.236.406.165c.132.07.276.083.414.12l.208.051c.07.015.142.012.213.02.56.05 1.161.002 1.701-.284.267-.145.552-.242.832-.376.141-.063.28-.13.422-.197.134-.062.295-.144.398-.18l.247-.084a.912.912 0 0 1 1.206.927.915.915 0 0 1-.226.543 4.43 4.43 0 0 1-1.001.862 4.018 4.018 0 0 1-1.176.534c-.21.059-.432.086-.644.136-.216.04-.437.066-.655.1a5.49 5.49 0 0 1-1.34-.021c-.112-.016-.225-.023-.334-.048l-.326-.086c-.216-.063-.438-.11-.636-.212l-.604-.276-.545-.354-.269-.181-.237-.209-.473-.418c-.29-.295-.547-.61-.818-.918a.925.925 0 0 1 .059-1.284Zm20.307.904c-1.295-2.886-3.06-5.332-5.294-7.335-2.236-2.003-4.824-3.536-7.765-4.596-2.943-1.061-6.089-1.591-9.442-1.591-3.295 0-6.427.53-9.397 1.591-2.971 1.06-5.559 2.593-7.765 4.596-2.206 2.003-3.956 4.45-5.25 7.335-1.294 2.888-1.94 6.13-1.94 9.723 0 3.594.646 6.85 1.94 9.766 1.293 2.916 3.044 5.391 5.25 7.424 2.206 2.033 4.794 3.61 7.766 4.729 2.969 1.118 6.101 1.679 9.396 1.679 3.353 0 6.5-.56 9.442-1.68 2.94-1.118 5.529-2.695 7.764-4.728 2.236-2.033 4-4.508 5.295-7.424 1.293-2.917 1.941-6.172 1.941-9.766 0-3.594-.648-6.835-1.941-9.723Zm163.102 15.793c-.199.373-.629.466-.959.203-.069-.056-.128-.127-.188-.193-.152-.165-.3-.334-.454-.498a2.953 2.953 0 0 0-1.207-.788c-.17-.058-.341-.115-.507-.184a1.528 1.528 0 0 1-.843-.794.769.769 0 0 1 .128-.879c.24-.276.556-.358.899-.346.721.027 1.366.302 1.953.696.35.234.639.555.863.918.243.394.426.812.431 1.387a.997.997 0 0 1-.115.477h-.001Zm-2.609.987c-1.684 2.804-4.025 5.176-6.932 6.699-2.749 1.44-5.818 2.219-8.886 2.207-5.123-.02-9.994-2.437-13.329-6.297-1.42-1.645-2.559-3.54-3.276-5.595-.334-.957-1.744-5.038-.262-5.495.846-.26 1.594.616 2.211 1.048.72.503 1.466.968 2.236 1.392a23.353 23.353 0 0 0 4.74 1.969c6.437 1.855 13.603 3.537 20.334 2.749.793-.093 3.405-.85 3.425.607.004.257-.129.495-.261.716Zm-33.871-8.726c-.06.066-.126.128-.197.183-.339.262-.712.34-1.109.155-.361-.168-.763-.526-.69-1.05.045-.327.24-.56.483-.752.688-.542 1.445-.904 2.334-.863.572-.02 1.105.073 1.594.357.248.143.449.33.549.606.119.327-.007.593-.336.705-.17.058-.349.072-.529.086-.393.03-.786.067-1.178.114a1.476 1.476 0 0 0-.921.459Zm7.066-8.086a.912.912 0 0 1 .898-.179l.246.085c.102.035.263.116.397.18.142.065.28.133.422.195.279.134.563.232.829.376.54.285 1.14.333 1.699.283.07-.008.143-.005.212-.02l.208-.05c.138-.037.282-.05.413-.12l.406-.164.386-.236.195-.117.179-.152.361-.304c.226-.227.436-.482.659-.72l.092-.098a.918.918 0 0 1 1.598.578.924.924 0 0 1-.239.663c-.271.306-.528.622-.817.916l-.472.417-.237.209-.268.18-.544.354-.603.276c-.197.102-.42.148-.635.21l-.325.087c-.109.025-.222.032-.333.047a5.5 5.5 0 0 1-1.338.021c-.217-.034-.439-.06-.654-.1-.211-.05-.433-.076-.643-.135a3.997 3.997 0 0 1-1.173-.533 4.45 4.45 0 0 1-1-.86.914.914 0 0 1 .081-1.289Zm15.54.013a.953.953 0 0 1 1.171.41l.059.102c.072.122.147.242.224.361a6.067 6.067 0 0 0 .883 1.062c.439.412.93.707 1.443.894.065.023.126.058.193.075l.202.044c.135.027.266.078.41.074.141.008.283.02.424.032.145-.014.292-.027.44-.036l.221-.013.226-.052.453-.1c.304-.088.607-.209.917-.31l.142-.045a.954.954 0 0 1 1.18 1.27.952.952 0 0 1-.491.51c-.373.17-.739.354-1.127.506l-.612.18-.307.087-.325.049c-.217.03-.435.06-.654.082l-.676-.019c-.225.005-.45-.053-.675-.092l-.337-.067c-.111-.027-.218-.071-.327-.107-.875-.288-1.636-.834-2.225-1.469a7.01 7.01 0 0 1-.784-1.018 6.859 6.859 0 0 1-.32-.55 6.354 6.354 0 0 1-.276-.62.961.961 0 0 1 .548-1.24Zm17.799-.459c-1.293-2.88-3.054-5.322-5.285-7.322-2.231-1.998-4.815-3.529-7.75-4.587-2.937-1.059-6.077-1.588-9.424-1.588-3.289 0-6.415.53-9.379 1.588-2.966 1.058-5.549 2.589-7.751 4.587-2.201 2-3.949 4.442-5.24 7.322-1.292 2.883-1.938 6.118-1.938 9.704 0 3.588.646 6.838 1.938 9.749 1.291 2.91 3.039 5.381 5.24 7.41 2.202 2.029 4.785 3.603 7.751 4.72 2.964 1.116 6.09 1.676 9.379 1.676 3.347 0 6.487-.56 9.424-1.676 2.936-1.117 5.519-2.691 7.75-4.72s3.992-4.5 5.285-7.41c1.289-2.911 1.938-6.16 1.938-9.749 0-3.586-.649-6.821-1.938-9.704" fill="#fff"/></svg>