<svg fill="none" xmlns="http://www.w3.org/2000/svg" viewBox="0 0 134 134"><ellipse cx="66.859" cy="67.1" rx="62.838" ry="63.955" fill="#fff"/><path d="M120.402 69.267c-1.139.407-2.135.07-2.988-.777a4.795 4.795 0 0 1-.486-.582 4.037 4.037 0 0 0-2.384-1.585 74.72 74.72 0 0 0-3.186-.68c-.488-.094-.972-.189-1.422-.405-.867-.417-1.134-1.213-.714-2.108.354-.755.959-1.227 1.676-1.56 1.421-.66 2.905-.76 4.462-.532 2.441.153 4.407 1.41 6.129 3.162.61.62 1.074 1.344 1.103 2.286.047 1.515-1.155 2.41-2.19 2.78Zm-9.096 14.538c-2.555 5.633-6.218 10.679-10.577 14.928-10.233 9.977-24.25 15.38-38.258 13.885-8.391-.896-16.554-4.043-23.65-8.972-7.505-5.213-13.217-12.672-17.005-21.162-.299-.67-.593-1.386-.508-2.118.478-4.141 7.398-1.194 9.54-.69 18.17 4.283 38.244 1.666 56.379-1.664 4.542-.835 9.194-2.273 13.528-4.167a67.019 67.019 0 0 0 6.513-3.287c1.813-1.041 4.111-3.31 6.348-2.311 3.92 1.75-1.12 12.935-2.31 15.558Zm-93.205-4.543c-.184.17-.363.353-.57.49-.977.65-2.127.255-2.563-.869a2.971 2.971 0 0 1-.178-1.393c.18-1.634.8-2.77 1.58-3.817.72-.966 1.6-1.79 2.625-2.352 1.718-.944 3.561-1.531 5.542-1.387.941.07 1.78.398 2.355 1.257.558.832.574 1.694.096 2.54-.575 1.02-1.45 1.672-2.536 2.005-.473.144-.956.255-1.437.369-1.329.315-2.498.954-3.527 1.877-.468.42-.923.855-1.387 1.28Zm14.936-34.925c.59-1.38 2.142-2 3.466-1.384l.376.175c.816.38 1.611.815 2.416 1.16l1.211.418.6.216.603.107c.4.068.797.151 1.192.235.391.006.78.017 1.168.037.392.056.764-.05 1.142-.087l.564-.066c.187-.028.365-.108.548-.154 1.458-.374 2.886-1.066 4.206-2.105.643-.537 1.295-1.097 1.875-1.753.3-.319.575-.658.845-1.003.255-.324.556-.734.717-.961l.192-.272c.752-1.066 2.155-1.436 3.32-.811 1.292.693 1.801 2.346 1.136 3.694-.339.687-.6 1.151-.932 1.682-.327.504-.666.998-1.035 1.468-.72.954-1.54 1.84-2.437 2.66-1.795 1.628-4.034 2.951-6.51 3.505-.308.07-.612.164-.924.205l-.94.09c-.627.043-1.257.14-1.873.059l-1.852-.152a41.725 41.725 0 0 1-1.765-.432l-.874-.237-.815-.341-1.62-.697c-1.015-.552-1.963-1.186-2.934-1.782-1.138-.696-1.617-2.188-1.066-3.474Zm42.903-7.355c1.113-.878 2.699-.65 3.541.512l.224.308c.54.743 1.039 1.531 1.59 2.247l.899.973.447.487.499.392.987.788 1.062.59c.338.238.728.32 1.094.466l.552.208c.186.063.385.076.575.119 1.513.311 3.169.358 4.726-.291.768-.329 1.574-.52 2.376-.817.405-.134.803-.285 1.21-.43.383-.138.847-.321 1.137-.39l.698-.167c.848-.2 1.771.066 2.4.782.937 1.062.869 2.716-.15 3.692a12.148 12.148 0 0 1-2.983 2.144c-1.046.552-2.174.98-3.362 1.161-.59.104-1.204.115-1.795.192-.6.047-1.213.054-1.817.086-1.22-.024-2.453-.13-3.652-.465-.3-.079-.606-.13-.897-.236l-.864-.346c-.57-.243-1.164-.44-1.672-.79l-1.57-.968-1.385-1.17-.68-.596-.587-.665-1.17-1.33c-.703-.926-1.315-1.9-1.966-2.854-.79-1.157-.56-2.77.533-3.632Zm55.143 8.708c-2.697-8.59-6.804-16.07-12.322-22.437-5.521-6.363-12.139-11.5-19.855-15.4-7.72-3.904-16.151-6.36-25.3-7.374-8.99-.997-17.69-.438-26.098 1.681C39.093 4.272 31.59 7.846 24.99 12.865c-6.597 5.025-12.08 11.443-16.445 19.25-4.367 7.811-7.07 16.822-8.11 27.03-1.04 10.209-.217 19.65 2.471 28.327 2.684 8.674 6.745 16.233 12.175 22.675 5.431 6.441 12.035 11.701 19.818 15.778 7.778 4.074 16.163 6.613 25.152 7.609 9.149 1.014 17.895.373 26.246-1.915 8.347-2.29 15.865-5.986 22.554-11.085 6.685-5.098 12.217-11.595 16.593-19.488 4.372-7.893 7.082-16.944 8.122-27.153 1.04-10.208.209-19.61-2.483-28.203" fill="#067BC2"/></svg>