<?xml version="1.0" standalone="no"?>
<!DOCTYPE svg PUBLIC "-//W3C//DTD SVG 20010904//EN"
 "http://www.w3.org/TR/2001/REC-SVG-20010904/DTD/svg10.dtd">
<svg version="1.0" xmlns="http://www.w3.org/2000/svg"
 width="700.000000pt" height="700.000000pt" viewBox="0 0 700.000000 700.000000"
 preserveAspectRatio="xMidYMid meet">
<metadata>
Created by potrace 1.14, written by Peter Selinger 2001-2017
</metadata>
<g transform="translate(0.000000,700.000000) scale(0.100000,-0.100000)"
fill="#000000" stroke="none">
<path d="M3179 6996 c-2 -2 -47 -6 -100 -10 -53 -4 -104 -8 -115 -10 -10 -2
-46 -7 -79 -10 -134 -16 -388 -72 -565 -124 -564 -168 -1073 -492 -1462 -934
-126 -142 -282 -359 -369 -514 -19 -32 -42 -72 -51 -89 -73 -126 -218 -460
-242 -560 -2 -5 -6 -17 -9 -25 -26 -63 -104 -387 -126 -530 -6 -36 -13 -75
-15 -87 -3 -12 -8 -53 -11 -90 -4 -37 -8 -75 -10 -83 -26 -104 -26 -730 0
-891 2 -13 6 -46 9 -74 3 -27 8 -59 10 -70 2 -11 9 -51 16 -90 6 -38 16 -83
20 -100 5 -16 12 -41 14 -55 58 -291 231 -716 414 -1015 289 -471 727 -888
1222 -1162 115 -64 360 -183 375 -183 3 0 24 -9 48 -19 175 -80 587 -194 782
-217 27 -4 53 -8 56 -10 4 -2 28 -6 55 -9 27 -3 67 -7 89 -10 133 -16 204 -19
415 -19 212 -1 371 6 440 18 14 3 48 7 75 11 422 53 903 218 1285 443 89 53
301 193 320 212 3 3 39 32 80 65 122 96 276 244 380 365 36 41 68 77 71 80 3
3 35 44 72 92 228 300 404 632 524 988 13 41 27 82 29 90 2 8 13 46 24 85 37
129 93 397 105 510 3 22 7 50 9 62 3 12 8 57 11 100 4 43 9 87 12 98 12 49 10
568 -3 694 -43 425 -143 788 -322 1161 -90 188 -223 410 -321 535 -17 22 -34
45 -38 50 -199 262 -530 560 -848 762 -352 223 -813 406 -1230 489 -11 2 -31
6 -45 9 -14 3 -43 7 -65 11 -22 3 -47 7 -56 10 -9 3 -36 7 -60 9 -24 3 -55 7
-69 10 -14 3 -54 7 -91 10 -36 3 -81 8 -100 11 -37 6 -554 15 -560 10z m937
-1922 c12 -7 43 -43 70 -81 100 -142 178 -214 287 -263 138 -62 213 -59 444
19 99 34 193 61 209 61 35 0 87 -30 109 -63 20 -32 25 -96 10 -127 -47 -93
-214 -191 -373 -220 -64 -11 -246 -14 -297 -5 -237 45 -411 165 -575 395 -68
96 -90 145 -83 189 14 92 121 144 199 95z m-1105 -71 c38 -23 70 -88 64 -132
-5 -37 -55 -140 -89 -183 -11 -14 -32 -41 -46 -59 -78 -102 -222 -213 -340
-262 -184 -77 -410 -70 -610 18 -102 46 -233 130 -253 164 -25 43 -28 99 -6
142 41 82 121 95 234 38 231 -115 406 -123 586 -27 73 38 184 139 250 227 27
35 57 70 67 76 37 27 96 25 143 -2z m3059 -1198 c87 -15 138 -41 238 -123 93
-78 119 -169 67 -238 -70 -92 -191 -91 -262 2 -15 20 -43 47 -63 59 -29 19
-138 49 -250 70 -49 9 -81 28 -96 57 -13 26 -13 32 3 66 19 42 32 54 85 82 68
36 163 45 278 25z m-128 -375 c16 -8 37 -32 49 -57 19 -39 21 -56 16 -131 -7
-101 -8 -110 -43 -228 -91 -316 -314 -740 -499 -950 -5 -6 -35 -40 -65 -74
-173 -198 -439 -420 -632 -529 -21 -12 -53 -29 -70 -39 -49 -27 -148 -78 -188
-95 -19 -8 -61 -27 -93 -41 -71 -31 -256 -91 -345 -112 -108 -25 -138 -31
-227 -45 -188 -28 -432 -30 -647 -5 -31 4 -82 13 -184 32 -57 11 -219 56 -309
87 -394 135 -748 356 -1021 638 -113 116 -132 138 -227 266 -127 171 -259 400
-321 555 -42 108 -21 177 64 202 71 21 133 14 321 -39 110 -31 227 -59 299
-71 14 -2 39 -6 55 -9 17 -3 50 -7 75 -10 25 -3 54 -8 66 -10 20 -4 79 -12
164 -20 269 -27 736 -27 1095 0 83 6 188 16 215 20 14 2 54 7 90 10 36 3 92
10 125 15 33 5 85 12 115 15 30 3 62 8 70 10 8 2 35 7 60 10 103 14 254 38
385 62 77 14 154 27 170 29 369 55 852 239 1171 445 135 88 195 103 266 69z
m-4584 -105 c39 -23 75 -92 68 -129 -8 -42 -45 -95 -85 -121 -20 -13 -72 -33
-116 -45 -109 -30 -141 -48 -240 -135 -72 -62 -92 -75 -121 -75 -94 0 -119
121 -52 258 75 157 264 271 443 268 50 -1 80 -7 103 -21z"/>
</g>
</svg>
